<?xml version="1.0" encoding="UTF-8"?>
<svg id="Layer_1" data-name="Layer 1" xmlns="http://www.w3.org/2000/svg" viewBox="0 0 192 192">
  <defs>
    <style>
      .cls-1 {
        fill: #0f0f0f;
      }
    </style>
  </defs>
  <g id="Twitter">
    <path class="cls-1" d="M56.21,118.06h-11.1c-.22,0-.43-.08-.6-.22l-32.01-28.02v28.24H4.32V52.2h8.18v25.91l27.44-25.66c.17-.16.39-.24.61-.24h11.46s-1.63,1.53-1.66,1.56l-30.97,29.07c-.29.27-.87.96-.87,1.51,0,.49.58,1.24.89,1.52l36.81,32.2Z"/>
    <path class="cls-1" d="M86.09,69.55v8.09c-.76-1.98-2.06-3.72-3.92-5.21-1.85-1.49-3.86-2.58-6.02-3.28-2.16-.7-4.29-1.05-6.39-1.05-3.33,0-6.51.65-9.54,1.95-3.03,1.3-5.64,3.05-7.83,5.25-2.19,2.2-3.93,4.82-5.23,7.86-1.3,3.03-1.95,6.21-1.95,9.54,0,4.43,1.1,8.53,3.31,12.3,2.2,3.76,5.19,6.73,8.95,8.9,3.76,2.17,7.86,3.26,12.3,3.26,2.16,0,4.35-.35,6.56-1.05,2.22-.7,4.24-1.78,6.08-3.24,1.84-1.46,3.06-3.14,3.68-5.03v7.96h8.14v-46.25h-8.14ZM81.25,104.69c-3.22,3.41-7.05,5.12-11.49,5.12-2.95,0-5.69-.8-8.23-2.39-2.54-1.59-4.54-3.7-6-6.32-1.46-2.62-2.19-5.43-2.19-8.4,0-4.58,1.62-8.61,4.86-12.1,3.24-3.48,7.09-5.23,11.55-5.23s8.26,1.74,11.49,5.23c3.22,3.49,4.84,7.52,4.84,12.1s-1.61,8.58-4.84,11.99Z"/>
    <path class="cls-1" d="M145.94,83.13c-1.3-3.03-3.04-5.65-5.23-7.83s-4.79-3.93-7.81-5.23c-3.02-1.3-6.18-1.95-9.47-1.95-2.16,0-4.35.36-6.59,1.07-2.23.72-4.27,1.8-6.13,3.26-1.85,1.46-3.09,3.12-3.7,4.99v-7.88h-8.14l.07,70.23h8.07v-32.16c1.14,2.98,3.32,5.32,6.55,7.04,3.22,1.72,6.51,2.58,9.87,2.58s6.45-.65,9.47-1.95c3.02-1.3,5.62-3.05,7.81-5.25,2.19-2.2,3.93-4.82,5.23-7.86,1.3-3.03,1.95-6.21,1.95-9.54s-.65-6.5-1.95-9.54ZM134.92,104.72c-3.22,3.46-7.05,5.19-11.49,5.19-2.95,0-5.69-.8-8.23-2.41-2.54-1.6-4.54-3.73-6-6.39-1.46-2.65-2.19-5.47-2.19-8.45s.73-5.78,2.19-8.42c1.46-2.64,3.46-4.76,6-6.37,2.54-1.6,5.28-2.41,8.23-2.41,4.43,0,8.26,1.72,11.49,5.16,3.22,3.44,4.83,7.45,4.83,12.03s-1.61,8.6-4.83,12.06Z"/>
    <path class="cls-1" d="M186.42,99.33c1.46,2.95,1.65,5.89.57,8.84-.88,2.22-2.31,4.11-4.31,5.67-2,1.56-4.16,2.67-6.48,3.33-2.32.66-4.7.98-7.15.98-3.21,0-6.36-.58-9.45-1.73-3.09-1.15-5.82-2.79-8.18-4.92l-.22-.17c-1.08-.96-1.82-1.74-2.23-2.32l-.44-.74,7.09-4.73.44.61c.88,1.28,2.07,2.38,3.59,3.28,1.52.9,3.04,1.52,4.57,1.86,1.53.34,2.72.56,3.57.68.85.12,1.47.18,1.88.18,2.51-.18,4.7-.64,6.56-1.4,1.69-.82,2.77-1.9,3.24-3.24.29-.76.22-1.65-.22-2.67-.82-1.6-2.76-2.9-5.82-3.89-1.14-.35-2.9-.76-5.3-1.23-9.77-1.75-15.56-5.28-17.37-10.59-.9-2.63-.84-5.27.2-7.92,1.04-2.65,2.59-4.75,4.66-6.3,3.5-2.63,7.67-3.98,12.52-4.07,3.59,0,6.61.55,9.08,1.64,2.46,1.09,5,2.94,7.59,5.54l1.53,1.97-6.26,4.94-1.62-1.97c-.17-.23-.47-.53-.88-.88-.41-.35-1.03-.8-1.86-1.36-.83-.55-1.9-1.02-3.19-1.4-1.3-.38-2.66-.57-4.09-.57-3.18,0-5.88.8-8.1,2.41-.79.64-1.4,1.47-1.84,2.47-.44,1.01-.51,1.95-.22,2.82.52,1.43,2.29,2.71,5.3,3.85,1.05.44,3.14.98,6.26,1.62,3.38.76,5.43,1.25,6.13,1.49,5.31,1.69,8.8,4.33,10.46,7.92h0Z"/>
  </g>
</svg>