<?xml version="1.0" encoding="UTF-8"?>
<svg id="Layer_1" data-name="Layer 1" xmlns="http://www.w3.org/2000/svg" viewBox="0 0 180 180">
  <defs>
    <style>
      .cls-1 {
        fill: #0f0f0f;
      }
    </style>
  </defs>
  <g id="Twitter">
    <path class="cls-1" d="M52.82,110.62h-10.38c-.2,0-.4-.07-.56-.21l-29.92-26.19v26.39h-7.65v-61.55h7.65v24.21l25.65-23.98c.16-.15.36-.23.57-.23h10.71s-1.52,1.43-1.55,1.46l-28.95,27.17c-.27.25-.81.9-.81,1.41,0,.46.54,1.16.83,1.42l34.4,30.09Z"/>
    <path class="cls-1" d="M80.73,65.28v7.57c-.71-1.85-1.93-3.48-3.66-4.87-1.73-1.39-3.61-2.41-5.62-3.07-2.02-.66-4.01-.98-5.97-.98-3.11,0-6.08.61-8.92,1.82-2.83,1.21-5.28,2.85-7.32,4.91-2.04,2.06-3.67,4.51-4.89,7.34-1.21,2.84-1.82,5.81-1.82,8.92,0,4.14,1.03,7.98,3.09,11.49,2.06,3.52,4.85,6.29,8.36,8.32,3.52,2.03,7.35,3.05,11.49,3.05,2.02,0,4.06-.33,6.13-.98,2.07-.65,3.97-1.66,5.68-3.03,1.72-1.36,2.86-2.93,3.44-4.7v7.44h7.61v-43.23h-7.61ZM76.21,98.12c-3.01,3.19-6.59,4.79-10.73,4.79-2.75,0-5.32-.74-7.69-2.23-2.37-1.49-4.24-3.46-5.6-5.91-1.36-2.45-2.05-5.07-2.05-7.85,0-4.28,1.51-8.05,4.54-11.31,3.03-3.26,6.63-4.89,10.8-4.89s7.72,1.63,10.73,4.89c3.01,3.26,4.52,7.03,4.52,11.31s-1.51,8.02-4.52,11.21Z"/>
    <path class="cls-1" d="M136.68,77.97c-1.21-2.84-2.84-5.28-4.89-7.32s-4.48-3.67-7.3-4.89c-2.82-1.21-5.77-1.82-8.85-1.82-2.02,0-4.07.33-6.15,1-2.09.67-4,1.68-5.73,3.05-1.73,1.36-2.88,2.92-3.46,4.66v-7.36h-7.61l.06,65.64h7.54v-30.06c1.07,2.78,3.11,4.98,6.12,6.58,3.01,1.61,6.09,2.41,9.22,2.41s6.03-.61,8.85-1.82c2.82-1.21,5.26-2.85,7.3-4.91,2.04-2.06,3.67-4.51,4.89-7.34,1.21-2.83,1.82-5.81,1.82-8.92s-.61-6.08-1.82-8.92ZM126.37,98.15c-3.01,3.23-6.59,4.85-10.74,4.85-2.75,0-5.32-.75-7.69-2.25-2.37-1.5-4.24-3.49-5.6-5.97-1.36-2.48-2.04-5.11-2.04-7.89s.68-5.4,2.04-7.87c1.36-2.47,3.23-4.45,5.6-5.95,2.37-1.5,4.94-2.25,7.69-2.25,4.14,0,7.72,1.61,10.74,4.83,3.01,3.22,4.52,6.97,4.52,11.25s-1.51,8.04-4.52,11.27Z"/>
    <path class="cls-1" d="M174.51,93.11c1.36,2.75,1.54,5.51.53,8.26-.82,2.07-2.16,3.84-4.03,5.3-1.87,1.46-3.89,2.49-6.05,3.11-2.17.61-4.4.92-6.69.92-3,0-5.94-.54-8.83-1.62-2.89-1.08-5.44-2.61-7.65-4.6l-.2-.16c-1.01-.9-1.7-1.62-2.09-2.17l-.41-.7,6.63-4.42.41.57c.82,1.2,1.94,2.22,3.35,3.07,1.42.85,2.84,1.43,4.27,1.74,1.43.31,2.54.53,3.33.63.79.11,1.38.16,1.76.16,2.34-.16,4.39-.6,6.13-1.31,1.58-.76,2.59-1.77,3.03-3.03.27-.71.2-1.54-.2-2.49-.76-1.5-2.58-2.71-5.44-3.64-1.06-.33-2.71-.71-4.95-1.15-9.13-1.64-14.55-4.93-16.24-9.9-.85-2.45-.78-4.92.18-7.4.97-2.48,2.42-4.44,4.36-5.89,3.27-2.45,7.17-3.72,11.7-3.8,3.35,0,6.18.51,8.49,1.53,2.3,1.02,4.67,2.75,7.1,5.17l1.43,1.84-5.85,4.62-1.51-1.84c-.16-.22-.44-.49-.82-.82-.38-.33-.96-.75-1.74-1.27-.78-.52-1.77-.95-2.99-1.31-1.21-.35-2.49-.53-3.82-.53-2.97,0-5.49.75-7.57,2.25-.74.6-1.31,1.37-1.72,2.31-.41.94-.48,1.82-.2,2.64.49,1.34,2.14,2.54,4.95,3.6.98.41,2.93.91,5.85,1.51,3.16.71,5.07,1.17,5.73,1.39,4.96,1.58,8.22,4.05,9.77,7.4h0Z"/>
  </g>
</svg>