<svg width="50" height="50" viewBox="0 0 50 50" fill="none" xmlns="http://www.w3.org/2000/svg">
<g clip-path="url(#clip0_147_2094)">
<path d="M20.478 -0.05168C20.5882 -0.0523645 20.6984 -0.053049 20.8119 -0.0537542C21.1733 -0.0554629 21.5347 -0.0543389 21.8961 -0.0530151C22.1488 -0.0532785 22.4014 -0.0536579 22.6541 -0.0541476C23.1825 -0.0547222 23.7109 -0.0539283 24.2393 -0.0520615C24.8481 -0.049935 25.457 -0.0506256 26.0659 -0.0527749C26.6543 -0.0547682 27.2428 -0.0545483 27.8313 -0.053407C28.0805 -0.0531472 28.3297 -0.0534637 28.5789 -0.0543756C28.9276 -0.0553717 29.2762 -0.0538497 29.6249 -0.05168C29.727 -0.0524707 29.8292 -0.0532614 29.9344 -0.0540761C30.907 -0.0429094 31.713 0.30061 32.4182 0.975427C32.7678 1.38181 33.0837 1.80857 33.3947 2.24496C33.4426 2.31196 33.4905 2.37896 33.5398 2.448C33.6878 2.65629 33.8346 2.8654 33.9807 3.07504C34.0265 3.14048 34.0723 3.20593 34.1195 3.27335C34.1623 3.33581 34.2051 3.39826 34.2492 3.46261C34.3059 3.54484 34.3059 3.54484 34.3637 3.62874C34.4898 3.84284 34.5767 4.06354 34.6643 4.29574C34.7884 4.29421 34.9125 4.29267 35.0404 4.29109C35.5024 4.28578 35.9643 4.28242 36.4262 4.27965C36.6259 4.27818 36.8255 4.27618 37.0252 4.27364C37.3127 4.27007 37.6002 4.26842 37.8877 4.26713C37.9765 4.26562 38.0653 4.26411 38.1569 4.26255C38.7463 4.26239 39.1702 4.34233 39.628 4.74626C39.6738 4.80102 39.7196 4.85578 39.7668 4.9122C39.8136 4.9662 39.8605 5.02021 39.9087 5.07585C40.2649 5.62832 40.2607 6.19392 40.26 6.82794C40.2605 6.92063 40.2609 7.01332 40.2613 7.10882C40.2619 7.30433 40.2619 7.49984 40.2615 7.69535C40.2612 7.99282 40.2635 8.2902 40.266 8.58766C40.2662 8.77826 40.2663 8.96887 40.2662 9.15948C40.2671 9.2476 40.268 9.33572 40.2689 9.42651C40.2639 10.1131 40.1606 10.6653 39.7119 11.211C39.1107 11.7003 38.6358 11.759 37.8877 11.7462C37.7491 11.7456 37.7491 11.7456 37.6078 11.745C37.3142 11.7433 37.0208 11.7397 36.7273 11.7359C36.5276 11.7345 36.328 11.7331 36.1284 11.7319C35.6403 11.7287 35.1523 11.7236 34.6643 11.7176C34.6382 11.7999 34.6121 11.8822 34.5852 11.967C34.4634 12.3196 34.3218 12.6602 34.1722 13.0016C34.1443 13.0658 34.1164 13.13 34.0876 13.1962C33.9993 13.3992 33.9107 13.6021 33.822 13.805C33.7617 13.9435 33.7014 14.082 33.6412 14.2204C33.4942 14.5582 33.3469 14.8957 33.1994 15.2332C33.3006 15.2459 33.4017 15.2586 33.5059 15.2716C36.702 15.7742 40.2798 17.5142 42.2547 20.1357C43.8212 22.3474 44.4861 25.1136 44.0337 27.793C43.9264 28.3304 43.7653 28.8518 43.6078 29.3762C43.5737 29.4905 43.5396 29.6048 43.5045 29.7226C43.0745 31.1556 42.6239 32.5822 42.1734 34.0089C42.0366 34.4423 41.9002 34.8757 41.7637 35.3091C41.6507 35.6681 41.5375 36.0269 41.4236 36.3856C41.2095 37.0611 40.9979 37.7371 40.7944 38.4158C40.6991 38.733 40.6027 39.0499 40.5062 39.3667C40.4605 39.5177 40.4155 39.669 40.3711 39.8204C40.3096 40.0302 40.246 40.2392 40.182 40.4482C40.1465 40.5673 40.111 40.6864 40.0744 40.8091C39.9173 41.1575 39.7738 41.3045 39.4494 41.5028C39.1098 41.4969 38.8734 41.4899 38.6016 41.2758C38.4127 41.0357 38.4249 40.8058 38.4357 40.5095C38.5168 39.9065 38.7244 39.3326 38.9127 38.7562C38.9592 38.6106 39.0056 38.465 39.0519 38.3193C39.1504 38.0103 39.2495 37.7016 39.3493 37.393C39.5054 36.9105 39.6595 36.4274 39.8133 35.9442C39.9679 35.4584 40.1226 34.9725 40.2779 34.4868C40.6849 33.2135 41.0879 31.939 41.4815 30.6614C41.5419 30.4659 41.6027 30.2706 41.6638 30.0753C42.507 27.3812 42.8263 24.8987 41.5979 22.2645C41.3957 21.8844 41.1695 21.5367 40.9143 21.1903C40.8479 21.1 40.7816 21.0098 40.7132 20.9168C38.7598 18.3993 35.5288 17.5897 32.6135 16.6981C32.4582 16.931 32.3335 17.1503 32.2107 17.4C32.1496 17.5241 32.0886 17.6482 32.0276 17.7723C32.4997 17.9562 32.9749 18.1213 33.4573 18.2766C37.4703 19.5702 37.4703 19.5702 38.7658 20.702C38.8914 20.8115 38.8914 20.8115 39.0195 20.9232C40.3613 22.178 41.1064 23.8841 41.2286 25.7084C41.2652 27.0684 40.9047 28.3332 40.4912 29.6162C40.4493 29.7483 40.4074 29.8805 40.3656 30.0127C40.2764 30.2944 40.1867 30.576 40.0967 30.8575C39.9532 31.3061 39.8108 31.755 39.6687 32.204C39.6445 32.2804 39.6203 32.3568 39.5954 32.4355C39.546 32.5915 39.4966 32.7475 39.4472 32.9035C39.3719 33.1413 39.2965 33.379 39.2211 33.6167C38.6808 35.3213 38.1522 37.0294 37.6245 38.7379C37.5386 39.0159 37.4527 39.2938 37.3669 39.5718C37.346 39.6392 37.3252 39.7066 37.3038 39.776C37.2008 40.1094 37.0976 40.4427 36.994 40.7759C36.953 40.908 36.912 41.0401 36.8709 41.1722C36.8505 41.2378 36.8301 41.3034 36.8091 41.371C36.673 41.8097 36.5387 42.249 36.4053 42.6885C36.31 43.0017 36.2138 43.3146 36.1175 43.6274C36.0717 43.7767 36.0264 43.9261 35.9814 44.0757C35.4261 45.9227 35.426 45.9227 34.6704 46.5687C34.6091 46.6228 34.5478 46.677 34.4846 46.7327C34.0047 47.0538 33.5299 47.0939 32.9639 47.096C32.8931 47.0965 32.8223 47.097 32.7494 47.0975C32.5132 47.099 32.2771 47.099 32.041 47.0991C31.8712 47.0998 31.7015 47.1007 31.5317 47.1016C31.0713 47.1037 30.6108 47.1046 30.1504 47.1051C29.8624 47.1054 29.5745 47.106 29.2865 47.1067C28.2811 47.1091 27.2758 47.1104 26.2704 47.1107C25.3346 47.1111 24.3988 47.114 23.463 47.1181C22.6585 47.1215 21.854 47.123 21.0495 47.1231C20.5695 47.1231 20.0895 47.124 19.6095 47.1268C19.1577 47.1293 18.706 47.1295 18.2542 47.128C18.0889 47.1278 17.9237 47.1285 17.7584 47.13C16.6494 47.1399 15.7869 47.0465 14.9548 46.2418C14.5396 45.7211 14.3686 45.1152 14.1759 44.4863C14.1346 44.3564 14.0931 44.2266 14.0515 44.0968C13.9429 43.7563 13.8367 43.4151 13.7313 43.0737C13.6501 42.8115 13.5678 42.5498 13.4854 42.288C13.2333 41.4866 12.9861 40.6837 12.7394 39.8806C12.5307 39.2018 12.3211 38.5233 12.1114 37.8449C12.0875 37.7675 12.0636 37.6902 12.039 37.6106C11.6617 36.3896 11.2796 35.1701 10.8945 33.9516C10.8689 33.8705 10.8433 33.7894 10.8169 33.7058C10.5679 32.9179 10.3186 32.13 10.0685 31.3425C9.97628 31.0521 9.88435 30.7615 9.79247 30.471C9.75028 30.3378 9.70797 30.2047 9.66552 30.0715C8.86751 27.5688 8.34589 25.2897 9.49604 22.7802C10.8969 20.112 13.5696 19.0943 16.2952 18.2352C17.4905 17.87 17.4905 17.87 17.9651 17.87C17.8039 17.4832 17.6428 17.0965 17.4768 16.6981C17.0141 16.7542 16.5931 16.8455 16.1508 16.9914C16.0302 17.0312 15.9097 17.0709 15.7855 17.1119C15.6575 17.1549 15.5295 17.1981 15.4016 17.2413C15.3366 17.2631 15.2715 17.285 15.2045 17.3075C13.7084 17.8115 12.2297 18.315 10.9338 19.2371C10.5753 19.4761 10.2761 19.5128 9.85958 19.4325C9.60934 19.231 9.60934 19.231 9.46896 18.9442C9.44284 18.5916 9.47759 18.3785 9.69364 18.0924C10.3138 17.4887 11.1329 17.1503 11.9104 16.7957C11.9792 16.7639 12.0481 16.732 12.119 16.6992C13.1317 16.2355 14.1714 15.8672 15.2307 15.5262C15.3514 15.4873 15.4721 15.4484 15.5964 15.4084C16.4611 15.1356 16.4611 15.1356 16.7932 15.1356C16.7696 15.0831 16.746 15.0307 16.7217 14.9766C16.4738 14.4255 16.2268 13.8741 15.9802 13.3224C15.8883 13.1172 15.7963 12.912 15.704 12.707C15.5706 12.4105 15.438 12.1137 15.3054 11.8168C15.2647 11.7267 15.224 11.6366 15.1821 11.5438C14.3484 9.66853 13.966 7.61347 14.6077 5.60761C15.0668 4.46457 15.7186 3.50036 16.4622 2.52496C16.5983 2.34199 16.7279 2.15586 16.8561 1.96725C17.7945 0.588663 18.7727 -0.0649065 20.478 -0.05168ZM18.6486 2.1473C18.3664 2.49526 18.1165 2.86155 17.8674 3.23373C17.7688 3.37761 17.7688 3.37761 17.6683 3.52441C16.3072 5.52003 16.3072 5.52003 15.8776 7.84799C15.874 7.92667 15.8703 8.00534 15.8666 8.08641C15.8463 9.53812 16.6458 10.9364 17.2387 12.2242C17.3964 12.5691 17.5536 12.9143 17.7106 13.2595C17.7493 13.3445 17.788 13.4295 17.8279 13.517C18.065 14.0399 18.2945 14.5653 18.5155 15.0951C18.542 15.1585 18.5685 15.2218 18.5959 15.2871C18.7167 15.5764 18.836 15.8662 18.9533 16.157C19.3491 17.1172 19.3491 17.1172 20.1166 17.7786C20.5136 17.9037 20.8814 17.898 21.2953 17.8968C21.4283 17.8975 21.4283 17.8975 21.5639 17.8983C21.8565 17.8997 22.149 17.8996 22.4416 17.8993C22.6453 17.8997 22.849 17.9001 23.0527 17.9006C23.4795 17.9013 23.9063 17.9013 24.3331 17.9008C24.8796 17.9002 25.4261 17.9019 25.9727 17.9041C26.3933 17.9056 26.814 17.9057 27.2346 17.9054C27.4361 17.9054 27.6376 17.9059 27.8391 17.9069C28.121 17.9081 28.4028 17.9075 28.6847 17.9063C28.7677 17.9071 28.8506 17.9078 28.9361 17.9086C29.4209 17.9043 29.7517 17.8444 30.1721 17.577C30.5661 17.1733 30.794 16.7632 31.0163 16.2491C31.0642 16.1414 31.0642 16.1414 31.1131 16.0316C31.2175 15.7964 31.3204 15.5607 31.4233 15.3248C31.4959 15.1598 31.5686 14.9948 31.6414 14.8298C31.7924 14.4868 31.9428 14.1435 32.0927 13.8C32.2788 13.3743 32.4673 12.9498 32.6567 12.5256C32.8003 12.2036 32.9428 11.881 33.0849 11.5584C33.1522 11.4062 33.2198 11.2543 33.2879 11.1026C34.1442 9.19006 34.4017 7.61053 33.6953 5.60227C33.3229 4.77567 32.7155 4.05358 32.1779 3.32938C32.0477 3.15141 31.9219 2.97172 31.7987 2.78893C31.3795 2.17515 30.9739 1.67064 30.219 1.50851C29.7869 1.45155 29.3639 1.4493 28.9285 1.44952C28.8345 1.44919 28.7404 1.44887 28.6434 1.44853C28.3333 1.4476 28.0232 1.44741 27.7131 1.44731C27.4969 1.44699 27.2807 1.44666 27.0644 1.44632C26.6114 1.44574 26.1585 1.44555 25.7055 1.44561C25.126 1.44562 24.5466 1.44429 23.9671 1.44261C23.5206 1.44152 23.0741 1.44132 22.6275 1.44138C22.4139 1.44126 22.2003 1.44083 21.9867 1.44007C21.6876 1.43911 21.3885 1.4394 21.0893 1.43999C20.958 1.43916 20.958 1.43916 20.8239 1.43832C20.0051 1.44239 19.2602 1.5502 18.6486 2.1473ZM35.4455 5.85824C35.4605 5.96911 35.4755 6.07997 35.491 6.1942C35.6767 7.57591 35.6275 8.77792 35.3479 10.1551C35.7893 10.1599 36.2308 10.1635 36.6723 10.1658C36.8225 10.1668 36.9728 10.1682 37.123 10.1699C37.3387 10.1722 37.5544 10.1733 37.7702 10.1742C37.8712 10.1757 37.8712 10.1757 37.9743 10.1772C38.1406 10.1773 38.3069 10.167 38.4729 10.1551C38.7327 9.89528 38.6925 9.70055 38.6953 9.34712C38.6949 9.26329 38.6945 9.17947 38.6941 9.0931C38.6943 9.00714 38.6945 8.92118 38.6947 8.83261C38.6948 8.65069 38.6945 8.46878 38.6936 8.28687C38.6926 8.0078 38.6936 7.7288 38.6949 7.44973C38.6948 7.27324 38.6945 7.09675 38.6941 6.92025C38.6945 6.83643 38.6949 6.75261 38.6953 6.66624C38.7126 6.21544 38.7126 6.21544 38.4729 5.85824C38.1596 5.83098 38.1596 5.83098 37.7916 5.83917C37.7246 5.83944 37.6577 5.83972 37.5888 5.84C37.3748 5.8411 37.1609 5.84355 36.947 5.84603C36.802 5.84701 36.6571 5.8479 36.5121 5.8487C36.1566 5.85086 35.801 5.85423 35.4455 5.85824ZM18.2092 19.3409C18.1283 19.3626 18.0473 19.3844 17.9639 19.4068C14.0821 20.4419 14.0821 20.4419 11.1963 23.0457C11.1063 23.2072 11.0187 23.3699 10.9338 23.534C10.8957 23.6075 10.8575 23.6811 10.8182 23.7568C10.2739 24.8892 10.2027 26.0836 10.5186 27.2929C10.5361 27.361 10.5536 27.4292 10.5716 27.4994C10.7502 28.1866 10.9556 28.865 11.1676 29.5426C11.2091 29.6763 11.2506 29.81 11.2921 29.9438C11.4033 30.3023 11.5151 30.6608 11.627 31.0191C11.7213 31.3214 11.8152 31.6238 11.9092 31.9261C12.7012 34.4739 13.5018 37.019 14.306 39.563C14.3738 39.7775 14.4416 39.992 14.5094 40.2065C14.5959 40.4802 14.6825 40.7539 14.7692 41.0276C14.97 41.6619 15.1673 42.297 15.3574 42.9346C15.3925 43.0515 15.4275 43.1683 15.4637 43.2888C15.5283 43.5052 15.5922 43.7218 15.655 43.9388C15.8758 44.6778 15.8758 44.6777 16.3049 45.3114C16.782 45.5546 17.1315 45.641 17.6741 45.6415C17.7396 45.642 17.8051 45.6425 17.8726 45.6429C18.0902 45.6441 18.3078 45.6432 18.5254 45.6423C18.6822 45.6426 18.839 45.6432 18.9958 45.6438C19.4203 45.6451 19.8448 45.6446 20.2693 45.6437C20.7142 45.643 21.1591 45.6436 21.604 45.6441C22.3511 45.6446 23.0981 45.6439 23.8451 45.6425C24.708 45.6409 25.5709 45.6415 26.4337 45.6431C27.1755 45.6444 27.9172 45.6446 28.6589 45.6438C29.1015 45.6434 29.5441 45.6433 29.9867 45.6443C30.4029 45.6451 30.819 45.6445 31.2352 45.6428C31.3877 45.6424 31.5401 45.6426 31.6926 45.6432C31.9013 45.644 32.1098 45.643 32.3185 45.6415C32.4351 45.6414 32.5517 45.6413 32.6718 45.6412C33.1658 45.5864 33.5516 45.4464 33.9114 45.0895C34.0996 44.7891 34.2037 44.5133 34.3081 44.1745C34.328 44.1106 34.348 44.0467 34.3687 43.9809C34.435 43.7679 34.4999 43.5545 34.5647 43.3411C34.6121 43.1879 34.6597 43.0347 34.7073 42.8816C34.8095 42.5523 34.911 42.2228 35.0119 41.8931C35.172 41.3704 35.3335 40.8482 35.4952 40.326C35.6641 39.7807 35.8328 39.2354 36.001 38.6899C36.3987 37.3999 36.7998 36.111 37.2033 34.8229C37.2448 34.6904 37.2448 34.6904 37.2871 34.5553C37.4238 34.1189 37.5605 33.6826 37.6972 33.2462C38.515 30.644 38.515 30.644 39.3171 28.0369C39.34 27.9622 39.3629 27.8874 39.3865 27.8104C39.8202 26.3666 39.7342 24.9146 39.0466 23.5584C37.5568 20.9835 34.5145 20.1694 31.82 19.408C31.7166 19.3776 31.6132 19.3471 31.5066 19.3158C30.9494 19.1658 30.5538 19.1167 29.9982 19.278C29.6055 19.3809 29.2028 19.3807 28.7988 19.3958C28.6431 19.4023 28.4874 19.4089 28.3317 19.4154C28.2551 19.4187 28.1786 19.4219 28.0997 19.4252C28.0423 19.4276 27.985 19.43 27.926 19.4325C27.9042 19.9345 27.8883 20.4363 27.8777 20.9387C27.8733 21.1093 27.8673 21.2799 27.8597 21.4504C27.7794 22.4259 27.7794 22.4259 28.1129 23.3012C28.336 23.4727 28.557 23.5978 28.8049 23.7293C29.8084 24.6559 30.3389 25.9896 30.3951 27.3402C30.4099 27.936 30.4082 28.5319 30.4063 29.1279C30.4065 29.3489 30.4068 29.57 30.4072 29.791C30.4076 30.2526 30.407 30.7142 30.4056 31.1759C30.4039 31.7649 30.4049 32.3539 30.4066 32.943C30.4077 33.3989 30.4074 33.8548 30.4066 34.3108C30.4064 34.5279 30.4066 34.745 30.4073 34.962C30.4123 36.9866 30.2061 38.6559 28.7072 40.1646C27.548 41.2554 26.1152 41.5548 24.5786 41.5299C23.1913 41.4735 22.032 40.843 21.0309 39.9098C20.006 38.7594 19.6113 37.3739 19.6095 35.8619C19.6087 35.7203 19.6087 35.7203 19.608 35.5759C19.6066 35.2645 19.6059 34.9531 19.6054 34.6417C19.6048 34.4242 19.6042 34.2067 19.6037 33.9892C19.6027 33.5333 19.6021 33.0773 19.6017 32.6214C19.6012 32.0396 19.5989 31.4577 19.5961 30.8759C19.5943 30.4265 19.5938 29.9771 19.5936 29.5277C19.5933 29.3133 19.5925 29.099 19.5912 28.8846C19.5803 26.9205 19.7747 25.2438 21.1694 23.7259C21.383 23.534 21.383 23.534 21.5511 23.4379C21.9217 23.2228 21.9217 23.2228 22.1269 22.8626C22.1457 22.6413 22.1436 22.4295 22.1334 22.2077C22.1324 22.1281 22.1314 22.0486 22.1304 21.9667C22.1266 21.7138 22.1181 21.4614 22.1093 21.2086C22.1059 21.0367 22.1028 20.8649 22.1 20.693C22.0925 20.2727 22.0807 19.8526 22.0666 19.4325C22.0085 19.4301 21.9504 19.4277 21.8905 19.4252C21.7303 19.4185 21.5701 19.4119 21.4099 19.4052C21.2422 19.3983 21.0746 19.3919 20.9069 19.3858C20.4178 19.3627 19.9988 19.2814 19.5276 19.1395C19.0704 19.0913 18.6473 19.2225 18.2092 19.3409ZM23.6291 19.4325C23.6225 20.8068 23.6171 22.1812 23.6139 23.5556C23.6124 24.1938 23.6103 24.832 23.607 25.4702C23.6038 26.0863 23.6021 26.7024 23.6013 27.3185C23.6008 27.5534 23.5997 27.7882 23.5981 28.0231C23.596 28.3524 23.5957 28.6818 23.5959 29.0112C23.5948 29.1079 23.5937 29.2046 23.5927 29.3043C23.5957 29.9829 23.6667 30.5653 24.1296 31.0963C24.5134 31.3048 24.8537 31.3658 25.2893 31.3465C25.7524 31.1892 25.9939 30.9682 26.2658 30.5653C26.3589 30.2862 26.3756 30.1149 26.3752 29.8256C26.3754 29.7339 26.3755 29.6423 26.3756 29.5479C26.3753 29.4476 26.3749 29.3473 26.3746 29.244C26.3746 29.1382 26.3746 29.0324 26.3746 28.9235C26.3746 28.5731 26.3738 28.2228 26.373 27.8725C26.3728 27.6299 26.3727 27.3873 26.3726 27.1446C26.3723 26.5709 26.3715 25.9971 26.3705 25.4233C26.3693 24.706 26.3688 23.9887 26.3683 23.2714C26.3672 21.9917 26.3655 20.7121 26.3635 19.4325C25.4611 19.4325 24.5588 19.4325 23.6291 19.4325ZM27.926 25.0965C27.9256 25.1614 27.9253 25.2263 27.9249 25.2932C27.9208 25.9729 27.914 26.6526 27.9057 27.3323C27.903 27.5855 27.9009 27.8386 27.8995 28.0918C27.8974 28.4572 27.8929 28.8224 27.8878 29.1878C27.8877 29.2997 27.8876 29.4117 27.8875 29.527C27.8706 30.4679 27.692 31.3747 27.025 32.0789C26.35 32.6499 25.649 32.8492 24.7773 32.8388C24.0365 32.7633 23.3557 32.4766 22.8479 31.9325C22.2113 31.0203 22.1356 30.0864 22.1238 28.9993C22.1219 28.89 22.1201 28.7807 22.1181 28.6681C22.1123 28.3219 22.1078 27.9757 22.1032 27.6295C22.0995 27.3935 22.0957 27.1576 22.0918 26.9217C22.0825 26.3458 22.0741 25.77 22.0666 25.1942C21.7426 25.5084 21.5157 25.7448 21.3586 26.1707C21.3125 26.2916 21.3125 26.2916 21.2655 26.4149C21.0901 26.9651 21.0745 27.4794 21.0728 28.0522C21.0721 28.1426 21.0715 28.233 21.0708 28.3262C21.0689 28.6249 21.0678 28.9237 21.0668 29.2225C21.0664 29.325 21.066 29.4275 21.0656 29.533C21.0635 30.0759 21.0621 30.6187 21.0612 31.1616C21.0601 31.7196 21.0568 32.2777 21.0529 32.8358C21.0503 33.2671 21.0495 33.6984 21.0492 34.1297C21.0487 34.3353 21.0476 34.5408 21.0458 34.7464C21.0325 36.3385 21.1059 37.7253 22.2402 38.9568C23.1161 39.7915 24.1349 40.0769 25.3148 40.0646C26.4557 39.9812 27.2953 39.4569 28.0542 38.628C28.7285 37.7931 28.932 36.9001 28.9309 35.8493C28.9316 35.7547 28.9322 35.6601 28.9329 35.5627C28.9348 35.2514 28.9351 34.94 28.9354 34.6287C28.936 34.4111 28.9366 34.1935 28.9373 33.9759C28.9385 33.5202 28.9389 33.0644 28.9387 32.6087C28.9387 32.0267 28.9414 31.4448 28.9448 30.8628C28.9469 30.4134 28.9473 29.964 28.9472 29.5146C28.9474 29.3002 28.9483 29.0858 28.9498 28.8713C28.9589 27.4605 28.921 26.2607 28.0236 25.0965C27.9914 25.0965 27.9592 25.0965 27.926 25.0965Z" fill="black"/>
<path d="M8.29893 20.4128C8.57969 20.6203 8.57969 20.6203 8.78721 20.901C8.84794 21.401 8.70778 21.699 8.46983 22.134C7.17885 24.5914 7.41418 26.9987 8.20721 29.5615C8.30649 29.8791 8.40646 30.1966 8.50645 30.5141C8.57859 30.7451 8.65066 30.9761 8.72267 31.2072C8.88233 31.719 9.04246 32.2306 9.20296 32.7421C9.49468 33.6719 9.78507 34.6021 10.0754 35.5323C10.3925 36.548 10.7097 37.5636 11.0277 38.579C11.4734 40.0019 11.9187 41.425 12.3551 42.8508C12.4185 43.0574 12.4819 43.2639 12.5454 43.4705C12.656 43.8308 12.7656 44.1915 12.8745 44.5524C13.2816 45.9935 13.2816 45.9935 14.1583 47.1706C14.1583 47.235 14.1583 47.2995 14.1583 47.3659C14.2131 47.3921 14.2678 47.4183 14.3242 47.4452C14.5649 47.5694 14.7898 47.7099 15.0189 47.8542C16.112 48.5119 17.2956 48.4548 18.5306 48.4543C18.6866 48.4546 18.8426 48.4549 18.9986 48.4553C19.4207 48.4561 19.8429 48.4564 20.265 48.4564C20.5292 48.4565 20.7934 48.4567 21.0577 48.457C21.981 48.4579 22.9042 48.4583 23.8275 48.4582C24.6858 48.4581 25.544 48.4592 26.4023 48.4607C27.1411 48.462 27.8799 48.4625 28.6187 48.4625C29.0591 48.4624 29.4995 48.4627 29.9399 48.4637C30.3545 48.4647 30.769 48.4647 31.1836 48.464C31.3349 48.4639 31.4863 48.4641 31.6376 48.4647C33.168 48.4703 34.7078 48.3737 35.8736 47.2501C36.4976 46.5578 36.7696 45.7181 37.0221 44.839C37.0843 44.6233 37.1475 44.4079 37.212 44.1928C37.239 44.0988 37.266 44.0048 37.2937 43.9079C37.4156 43.6193 37.5531 43.4656 37.7911 43.2643C38.1319 43.1298 38.2525 43.1558 38.5968 43.2948C38.8653 43.4596 38.8653 43.4596 38.963 43.655C39.0288 44.3133 38.8203 44.8681 38.609 45.486C38.5766 45.5857 38.5443 45.6854 38.511 45.7881C37.9974 47.3152 37.1788 48.616 35.7403 49.4167C34.9361 49.7742 34.2355 50.0172 33.3559 50.017C33.2827 50.0173 33.2095 50.0177 33.134 50.0181C32.8885 50.0191 32.643 50.0195 32.3975 50.0199C32.2216 50.0205 32.0456 50.0212 31.8696 50.0218C31.2913 50.0239 30.713 50.0249 30.1346 50.0259C29.9353 50.0263 29.7359 50.0267 29.5365 50.0271C28.5994 50.0289 27.6622 50.0303 26.7251 50.0311C25.6451 50.0321 24.5651 50.0347 23.4851 50.0386C22.6493 50.0416 21.8136 50.043 20.9778 50.0433C20.4791 50.0436 19.9805 50.0444 19.4819 50.0469C19.0121 50.0492 18.5423 50.0496 18.0725 50.0486C17.9009 50.0485 17.7293 50.0491 17.5577 50.0505C15.8965 50.0628 14.3362 49.7302 13.081 48.5523C11.589 46.9241 11.1524 44.6733 10.5221 42.6152C10.3331 41.9989 10.1429 41.383 9.95285 40.7671C9.90343 40.6069 9.85404 40.4468 9.80465 40.2866C9.42919 39.0692 9.04936 37.8532 8.6659 36.6382C8.64093 36.5591 8.61596 36.4799 8.59024 36.3984C8.37154 35.7055 8.15256 35.0128 7.93305 34.3202C7.47988 32.8902 7.02841 31.4598 6.59495 30.0238C6.53932 29.8395 6.48343 29.6553 6.42754 29.4711C5.59798 26.7035 5.65138 24.0338 6.93784 21.4076C6.98592 21.3086 6.98592 21.3086 7.03498 21.2076C7.33501 20.6221 7.6119 20.3006 8.29893 20.4128Z" fill="black"/>
<path d="M33.5477 36.1827C33.6736 36.1817 33.7995 36.1807 33.9292 36.1797C34.3276 36.2386 34.4882 36.3388 34.7684 36.6222C34.9113 36.9615 34.8771 37.0832 34.7379 37.4279C34.5731 37.6964 34.5731 37.6964 34.3778 37.7941C34.1037 37.8114 33.8342 37.8212 33.56 37.8246C33.4849 37.8274 33.4099 37.8302 33.3326 37.8332C32.9675 37.8373 32.7778 37.8366 32.4731 37.6213C32.3208 37.3942 32.2716 37.2831 32.2721 37.0128C32.27 36.9484 32.2678 36.8839 32.2656 36.8175C32.4545 36.217 33.0005 36.1784 33.5477 36.1827Z" fill="black"/>
<path d="M33.5441 29.9343C33.6553 29.932 33.6553 29.932 33.7687 29.9297C34.1355 29.9323 34.3171 29.9398 34.616 30.1666C34.7917 30.4112 34.8477 30.561 34.8624 30.862C34.7922 31.1365 34.7452 31.2961 34.5092 31.4598C34.1849 31.5794 33.895 31.5788 33.5502 31.5822C33.4234 31.585 33.2966 31.5878 33.166 31.5906C32.7597 31.539 32.5998 31.4534 32.3233 31.155C32.2619 30.9597 32.2619 30.9597 32.2684 30.7643C32.2683 30.6999 32.2682 30.6354 32.268 30.569C32.4542 29.9117 32.9663 29.9225 33.5441 29.9343Z" fill="black"/>
<path d="M33.5425 23.6849C33.6166 23.6842 33.6907 23.6836 33.7671 23.6828C34.0903 23.6865 34.3295 23.7037 34.6144 23.8623C34.8158 24.0767 34.8469 24.2163 34.8608 24.5089C34.785 24.8272 34.7162 24.9594 34.4526 25.1559C34.1274 25.3145 33.9029 25.3293 33.5425 25.3268C33.4347 25.3275 33.3269 25.3283 33.2159 25.3291C32.8492 25.2828 32.5852 25.163 32.3218 24.8995C32.2647 24.2039 32.2647 24.2039 32.4671 23.9001C32.8137 23.6565 33.1347 23.6742 33.5425 23.6849Z" fill="black"/>
</g>
<defs>
<clipPath id="clip0_147_2094">
<rect width="50" height="50" fill="white"/>
</clipPath>
</defs>
</svg>
