<svg width="35" height="35" viewBox="0 0 35 35" fill="none" xmlns="http://www.w3.org/2000/svg">
<path d="M11.3497 2.18696C11.7224 2.36 11.7924 2.50921 12.0333 2.87055C12.0333 3.36684 12.0333 3.86313 12.0333 4.37446C15.6427 4.37446 19.2521 4.37446 22.9708 4.37446C22.9708 3.87817 22.9708 3.38188 22.9708 2.87055C23.3244 2.34018 23.3244 2.34018 23.6544 2.18696C24.0372 2.13543 24.3609 2.13412 24.714 2.29804C24.9577 2.52957 25.1376 2.70544 25.1802 3.04476C25.1852 3.24655 25.1822 3.44641 25.1754 3.64814C25.1742 3.71802 25.1729 3.7879 25.1717 3.8599C25.1685 4.03148 25.164 4.20294 25.1583 4.37446C25.2199 4.37385 25.2814 4.37325 25.3448 4.37262C25.9281 4.36712 26.5113 4.36297 27.0945 4.36029C27.3943 4.35887 27.694 4.35695 27.9938 4.35383C28.2836 4.35084 28.5735 4.34922 28.8634 4.34852C28.9734 4.34802 29.0834 4.34704 29.1933 4.34555C30.3166 4.33097 31.1405 4.57661 31.9772 5.35285C32.6869 6.10278 32.8457 6.92982 32.8411 7.93117C32.8414 8.02704 32.8417 8.12292 32.8422 8.21879C32.8432 8.48066 32.8429 8.74252 32.8424 9.0044C32.8421 9.28744 32.8429 9.57048 32.8436 9.85353C32.8448 10.4074 32.8448 10.9613 32.8445 11.5152C32.8442 11.9656 32.8443 12.4159 32.8447 12.8663C32.8447 12.9305 32.8448 12.9946 32.8448 13.0608C32.8449 13.1912 32.845 13.3215 32.8451 13.4519C32.8461 14.6738 32.8457 15.8957 32.8449 17.1176C32.8442 18.2345 32.8451 19.3514 32.8468 20.4683C32.8484 21.6162 32.8491 22.7641 32.8486 23.912C32.8484 24.556 32.8485 25.2001 32.8497 25.8441C32.8508 26.3924 32.8508 26.9406 32.8496 27.4889C32.849 27.7684 32.8489 28.0479 32.8499 28.3273C32.8509 28.5837 32.8505 28.8399 32.8492 29.0962C32.8488 29.2319 32.8498 29.3676 32.8508 29.5033C32.8426 30.5035 32.5125 31.2456 31.8362 31.9746C31.0592 32.7099 30.2085 32.8431 29.1748 32.8385C29.0699 32.8387 28.965 32.8391 28.8601 32.8396C28.5733 32.8406 28.2865 32.8403 27.9997 32.8398C27.6898 32.8394 27.3799 32.8403 27.07 32.841C26.4635 32.8422 25.857 32.8422 25.2504 32.8419C24.7573 32.8416 24.2642 32.8417 23.7711 32.8421C23.6657 32.8421 23.6657 32.8421 23.5582 32.8422C23.4155 32.8423 23.2728 32.8424 23.1301 32.8425C21.7924 32.8435 20.4547 32.8431 19.117 32.8423C17.894 32.8416 16.6711 32.8425 15.4481 32.8442C14.1914 32.8458 12.9347 32.8465 11.678 32.846C10.9729 32.8458 10.2677 32.8459 9.56254 32.8471C8.96224 32.8481 8.36196 32.8482 7.76166 32.847C7.45558 32.8464 7.14952 32.8463 6.84345 32.8473C6.56286 32.8483 6.2823 32.8479 6.00171 32.8466C5.9006 32.8464 5.79949 32.8466 5.69839 32.8473C4.61144 32.8544 3.82543 32.5744 3.02697 31.8336C2.31722 31.0836 2.15839 30.2566 2.16307 29.2553C2.16278 29.1594 2.16241 29.0635 2.16195 28.9676C2.16097 28.7058 2.16126 28.4439 2.16176 28.182C2.16209 27.899 2.16123 27.6159 2.16053 27.3329C2.15936 26.779 2.1593 26.2251 2.15965 25.6712C2.15993 25.2208 2.15983 24.7705 2.15947 24.3201C2.15942 24.256 2.15936 24.1918 2.15931 24.1257C2.15921 23.9953 2.1591 23.8649 2.159 23.7345C2.15806 22.5126 2.15843 21.2907 2.15921 20.0689C2.15989 18.952 2.15901 17.8351 2.15737 16.7182C2.1557 15.5702 2.15505 14.4223 2.1555 13.2744C2.15574 12.6304 2.15559 11.9863 2.15439 11.3423C2.15339 10.7941 2.15334 10.2458 2.15453 9.69755C2.15512 9.41805 2.15526 9.13857 2.15422 8.85908C2.15327 8.60277 2.1536 8.3465 2.15492 8.0902C2.15529 7.95451 2.15434 7.81882 2.15332 7.68314C2.16149 6.68294 2.49161 5.94086 3.16796 5.21186C3.98581 4.43783 4.88704 4.34361 5.96055 4.35443C6.07299 4.35482 6.18543 4.35511 6.29787 4.35531C6.59163 4.35609 6.88538 4.3581 7.17914 4.36038C7.47976 4.36249 7.78039 4.36342 8.08103 4.36445C8.6693 4.36664 9.25756 4.37013 9.84582 4.37446C9.84367 4.30935 9.84367 4.30935 9.84148 4.24292C9.83577 4.04467 9.83223 3.84644 9.82873 3.64814C9.82644 3.57985 9.82415 3.51156 9.82179 3.44119C9.81621 3.0201 9.83808 2.78057 10.1193 2.4604C10.4796 2.11807 10.8786 2.12354 11.3497 2.18696ZM4.65478 6.95503C3.95849 8.05222 4.37707 10.0321 4.37707 10.937C13.0396 10.937 21.7021 10.937 30.6271 10.937C30.8744 9.0476 30.8744 9.04761 30.234 6.83967C29.707 6.50524 29.1727 6.54235 28.5664 6.54414C28.4672 6.54393 28.368 6.54367 28.2687 6.54335C27.9966 6.54264 27.7246 6.54279 27.4525 6.54309C27.1588 6.54325 26.8651 6.54264 26.5715 6.54213C25.9964 6.54125 25.4213 6.54113 24.8462 6.54129C24.3787 6.54141 23.9112 6.54129 23.4437 6.541C23.3772 6.54096 23.3107 6.54092 23.2421 6.54088C23.1069 6.5408 22.9718 6.54071 22.8366 6.54063C21.5689 6.53989 20.3013 6.54004 19.0336 6.54045C17.8742 6.54081 16.7147 6.54004 15.5552 6.53874C14.3644 6.53741 13.1736 6.53685 11.9829 6.5371C11.3144 6.53724 10.646 6.53707 9.97752 6.5361C9.40846 6.53528 8.83941 6.53519 8.27035 6.53602C7.98009 6.53642 7.68983 6.53649 7.39957 6.53567C7.13366 6.53493 6.86777 6.53514 6.60186 6.5361C6.50585 6.53628 6.40985 6.53612 6.31385 6.53557C5.40753 6.51525 5.40753 6.51525 4.65478 6.95503ZM4.37707 13.1245C4.37284 15.8188 4.36861 18.5131 4.36425 21.2891C4.36239 22.1401 4.36052 22.991 4.3586 23.8677C4.35791 24.6301 4.35791 24.6301 4.3575 25.3925C4.35731 25.7322 4.35654 26.0719 4.35542 26.4116C4.35401 26.845 4.35359 27.2785 4.35388 27.7119C4.35382 27.8709 4.35342 28.0299 4.35262 28.1889C4.3516 28.4039 4.35185 28.6189 4.35241 28.8339C4.35181 28.8959 4.35121 28.9579 4.3506 29.0218C4.35358 29.4477 4.39342 29.9102 4.6693 30.2548C5.16905 30.7104 5.8068 30.6441 6.43773 30.6423C6.53696 30.6425 6.63618 30.6428 6.73541 30.6431C7.0075 30.6438 7.27957 30.6436 7.55166 30.6433C7.84532 30.6432 8.13899 30.6438 8.43266 30.6443C9.00776 30.6452 9.58286 30.6453 10.158 30.6451C10.6254 30.645 11.0929 30.6451 11.5604 30.6454C11.6269 30.6455 11.6935 30.6455 11.762 30.6455C11.8972 30.6456 12.0324 30.6457 12.1676 30.6458C13.4352 30.6465 14.7028 30.6464 15.9705 30.646C17.13 30.6456 18.2895 30.6464 19.4489 30.6477C20.6397 30.649 21.8305 30.6496 23.0213 30.6493C23.6897 30.6492 24.3582 30.6494 25.0266 30.6503C25.5957 30.6511 26.1647 30.6512 26.7338 30.6504C27.024 30.65 27.3143 30.6499 27.6046 30.6507C27.8705 30.6515 28.1364 30.6513 28.4023 30.6503C28.4983 30.6501 28.5943 30.6503 28.6903 30.6509C29.5202 30.6692 29.5202 30.6692 30.2563 30.3322C30.6492 29.9065 30.647 29.3943 30.6435 28.8503C30.6436 28.7831 30.6437 28.7158 30.6439 28.6466C30.6441 28.4212 30.6433 28.1958 30.6426 27.9703C30.6425 27.806 30.6426 27.6417 30.6426 27.4774C30.6427 27.0375 30.6419 26.5976 30.6409 26.1577C30.6401 25.7449 30.6401 25.3321 30.64 24.9193C30.6393 23.7121 30.6374 22.5049 30.6356 21.2977C30.6328 18.6005 30.63 15.9034 30.6271 13.1245C21.9646 13.1245 13.3021 13.1245 4.37707 13.1245Z" fill="white"/>
<path d="M23.5287 16.4486C23.8572 16.6275 24.0138 16.8743 24.1311 17.2262C24.1666 17.6512 24.107 17.8963 23.8577 18.2516C23.678 18.4412 23.678 18.4412 23.4775 18.619C23.4416 18.651 23.4058 18.683 23.3688 18.716C23.0753 18.9761 22.7719 19.2238 22.4665 19.4698C22.2873 19.6172 22.1151 19.77 21.9436 19.9264C21.6497 20.1943 21.3449 20.4453 21.0357 20.6954C20.8553 20.8448 20.6812 20.9991 20.5081 21.1568C20.2142 21.4247 19.9093 21.6758 19.6002 21.9259C19.4197 22.0753 19.2457 22.2295 19.0725 22.3873C18.7786 22.6552 18.4738 22.9063 18.1647 23.1564C17.9842 23.3057 17.8101 23.46 17.637 23.6178C17.2834 23.9395 16.9157 24.2411 16.5433 24.5406C16.479 24.5927 16.4148 24.6448 16.3486 24.6985C15.7683 25.1669 15.7683 25.1669 15.3299 25.1772C15.2597 25.1798 15.1896 25.1823 15.1173 25.185C14.7025 25.1287 14.4212 24.8284 14.1343 24.542C14.0846 24.4926 14.0846 24.4926 14.0338 24.4422C13.9254 24.3343 13.8174 24.226 13.7095 24.1177C13.6338 24.0421 13.5581 23.9665 13.4824 23.8909C13.3243 23.733 13.1664 23.5748 13.0087 23.4165C12.8068 23.2138 12.6042 23.0116 12.4014 22.8097C12.2452 22.654 12.0893 22.4979 11.9335 22.3417C11.8589 22.267 11.7842 22.1925 11.7094 22.118C11.605 22.014 11.5011 21.9095 11.3973 21.8049C11.3085 21.716 11.3085 21.716 11.2179 21.6253C10.9307 21.3033 10.9071 21.0494 10.9167 20.6276C10.9497 20.3323 11.0249 20.1947 11.2112 19.9606C11.5408 19.7035 11.7871 19.6568 12.2006 19.6575C12.7164 19.746 13.0266 20.1084 13.3768 20.4655C13.4324 20.5214 13.4879 20.5772 13.5452 20.6348C13.7219 20.8126 13.8978 20.9911 14.0738 21.1697C14.1937 21.2906 14.3137 21.4116 14.4337 21.5324C14.7273 21.8282 15.0203 22.1246 15.3128 22.4215C15.5861 22.2935 15.7966 22.1152 16.022 21.9173C16.108 21.8427 16.194 21.7682 16.28 21.6936C16.3237 21.6554 16.3675 21.6173 16.4126 21.578C16.6147 21.4023 16.8183 21.2284 17.0218 21.0543C17.1015 20.986 17.1813 20.9176 17.261 20.8492C18.3776 19.8922 19.4941 18.9352 20.6106 17.9781C20.6502 17.9442 20.6897 17.9104 20.7304 17.8754C20.8097 17.8075 20.889 17.7397 20.9685 17.6719C21.1754 17.4951 21.3809 17.3169 21.5845 17.1362C21.6267 17.0991 21.669 17.0619 21.7125 17.0236C21.7927 16.9531 21.8725 16.8821 21.9518 16.8106C22.4172 16.4033 22.9253 16.1815 23.5287 16.4486Z" fill="white"/>
</svg>
