<svg width="50" height="50" viewBox="0 0 50 50" fill="none" xmlns="http://www.w3.org/2000/svg">
<g clip-path="url(#clip0_147_2100)">
<path d="M24.9691 -0.0308355C25.0637 -0.0306251 25.1583 -0.0304146 25.2557 -0.0301978C26.6539 -0.0252095 28.02 0.0125236 29.3942 0.292651C29.4944 0.312572 29.5946 0.332493 29.6978 0.353018C34.0565 1.23999 38.0653 3.09994 41.4059 6.05437C41.5283 6.16049 41.5283 6.16049 41.6531 6.26876C42.7347 7.22039 43.7449 8.23597 44.6286 9.37468C44.7031 9.46595 44.7776 9.55721 44.8544 9.65125C45.6201 10.6072 46.2518 11.642 46.8747 12.695C46.9317 12.7904 46.9317 12.7904 46.9899 12.8878C49.122 16.4989 50.0464 20.8057 50.0302 24.9631C50.0299 25.1051 50.0299 25.1051 50.0296 25.2501C50.0252 26.6516 49.9759 28.0153 49.7067 29.3942C49.691 29.4818 49.6753 29.5694 49.6591 29.6597C48.6022 35.5005 45.2762 41.1171 40.527 44.7262C40.4742 44.7669 40.4215 44.8076 40.3671 44.8496C39.391 45.5999 38.3696 46.2583 37.3044 46.8747C37.2382 46.9132 37.1721 46.9517 37.1039 46.9914C34.8658 48.2787 32.3682 49.1191 29.8459 49.6396C29.7765 49.654 29.7071 49.6684 29.6355 49.6832C28.108 49.9747 26.581 50.0363 25.0302 50.0302C24.9357 50.03 24.8412 50.0299 24.7439 50.0297C23.3442 50.0252 21.9823 49.9755 20.6051 49.7067C20.5175 49.691 20.4299 49.6753 20.3397 49.6591C14.4988 48.6022 8.88224 45.2762 5.2731 40.527C5.23241 40.4743 5.19172 40.4215 5.14979 40.3671C4.39947 39.3911 3.74103 38.3696 3.12466 37.3044C3.08616 37.2382 3.04765 37.1721 3.00798 37.104C1.72065 34.8658 0.880269 32.3683 0.359772 29.8459C0.345374 29.7765 0.330976 29.7071 0.316141 29.6356C0.0246022 28.108 -0.036938 26.5811 -0.0308531 25.0302C-0.0306751 24.9357 -0.030497 24.8413 -0.0303136 24.7439C-0.0258773 23.3442 0.0238187 21.9823 0.292633 20.6052C0.316213 20.4738 0.316213 20.4738 0.340269 20.3397C1.39716 14.4989 4.72312 8.88225 9.47232 5.27312C9.52508 5.23243 9.57784 5.19174 9.6322 5.14981C10.6083 4.39949 11.6298 3.74105 12.695 3.12468C12.7611 3.08618 12.8273 3.04767 12.8954 3.008C15.1335 1.72067 17.6311 0.880287 20.1535 0.359789C20.2229 0.345391 20.2923 0.330993 20.3638 0.316159C21.8913 0.0246279 23.4183 -0.0370686 24.9691 -0.0308355ZM22.0944 1.87346C21.9988 1.8861 21.9031 1.89875 21.8046 1.91178C21.0927 2.01147 20.3911 2.14408 19.6896 2.30071C19.5967 2.32119 19.5039 2.34167 19.4082 2.36277C19.323 2.3827 19.2379 2.40263 19.1502 2.42316C19.0374 2.44951 19.0374 2.44951 18.9223 2.4764C18.7291 2.52374 18.7291 2.52374 18.652 2.73406C18.7245 2.98694 18.8026 3.2311 18.89 3.47869C18.9138 3.54767 18.9375 3.61666 18.962 3.68773C19.0207 3.85835 19.0804 4.02865 19.1403 4.1989C18.9736 4.24607 18.8067 4.29277 18.6398 4.33928C18.5469 4.36534 18.454 4.3914 18.3583 4.41825C18.0691 4.49111 17.7743 4.5405 17.4801 4.58953C17.319 4.10613 17.1579 3.62273 16.9919 3.12468C15.2858 3.78084 13.6496 4.57778 12.109 5.56609C12.2458 6.00384 12.4899 6.30586 12.7785 6.65328C12.8154 6.71345 12.8523 6.77362 12.8903 6.83562C12.7638 7.21519 12.5884 7.30966 12.2677 7.54363C12.1723 7.61463 12.0769 7.68563 11.9786 7.75878C11.8927 7.80863 11.8069 7.85848 11.7184 7.90984C11.334 7.78169 11.247 7.59771 11.0165 7.26897C10.9466 7.17015 10.8768 7.07133 10.8048 6.96952C10.7518 6.8931 10.6988 6.81669 10.6442 6.73796C9.17912 7.78152 7.81107 9.10017 6.73795 10.5466C7.09936 10.9299 7.47521 11.2249 7.90982 11.5231C7.77805 11.8978 7.60928 12.1727 7.3605 12.4814C7.26798 12.5971 7.26798 12.5971 7.17358 12.7152C7.1265 12.773 7.07942 12.8308 7.03091 12.8903C6.64509 12.7088 6.30838 12.473 5.95898 12.2304C5.77229 12.092 5.77229 12.092 5.56607 12.1091C5.44918 12.2601 5.44918 12.2601 5.33948 12.46C5.29563 12.5357 5.25178 12.6114 5.20661 12.6894C5.1368 12.813 5.1368 12.813 5.06558 12.9391C5.0176 13.0233 4.96961 13.1075 4.92017 13.1942C4.22353 14.4271 3.63295 15.6703 3.12466 16.9919C3.84976 17.2336 3.84976 17.2336 4.58951 17.4802C4.46776 18.0367 4.33719 18.5871 4.19888 19.1403C3.68326 18.9792 3.16763 18.818 2.63638 18.652C2.43469 19.2318 2.26652 19.8028 2.142 20.4037C2.12548 20.4831 2.10895 20.5625 2.09193 20.6442C1.86225 21.7905 1.71973 22.9505 1.75748 24.1208C2.30533 24.1208 2.85318 24.1208 3.41763 24.1208C3.41763 24.7009 3.41763 25.2809 3.41763 25.8786C2.86978 25.8786 2.32193 25.8786 1.75748 25.8786C1.74569 26.5657 1.78255 27.2241 1.87344 27.905C1.88609 28.0006 1.89873 28.0962 1.91176 28.1947C2.01145 28.9066 2.14406 29.6082 2.30069 30.3097C2.32117 30.4026 2.34165 30.4955 2.36275 30.5912C2.38268 30.6763 2.40261 30.7614 2.42314 30.8491C2.44071 30.9243 2.45828 30.9995 2.47638 31.077C2.52372 31.2702 2.52372 31.2702 2.73404 31.3473C2.98692 31.2749 3.23108 31.1968 3.47867 31.1093C3.54765 31.0856 3.61664 31.0618 3.68771 31.0374C3.85833 30.9786 4.02864 30.9189 4.19888 30.8591C4.24605 31.0258 4.29275 31.1926 4.33926 31.3595C4.36532 31.4524 4.39138 31.5454 4.41823 31.6411C4.49109 31.9303 4.54048 32.225 4.58951 32.5192C4.10611 32.6803 3.62271 32.8415 3.12466 33.0075C3.78082 34.7135 4.57776 36.3497 5.56607 37.8903C6.00382 37.7535 6.30584 37.5094 6.65326 37.2208C6.71343 37.1839 6.77361 37.1471 6.8356 37.1091C7.21517 37.2356 7.30965 37.411 7.54361 37.7316C7.61461 37.827 7.68561 37.9225 7.75876 38.0208C7.80861 38.1066 7.85846 38.1925 7.90982 38.2809C7.78167 38.6654 7.5977 38.7523 7.26895 38.9828C7.17013 39.0527 7.07131 39.1226 6.9695 39.1946C6.89309 39.2476 6.81667 39.3005 6.73795 39.3552C7.7815 40.8202 9.10016 42.1883 10.5465 43.2614C10.9299 42.9 11.2248 42.5241 11.5231 42.0895C11.8978 42.2213 12.1727 42.3901 12.4814 42.6388C12.5585 42.7005 12.6357 42.7622 12.7152 42.8258C12.773 42.8728 12.8308 42.9199 12.8903 42.9684C12.7088 43.3543 12.4729 43.691 12.2303 44.0404C12.092 44.2271 12.092 44.2271 12.109 44.4333C12.3179 44.5779 12.5248 44.7083 12.7438 44.8361C12.8099 44.8751 12.8759 44.914 12.944 44.9541C14.2135 45.6929 15.5489 46.2892 16.8942 46.8747C17.094 46.5749 17.1869 46.3189 17.297 45.9775C17.3315 45.8713 17.366 45.7652 17.4016 45.6559C17.4275 45.5747 17.4534 45.4935 17.4801 45.4098C17.6104 45.4382 17.7406 45.4667 17.8708 45.4953C17.9795 45.5191 17.9795 45.5191 18.0905 45.5434C18.4416 45.6241 18.7908 45.7131 19.1403 45.8005C18.9792 46.3161 18.818 46.8317 18.652 47.363C19.2318 47.5647 19.8028 47.7328 20.4037 47.8573C20.4831 47.8739 20.5624 47.8904 20.6442 47.9074C21.7905 48.1371 22.9505 48.2796 24.1208 48.2419C24.1208 47.694 24.1208 47.1462 24.1208 46.5817C24.7008 46.5817 25.2809 46.5817 25.8786 46.5817C25.8786 47.1296 25.8786 47.6774 25.8786 48.2419C26.5657 48.2537 27.2241 48.2168 27.9049 48.1259C28.0484 48.1069 28.0484 48.1069 28.1947 48.0876C28.9066 47.9879 29.6082 47.8553 30.3097 47.6987C30.4026 47.6782 30.4955 47.6577 30.5912 47.6366C30.6763 47.6167 30.7614 47.5967 30.8491 47.5762C30.9243 47.5586 30.9995 47.5411 31.077 47.523C31.2702 47.4756 31.2702 47.4756 31.3473 47.2653C31.2749 47.0124 31.1968 46.7683 31.1093 46.5207C31.0856 46.4517 31.0618 46.3827 31.0374 46.3116C30.9786 46.141 30.9189 45.9707 30.859 45.8005C31.0258 45.7533 31.1926 45.7066 31.3595 45.6601C31.4989 45.621 31.4989 45.621 31.6411 45.5811C31.9302 45.5083 32.225 45.4589 32.5192 45.4098C32.6803 45.8932 32.8415 46.3766 33.0075 46.8747C34.7135 46.2185 36.3497 45.4216 37.8903 44.4333C37.7535 43.9955 37.5094 43.6935 37.2208 43.3461C37.1839 43.2859 37.147 43.2257 37.109 43.1637C37.2356 42.7842 37.4109 42.6897 37.7316 42.4557C37.827 42.3847 37.9224 42.3137 38.0208 42.2406C38.1066 42.1907 38.1925 42.1409 38.2809 42.0895C38.6654 42.2177 38.7523 42.4016 38.9828 42.7304C39.0527 42.8292 39.1226 42.928 39.1945 43.0299C39.2475 43.1063 39.3005 43.1827 39.3551 43.2614C40.8202 42.2178 42.1883 40.8992 43.2614 39.4528C42.9 39.0695 42.5241 38.7745 42.0895 38.4762C42.2213 38.1016 42.39 37.8267 42.6388 37.518C42.7005 37.4408 42.7622 37.3637 42.8257 37.2842C42.8728 37.2264 42.9199 37.1686 42.9684 37.1091C43.3542 37.2905 43.691 37.5264 44.0403 37.769C44.227 37.9073 44.227 37.9073 44.4333 37.8903C44.5779 37.6814 44.7083 37.4746 44.8361 37.2555C44.875 37.1895 44.914 37.1234 44.9541 37.0554C45.6928 35.7859 46.2892 34.4505 46.8747 33.1052C46.5749 32.9053 46.3189 32.8125 45.9774 32.7023C45.8713 32.6678 45.7652 32.6333 45.6559 32.5978C45.5747 32.5719 45.4935 32.5459 45.4098 32.5192C45.4382 32.389 45.4667 32.2588 45.4953 32.1286C45.5191 32.0198 45.5191 32.0198 45.5433 31.9089C45.6241 31.5578 45.7131 31.2086 45.8004 30.8591C46.3161 31.0202 46.8317 31.1813 47.3629 31.3473C47.5646 30.7675 47.7328 30.1965 47.8573 29.5956C47.8821 29.4766 47.8821 29.4766 47.9074 29.3551C48.1371 28.2088 48.2796 27.0488 48.2419 25.8786C47.694 25.8786 47.1461 25.8786 46.5817 25.8786C46.5817 25.2985 46.5817 24.7184 46.5817 24.1208C47.1295 24.1208 47.6774 24.1208 48.2419 24.1208C48.2536 23.4337 48.2168 22.7753 48.1259 22.0944C48.1132 21.9988 48.1006 21.9032 48.0876 21.8046C47.9879 21.0927 47.8553 20.3911 47.6986 19.6896C47.6782 19.5968 47.6577 19.5039 47.6366 19.4082C47.6166 19.3231 47.5967 19.2379 47.5762 19.1502C47.5586 19.075 47.541 18.9998 47.5229 18.9223C47.4756 18.7291 47.4756 18.7291 47.2653 18.652C47.0124 18.7245 46.7682 18.8026 46.5207 18.8901C46.4517 18.9138 46.3827 18.9375 46.3116 18.962C46.141 19.0208 45.9707 19.0805 45.8004 19.1403C45.7533 18.9736 45.7066 18.8067 45.6601 18.6398C45.621 18.5005 45.621 18.5005 45.5811 18.3583C45.5082 18.0691 45.4589 17.7743 45.4098 17.4802C45.8932 17.319 46.3766 17.1579 46.8747 16.9919C46.2185 15.2859 45.4216 13.6497 44.4333 12.1091C43.9955 12.2459 43.6935 12.4899 43.3461 12.7785C43.2859 12.8154 43.2257 12.8523 43.1637 12.8903C42.7825 12.7632 42.6933 12.5859 42.4618 12.2616C42.392 12.1651 42.3221 12.0685 42.2501 11.9691C42.0895 11.7184 42.0895 11.7184 42.0895 11.5231C42.2818 11.3646 42.4736 11.2169 42.6754 11.0715C42.7313 11.0304 42.7872 10.9894 42.8448 10.9471C42.9833 10.8456 43.1223 10.7448 43.2614 10.6442C42.2178 9.17914 40.8992 7.81109 39.4528 6.73796C39.0695 7.09938 38.7745 7.47523 38.4762 7.90984C38.1016 7.77807 37.8266 7.6093 37.518 7.36052C37.4408 7.29884 37.3636 7.23715 37.2841 7.1736C37.2264 7.12652 37.1686 7.07944 37.109 7.03093C37.2905 6.64511 37.5264 6.30839 37.769 5.959C37.9073 5.7723 37.9073 5.7723 37.8903 5.56609C37.7393 5.44919 37.7393 5.44919 37.5393 5.3395C37.4636 5.29565 37.388 5.2518 37.31 5.20662C37.2276 5.16009 37.1451 5.11355 37.0602 5.0656C36.976 5.01761 36.8918 4.96963 36.8051 4.92019C35.5722 4.22355 34.329 3.63297 33.0075 3.12468C32.8463 3.60808 32.6852 4.09148 32.5192 4.58953C31.9626 4.46778 31.4122 4.3372 30.859 4.1989C31.0202 3.68328 31.1813 3.16765 31.3473 2.6364C30.7675 2.43471 30.1965 2.26654 29.5956 2.14202C29.4766 2.11723 29.4766 2.11723 29.3551 2.09195C28.2088 1.86227 27.0488 1.71974 25.8786 1.75749C25.8786 2.30535 25.8786 2.8532 25.8786 3.41765C25.2985 3.41765 24.7184 3.41765 24.1208 3.41765C24.1208 2.8698 24.1208 2.32195 24.1208 1.75749C23.4336 1.74571 22.7752 1.78257 22.0944 1.87346Z" fill="black"/>
<path d="M34.9878 14.8165C36.8013 16.5923 38.0998 18.8392 38.7698 21.2859C38.8005 21.3962 38.8312 21.5065 38.8628 21.6201C39.7478 25.2467 39.0937 28.9826 37.3049 32.2234C37.0591 32.6252 36.7975 33.0122 36.5237 33.3953C36.4692 33.472 36.4146 33.5487 36.3585 33.6276C35.3466 34.9655 34.1059 36.1176 32.6845 37.0033C32.5446 37.0907 32.4071 37.182 32.2703 37.2741C30.6443 38.3319 28.5803 38.961 26.6604 39.157C26.5981 39.1636 26.5358 39.1701 26.4716 39.1769C22.9611 39.5231 19.4642 38.5816 16.6018 36.5203C16.4872 36.4387 16.4872 36.4387 16.3702 36.3555C15.0317 35.3443 13.8795 34.1025 12.9938 32.6811C12.9064 32.5413 12.8151 32.4038 12.723 32.2669C11.6653 30.6409 11.0361 28.577 10.8401 26.657C10.8302 26.5636 10.8302 26.5636 10.8202 26.4683C10.474 22.9578 11.4155 19.4609 13.4768 16.5984C13.5312 16.522 13.5856 16.4456 13.6416 16.3669C14.6528 15.0284 15.8946 13.8762 17.316 12.9905C17.4559 12.903 17.5933 12.8117 17.7302 12.7197C23.1143 9.21718 30.4954 10.5626 34.9878 14.8165ZM22.4612 12.7899C22.3553 13.1057 22.3675 13.2668 22.4986 13.571C22.5466 13.6845 22.5466 13.6845 22.5955 13.8003C22.6311 13.8812 22.6667 13.9622 22.7034 14.0457C22.7395 14.13 22.7755 14.2142 22.8127 14.3011C22.9284 14.5709 23.0458 14.84 23.1631 15.1092C23.2403 15.2889 23.3174 15.4687 23.3944 15.6486C23.7988 16.5906 23.7988 16.5906 24.226 17.5225C24.2552 17.5844 24.2844 17.6464 24.3145 17.7102C24.4198 17.9003 24.4198 17.9003 24.7073 18.0633C24.9919 18.1203 24.9919 18.1203 25.2932 18.0633C25.7867 17.6719 25.9773 17.2001 26.2102 16.6259C26.2483 16.5346 26.2864 16.4432 26.3257 16.3491C26.4057 16.1566 26.4851 15.9639 26.564 15.7709C26.6846 15.4759 26.807 15.1817 26.9297 14.8876C27.0074 14.7 27.0849 14.5125 27.1624 14.3249C27.1988 14.2371 27.2352 14.1493 27.2727 14.0588C27.3063 13.9764 27.34 13.8939 27.3746 13.809C27.4189 13.7009 27.4189 13.7009 27.4641 13.5906C27.5454 13.3583 27.594 13.1296 27.6369 12.8875C26.8287 12.5988 26.0796 12.5763 25.2282 12.5764C25.033 12.5762 24.8378 12.5744 24.6426 12.5726C23.8931 12.5715 23.1922 12.6212 22.4612 12.7899ZM16.3088 16.1102C16.2257 16.1893 16.1426 16.2685 16.057 16.3501C15.6087 16.7592 15.6087 16.7592 15.3323 17.282C15.4151 17.353 15.4979 17.424 15.5833 17.4972C16.071 17.9153 16.5588 18.3334 17.0466 18.7515C17.1023 18.7992 17.158 18.8469 17.2154 18.8961C17.3275 18.9922 17.4395 19.0883 17.5515 19.1846C17.8474 19.4387 18.1443 19.6916 18.4428 19.9428C18.5044 19.995 18.5661 20.0472 18.6297 20.1009C18.7471 20.2002 18.8648 20.2992 18.9829 20.3977C19.589 20.9115 20.0685 21.4522 20.1456 22.2682C20.1624 22.9263 20.1057 23.4254 19.8244 24.0203C19.7791 24.1351 19.7791 24.1351 19.7329 24.2523C19.5948 24.4634 19.4703 24.506 19.2385 24.6063C19.1351 24.6705 19.0317 24.7347 18.9251 24.8009C18.5767 25.0006 18.2771 25.0654 17.8744 25.106C17.8085 25.113 17.7425 25.12 17.6746 25.1272C17.4474 25.1507 17.22 25.1716 16.9924 25.1922C16.813 25.2093 16.6336 25.2263 16.4542 25.2434C15.8688 25.2981 15.2832 25.3491 14.6975 25.3997C14.4929 25.4176 14.2883 25.4355 14.0837 25.4535C13.5885 25.4969 13.0932 25.54 12.5979 25.5828C12.5836 26.246 12.5836 26.246 12.6662 26.9019C12.6812 26.9753 12.6963 27.0486 12.7118 27.1242C12.7286 27.1997 12.7454 27.2751 12.7627 27.3528C12.7803 27.4334 12.798 27.5139 12.8162 27.5969C13.1501 29.0697 13.6469 30.6682 14.6487 31.8328C14.6975 31.8025 14.7463 31.7723 14.7966 31.7411C15.223 31.4768 15.6495 31.2128 16.0761 30.949C16.4545 30.715 16.8327 30.4806 17.2105 30.2456C17.4396 30.1033 17.6689 29.9613 17.8982 29.8193C18.0645 29.7162 18.2305 29.6128 18.3966 29.5093C18.4992 29.4458 18.6018 29.3824 18.7075 29.317C18.7983 29.2607 18.889 29.2043 18.9825 29.1463C19.6062 28.7918 20.2479 28.6276 20.9631 28.7536C21.6718 28.9503 22.2486 29.2468 22.6565 29.8797C23.1087 30.8754 22.9481 31.7726 22.6931 32.7991C22.6671 32.9075 22.6411 33.0158 22.6143 33.1275C22.5316 33.4713 22.4476 33.8148 22.3635 34.1583C22.2796 34.5035 22.1959 34.8488 22.1127 35.1943C22.0611 35.4086 22.0089 35.6228 21.9562 35.8369C21.921 35.9822 21.921 35.9822 21.8851 36.1304C21.8643 36.2153 21.8435 36.3003 21.8221 36.3878C21.7652 36.6428 21.7652 36.6428 21.7776 37.0086C21.9422 37.0559 22.107 37.1026 22.272 37.149C22.3637 37.175 22.4555 37.2011 22.55 37.2279C23.3447 37.4218 24.1321 37.4217 24.9453 37.4236C25.0105 37.4238 25.0757 37.424 25.1429 37.4242C26.7233 37.4465 26.7233 37.4465 28.2229 37.0086C28.1583 36.3831 28.0306 35.7882 27.8807 35.1779C27.832 34.9753 27.7834 34.7727 27.7348 34.5701C27.6585 34.2539 27.5818 33.9378 27.5046 33.6219C27.4297 33.3148 27.3561 33.0074 27.2826 32.6999C27.2594 32.6065 27.2362 32.5131 27.2123 32.4168C26.9848 31.4582 26.9291 30.5539 27.463 29.6863C27.9029 29.1132 28.4599 28.8943 29.1445 28.72C29.9561 28.6916 30.6218 28.9348 31.3113 29.3426C31.3865 29.3858 31.4618 29.4289 31.5393 29.4734C32.2336 29.8751 32.9139 30.299 33.5903 30.7299C33.9483 30.9572 34.3084 31.1811 34.6682 31.4056C34.8004 31.4882 34.9327 31.5709 35.0649 31.6535C35.1596 31.7127 35.2543 31.7719 35.3518 31.8328C36.6037 30.3723 37.4178 27.9151 37.4053 25.9994C37.4047 25.882 37.4047 25.882 37.4041 25.7622C37.4036 25.703 37.4031 25.6438 37.4026 25.5828C37.2776 25.572 37.1527 25.5612 37.024 25.5501C36.5529 25.5092 36.0819 25.468 35.6109 25.4267C35.4084 25.4089 35.2059 25.3913 35.0035 25.3738C33.068 25.2064 33.068 25.2064 32.1127 25.0972C31.9939 25.0839 31.875 25.0705 31.7525 25.0568C31.3772 24.9836 31.1097 24.8501 30.8089 24.6181C30.6519 24.4871 30.6519 24.4871 30.3713 24.4109C30.2737 24.2584 30.2737 24.2584 30.176 24.0203C30.1236 23.9095 30.0713 23.7988 30.0173 23.6846C29.7621 22.9781 29.7556 22.1704 30.0478 21.4752C30.5929 20.524 31.6203 19.8258 32.4595 19.152C32.7169 18.9407 32.9635 18.7211 33.2095 18.4966C33.6784 18.0691 34.1682 17.6725 34.6682 17.282C33.7268 15.509 31.557 14.256 29.7854 13.4734C29.656 13.4378 29.5259 13.4043 29.3948 13.3758C29.274 13.6569 29.1532 13.9381 29.0326 14.2193C28.9273 14.4647 28.8219 14.7099 28.7163 14.9551C28.4479 15.5791 28.1831 16.2041 27.9265 16.8331C27.8798 16.9466 27.833 17.0602 27.7849 17.1772C27.6964 17.3926 27.609 17.6085 27.5228 17.8248C27.2461 18.4955 26.9561 19.0692 26.3407 19.4816C25.5353 19.8079 24.8607 19.9223 24.0237 19.6258C23.3118 19.2793 22.9032 18.8271 22.5951 18.0927C22.5489 17.9837 22.5027 17.8748 22.4552 17.7626C22.4068 17.6463 22.3584 17.53 22.3086 17.4102C22.2576 17.2893 22.2066 17.1684 22.1555 17.0475C22.0498 16.7971 21.9445 16.5464 21.8395 16.2956C21.6822 15.9199 21.5235 15.5448 21.3644 15.1698C21.1109 14.5721 20.858 13.974 20.6057 13.3758C19.1789 13.3758 17.2532 15.2023 16.3088 16.1102ZM14.258 18.6492C13.4729 20.2159 12.5979 22.0235 12.5979 23.825C13.7387 23.7808 14.8773 23.7023 16.0153 23.6114C16.1699 23.5992 16.3246 23.5875 16.4792 23.5762C16.7 23.5599 16.9206 23.542 17.1412 23.5237C17.2076 23.5191 17.2739 23.5145 17.3423 23.5097C17.7508 23.4736 18.0303 23.3879 18.3596 23.1414C18.5149 22.8308 18.4963 22.6057 18.4573 22.2625C18.2707 22.0353 18.1119 21.8731 17.8896 21.6888C17.832 21.6384 17.7743 21.588 17.715 21.536C17.5411 21.3852 17.3651 21.2374 17.1877 21.0906C17.0934 21.0126 16.9991 20.9345 16.902 20.8541C16.7274 20.7116 16.5522 20.5698 16.3763 20.4288C16.0085 20.125 15.6607 19.8013 15.3128 19.4751C14.9756 19.1793 14.6199 18.9139 14.258 18.6492ZM35.1199 19.1314C34.6497 19.5683 34.1653 19.9792 33.6653 20.3819C33.2887 20.6933 32.9303 21.0232 32.5709 21.3542C32.3581 21.5482 32.1421 21.7357 31.9216 21.9207C31.6115 22.1904 31.5558 22.244 31.5127 22.6409C31.5158 22.9546 31.5158 22.9546 31.7263 23.1719C32.0203 23.4054 32.2041 23.4508 32.5723 23.4813C32.7102 23.4931 32.7102 23.4931 32.8509 23.505C33.0004 23.5171 33.0004 23.5171 33.153 23.5294C33.2554 23.5379 33.3577 23.5464 33.4632 23.5552C33.6803 23.5732 33.8973 23.591 34.1144 23.6086C34.4458 23.6356 34.7771 23.6632 35.1084 23.6909C35.3192 23.7083 35.5301 23.7257 35.7409 23.743C35.8398 23.7512 35.9387 23.7595 36.0406 23.768C36.4959 23.8046 36.9453 23.8354 37.4026 23.825C37.2225 21.9545 36.5895 20.3177 35.7424 18.6492C35.5197 18.6492 35.2821 18.979 35.1199 19.1314ZM19.0798 31.0699C18.8811 31.195 18.6823 31.3201 18.4836 31.4452C18.3827 31.5095 18.2818 31.5737 18.1779 31.6398C17.8769 31.8293 17.5734 32.0134 17.2682 32.196C17.1736 32.253 17.0789 32.31 16.9814 32.3687C16.7999 32.4779 16.6181 32.5865 16.4358 32.6944C16.3547 32.7438 16.2737 32.7932 16.1902 32.8441C16.1186 32.8871 16.0469 32.93 15.9731 32.9743C15.8976 33.0377 15.8976 33.0377 15.8205 33.1024C15.7893 33.4083 15.7893 33.4083 16.0143 33.628C17.046 34.6509 18.1555 35.4427 19.4338 36.1297C19.5053 36.1691 19.5768 36.2085 19.6505 36.2491C19.8376 36.3445 19.8376 36.3445 20.1174 36.325C20.2878 35.6426 20.4563 34.9597 20.6235 34.2764C20.6805 34.0441 20.738 33.812 20.796 33.5799C20.8793 33.2459 20.961 32.9116 21.0425 32.5771C21.0686 32.4738 21.0948 32.3705 21.1217 32.2641C21.2513 31.7246 21.3337 31.3002 21.1916 30.7586C20.9774 30.5031 20.8381 30.4713 20.5096 30.4214C19.9583 30.4317 19.5279 30.7807 19.0798 31.0699ZM28.9675 30.5694C28.7404 30.8402 28.7129 31.0988 28.7112 31.4422C28.7687 31.8268 28.8626 32.2003 28.958 32.5771C28.9841 32.6845 29.0103 32.7919 29.0372 32.9026C29.1206 33.2441 29.2058 33.5852 29.291 33.9263C29.348 34.1584 29.4049 34.3906 29.4617 34.6227C29.6008 35.1905 29.7414 35.7579 29.883 36.325C31.5325 36.0289 33.2793 34.5098 34.2776 33.2C33.2371 32.5135 32.1717 31.8686 31.105 31.224C31.046 31.1884 30.9871 31.1528 30.9264 31.1161C30.7638 31.0178 30.6012 30.9197 30.4386 30.8216C30.251 30.7068 30.066 30.5876 29.883 30.4656C29.5363 30.4341 29.2876 30.4262 28.9675 30.5694Z" fill="black"/>
<path d="M37.112 11.1361C40.6437 14.2102 43.0005 18.683 43.3479 23.3823C43.5931 27.7784 42.641 32.0401 40.0417 35.6478C39.9698 35.7477 39.898 35.8475 39.8239 35.9503C39.3736 36.561 38.8854 37.1303 38.3694 37.6864C38.3145 37.7456 38.2597 37.8048 38.2032 37.8658C36.0265 40.1706 33.1975 41.7707 30.1784 42.6791C30.0682 42.7141 29.9579 42.7491 29.8443 42.7851C25.3116 44.1248 20.2212 43.3753 16.1041 41.1511C15.4987 40.8148 14.9202 40.4473 14.3581 40.0424C14.2583 39.9705 14.1585 39.8986 14.0556 39.8245C13.4449 39.3742 12.8756 38.8861 12.3195 38.37C12.2603 38.3152 12.2011 38.2603 12.1401 38.2038C9.8354 36.0271 8.23522 33.1982 7.32687 30.1791C7.27438 30.0137 7.27438 30.0137 7.22082 29.8449C5.88116 25.3122 6.63062 20.2219 8.8548 16.1047C9.19113 15.4993 9.55862 14.9208 9.96359 14.3588C10.0355 14.2589 10.1074 14.1591 10.1814 14.0563C10.6317 13.4456 11.1199 12.8763 11.636 12.3202C11.7182 12.2314 11.7182 12.2314 11.8021 12.1408C13.9788 9.83604 16.8078 8.23586 19.8269 7.32752C19.9923 7.27502 19.9923 7.27502 20.161 7.22147C26.0536 5.4799 32.5122 7.22515 37.112 11.1361ZM12.7462 13.7337C10.6235 16.08 9.11615 19.0418 8.5964 22.1713C8.56657 22.3403 8.56657 22.3403 8.53613 22.5127C7.89615 26.7251 8.92491 31.1224 11.4116 34.5824C14.0497 38.1171 17.7617 40.6773 22.1706 41.4095C22.2833 41.4294 22.396 41.4493 22.512 41.4698C26.8411 42.1275 31.2301 41.0084 34.7702 38.4592C35.2083 38.1355 35.6162 37.7857 36.0145 37.414C36.2189 37.2236 36.4287 37.0427 36.6421 36.8624C39.4885 34.3612 41.2953 30.2497 41.59 26.5102C41.8733 21.7617 40.4691 17.4447 37.3356 13.8587C34.8934 11.1126 31.4662 9.20017 27.8347 8.59705C27.6657 8.56721 27.6657 8.56721 27.4933 8.53678C22.0242 7.70588 16.5193 9.727 12.7462 13.7337Z" fill="black"/>
<path d="M27.324 22.5124C27.3944 22.5929 27.4649 22.6735 27.5376 22.7565C27.6373 22.8653 27.6373 22.8653 27.739 22.9762C28.3222 23.804 28.5003 24.6449 28.3554 25.6435C28.1928 26.4152 27.8392 27.0214 27.2446 27.5417C27.1358 27.6414 27.1358 27.6414 27.0249 27.7431C26.1972 28.3263 25.3562 28.5044 24.3576 28.3595C23.5859 28.1969 22.9797 27.8433 22.4594 27.2487C22.3597 27.1399 22.3597 27.1399 22.258 27.029C21.6749 26.2013 21.4967 25.3603 21.6416 24.3617C21.8042 23.59 22.1578 22.9838 22.7524 22.4635C22.8249 22.3971 22.8974 22.3306 22.9721 22.2621C24.3422 21.2969 26.0694 21.3972 27.324 22.5124ZM23.5886 24.1359C23.3444 24.6285 23.3333 25.1711 23.5005 25.6915C23.6846 26.0629 23.9382 26.3166 24.3096 26.5006C24.83 26.6678 25.3726 26.6567 25.8652 26.4125C26.2915 26.08 26.5155 25.7829 26.598 25.2536C26.6258 24.6644 26.5337 24.2966 26.1704 23.8307C25.7046 23.4674 25.3367 23.3753 24.7475 23.4031C24.2183 23.4856 23.9211 23.7096 23.5886 24.1359Z" fill="black"/>
</g>
<defs>
<clipPath id="clip0_147_2100">
<rect width="50" height="50" fill="white"/>
</clipPath>
</defs>
</svg>
