<svg width="50" height="50" viewBox="0 0 50 50" fill="none" xmlns="http://www.w3.org/2000/svg">
<path d="M21.2653 1.54803C21.3539 1.54738 21.4425 1.54674 21.5338 1.54608C21.828 1.54415 22.1221 1.54301 22.4163 1.54204C22.5166 1.54164 22.617 1.54125 22.7204 1.54084C23.2517 1.5388 23.783 1.5374 24.3143 1.53649C24.8631 1.53541 25.4119 1.53205 25.9608 1.52817C26.3827 1.52562 26.8046 1.5248 27.2265 1.52445C27.4288 1.52397 27.6311 1.52284 27.8334 1.52103C28.1168 1.51865 28.4 1.51874 28.6833 1.51942C28.7668 1.51816 28.8502 1.51691 28.9361 1.51562C29.4615 1.52021 29.7583 1.60757 30.1754 1.95594C30.5539 2.40746 30.6432 2.79593 30.7075 3.36203C30.7226 3.47831 30.7226 3.47831 30.738 3.59694C30.7696 3.84324 30.7991 4.08974 30.8284 4.33631C30.8492 4.50112 30.8701 4.66592 30.8912 4.83069C30.9386 5.20383 30.9845 5.57711 31.0294 5.95055C31.0547 6.15887 31.0814 6.367 31.1081 6.57515C31.1531 6.94566 31.1751 7.30792 31.1824 7.68103C31.1879 7.8642 31.1879 7.8642 31.1935 8.05106C31.1298 8.5873 30.9008 8.85918 30.5103 9.21759C30.0386 9.44324 29.6286 9.42038 29.1134 9.40223C29.0182 9.40046 28.923 9.3987 28.825 9.39688C28.5915 9.39231 28.358 9.3853 28.1246 9.37781C28.1246 9.89344 28.1246 10.4091 28.1246 10.9403C28.2763 10.9383 28.4279 10.9362 28.5842 10.9341C29.1502 10.927 29.7162 10.9225 30.2823 10.9189C30.5266 10.9169 30.771 10.9142 31.0154 10.9108C31.3679 10.9061 31.7203 10.9039 32.0728 10.9022C32.181 10.9001 32.2891 10.8981 32.4006 10.8961C33.4546 10.8958 34.3453 11.2389 35.1558 11.9169C35.8619 12.6565 36.2057 13.4093 36.3587 14.4126C36.377 14.5309 36.377 14.5309 36.3957 14.6516C36.6044 16.036 36.7721 17.4266 36.9471 18.8155C36.9792 19.0697 37.0113 19.3239 37.0434 19.5781C37.1443 20.3773 37.245 21.1765 37.3453 21.9758C37.4602 22.8914 37.576 23.807 37.6926 24.7224C37.7834 25.4354 37.8733 26.1484 37.9626 26.8616C38.0157 27.2852 38.0691 27.7088 38.1234 28.1323C38.1745 28.5307 38.2245 28.9292 38.2737 29.3278C38.2917 29.4724 38.3101 29.617 38.329 29.7616C38.4299 30.5382 38.4925 31.3049 38.497 32.0886C38.4977 32.1601 38.4983 32.2316 38.499 32.3053C38.4894 33.9218 37.705 35.1008 36.6207 36.2333C36.9784 36.6727 37.3611 37.0765 37.7662 37.4723C37.817 37.5221 37.8678 37.5719 37.9201 37.6231C38.1325 37.8311 38.3451 38.0389 38.5591 38.2452C38.7169 38.3977 38.8733 38.5513 39.0297 38.7052C39.0776 38.7508 39.1255 38.7964 39.1749 38.8434C39.7915 39.4553 39.8768 39.9932 39.8866 40.8279C39.8861 40.997 39.8861 40.997 39.8857 41.1695C39.8862 41.2874 39.8867 41.4052 39.8872 41.5267C39.8879 41.7755 39.8877 42.0244 39.8869 42.2733C39.8861 42.6516 39.8889 43.0297 39.892 43.408C39.8921 43.6506 39.8921 43.8932 39.8918 44.1358C39.8929 44.2477 39.894 44.3597 39.8951 44.475C39.8853 45.6205 39.5656 46.5318 38.7691 47.3661C37.5262 48.5526 36.1615 48.4971 34.5417 48.4909C34.3104 48.4914 34.0792 48.4921 33.8479 48.4929C33.222 48.4947 32.5962 48.494 31.9703 48.4928C31.5789 48.4921 31.1875 48.4922 30.7961 48.4926C30.6984 48.4927 30.6984 48.4927 30.5988 48.4928C30.4664 48.4929 30.3341 48.493 30.2017 48.4931C28.963 48.4943 27.7242 48.493 26.4855 48.4909C25.4244 48.4891 24.3633 48.4894 23.3022 48.4912C22.0677 48.4933 20.8331 48.4941 19.5986 48.493C19.4667 48.4928 19.3349 48.4927 19.203 48.4926C19.1058 48.4925 19.1058 48.4925 19.0065 48.4924C18.5512 48.4921 18.0959 48.4926 17.6406 48.4936C17.0269 48.4947 16.4133 48.4939 15.7996 48.4916C15.5749 48.4911 15.3501 48.4913 15.1254 48.4921C13.6084 48.4974 12.3845 48.4681 11.2301 47.3661C10.3306 46.4239 10.0949 45.4143 10.104 44.1392C10.1036 44.0212 10.1032 43.9032 10.1028 43.7816C10.1026 43.5339 10.1033 43.2861 10.1049 43.0383C10.107 42.6603 10.1049 42.2824 10.1024 41.9044C10.1027 41.6626 10.1032 41.4208 10.104 41.179C10.1032 41.0668 10.1024 40.9546 10.1016 40.839C10.1127 39.8771 10.3454 39.3194 11.0225 38.6427C11.0824 38.5848 11.1424 38.5268 11.2041 38.4672C11.2664 38.4054 11.3287 38.3437 11.3929 38.28C11.59 38.0851 11.7884 37.8916 11.9869 37.6981C12.1216 37.5653 12.2563 37.4325 12.3909 37.2995C12.7191 36.9756 13.0484 36.6529 13.3785 36.3309C13.3384 36.2843 13.2983 36.2377 13.257 36.1897C13.2043 36.1284 13.1516 36.0671 13.0974 36.0039C13.0191 35.9128 13.0191 35.9128 12.9392 35.8199C11.6921 34.3528 11.4107 32.805 11.5379 30.9363C11.5832 30.4239 11.6485 29.914 11.714 29.4039C11.7347 29.237 11.7552 29.0701 11.7756 28.9032C11.8307 28.4558 11.8872 28.0086 11.944 27.5614C11.9915 27.1862 12.0383 26.811 12.0851 26.4357C12.1956 25.5504 12.3072 24.6651 12.4195 23.78C12.5349 22.8697 12.6487 21.9593 12.7616 21.0487C12.8591 20.2632 12.9575 19.4779 13.0567 18.6926C13.1158 18.2252 13.1745 17.7577 13.2323 17.2901C13.2866 16.851 13.3422 16.4119 13.3987 15.973C13.4191 15.8128 13.4391 15.6524 13.4587 15.492C13.6327 14.0672 13.9051 12.6951 15.0692 11.7399C15.7043 11.2767 16.4133 10.9273 17.2072 10.9292C17.3626 10.9292 17.3626 10.9292 17.5211 10.9292C17.6328 10.9298 17.7445 10.9303 17.8596 10.9308C18.0313 10.931 18.0313 10.931 18.2065 10.9312C18.5727 10.9317 18.9388 10.933 19.305 10.9342C19.553 10.9347 19.801 10.9351 20.0491 10.9355C20.6576 10.9366 21.2661 10.9383 21.8746 10.9403C21.8746 10.4247 21.8746 9.90906 21.8746 9.37781C21.7333 9.38234 21.5921 9.38688 21.4466 9.39154C21.2597 9.39521 21.0727 9.39876 20.8858 9.40223C20.7929 9.4055 20.7 9.40877 20.6043 9.41214C20.033 9.42008 19.6776 9.3908 19.2379 8.98719C18.5272 8.07729 18.8432 6.80017 18.9743 5.7171C18.9959 5.54645 19.0177 5.37583 19.0398 5.20525C19.0733 4.94512 19.1048 4.68481 19.1362 4.42443C19.1574 4.25593 19.1787 4.08745 19.2001 3.91898C19.2093 3.84267 19.2184 3.76635 19.2279 3.68773C19.413 2.2941 19.413 2.2941 19.9276 1.85828C20.3875 1.54511 20.7211 1.54972 21.2653 1.54803ZM20.9957 3.22547C20.9521 3.50546 20.9139 3.78432 20.8793 4.06546C20.8686 4.15041 20.8579 4.23535 20.8469 4.32287C20.8243 4.50329 20.8019 4.68374 20.7797 4.86421C20.7458 5.13884 20.7111 5.41335 20.6762 5.68785C20.6543 5.8632 20.6325 6.03855 20.6108 6.2139C20.6004 6.29551 20.59 6.37712 20.5793 6.4612C20.5699 6.53904 20.5604 6.61688 20.5507 6.69708C20.5423 6.76466 20.5339 6.83224 20.5253 6.90187C20.5017 7.20549 20.5074 7.51077 20.5074 7.81531C23.4722 7.81531 26.4371 7.81531 29.4918 7.81531C29.4189 6.66681 29.4189 6.66681 29.3026 5.52726C29.2943 5.4602 29.286 5.39314 29.2774 5.32405C29.2602 5.18607 29.2428 5.04811 29.2252 4.91018C29.1982 4.69798 29.1722 4.48569 29.1462 4.27337C29.1292 4.13794 29.1121 4.00251 29.095 3.8671C29.0798 3.74601 29.0646 3.62493 29.0489 3.50017C29.0326 3.23557 29.0326 3.23557 28.9058 3.12781C28.6627 3.11801 28.4223 3.11451 28.1791 3.11518C28.1031 3.115 28.027 3.11483 27.9487 3.11466C27.696 3.11423 27.4434 3.11451 27.1908 3.11484C27.016 3.11478 26.8412 3.11468 26.6664 3.11456C26.2996 3.11441 25.9328 3.11462 25.566 3.11508C25.0947 3.11564 24.6234 3.11532 24.1522 3.11473C23.7911 3.11438 23.43 3.11449 23.069 3.11474C22.8952 3.11481 22.7213 3.11473 22.5475 3.1145C22.305 3.11425 22.0625 3.11463 21.82 3.11518C21.7475 3.11498 21.6749 3.11478 21.6002 3.11458C21.27 3.08664 21.27 3.08664 20.9957 3.22547ZM23.4371 9.37781C23.4371 9.89344 23.4371 10.4091 23.4371 10.9403C24.4683 10.9403 25.4996 10.9403 26.5621 10.9403C26.5621 10.4247 26.5621 9.90906 26.5621 9.37781C25.5308 9.37781 24.4996 9.37781 23.4371 9.37781ZM19.5308 12.5028C19.5308 15.0809 19.5308 17.6591 19.5308 20.3153C23.1402 20.3153 26.7496 20.3153 30.4683 20.3153C30.4683 17.7372 30.4683 15.1591 30.4683 12.5028C26.859 12.5028 23.2496 12.5028 19.5308 12.5028ZM32.0308 12.5028C32.0308 20.2372 32.0308 27.9716 32.0308 35.9403C33.485 35.9403 34.6643 35.7916 35.7597 34.7692C36.6695 33.7635 36.8701 32.6634 36.816 31.3505C36.7688 30.8047 36.7016 30.2622 36.6324 29.7189C36.6126 29.559 36.5929 29.3991 36.5732 29.2391C36.52 28.8085 36.4659 28.3779 36.4115 27.9474C36.3545 27.4947 36.2982 27.042 36.2419 26.5892C36.1471 25.8292 36.0517 25.0694 35.9559 24.3096C35.8455 23.4337 35.7362 22.5577 35.6274 21.6817C35.5223 20.8355 35.4164 19.9894 35.3102 19.1433C35.2652 18.7848 35.2205 18.4263 35.176 18.0677C35.1235 17.6448 35.0703 17.2219 35.0166 16.7992C34.9971 16.6449 34.9778 16.4906 34.9588 16.3363C34.7705 14.4125 34.7705 14.4125 33.691 12.8934C33.1129 12.5509 32.7531 12.575 32.0308 12.5028ZM16.1129 13.0887C15.5422 13.6635 15.3291 14.1485 15.2266 14.9589C15.2132 15.0628 15.2132 15.0628 15.1995 15.1688C15.1698 15.4001 15.141 15.6316 15.1122 15.8632C15.0911 16.0294 15.0699 16.1956 15.0486 16.3618C14.9911 16.8132 14.9345 17.2646 14.878 17.716C14.8307 18.0936 14.783 18.4712 14.7352 18.8487C14.6226 19.7404 14.5105 20.6321 14.399 21.5239C14.2842 22.4415 14.1683 23.3589 14.0518 24.2762C13.9517 25.0654 13.8522 25.8547 13.7532 26.644C13.6942 27.1146 13.635 27.5853 13.5751 28.0559C13.5187 28.4993 13.4631 28.9428 13.4082 29.3864C13.388 29.5482 13.3676 29.71 13.3468 29.8717C13.1341 31.5298 12.9673 33.0323 13.9877 34.469C14.7811 35.3996 15.7955 35.8333 16.9918 35.9403C17.314 35.9403 17.6363 35.9403 17.9683 35.9403C17.9683 28.2059 17.9683 20.4716 17.9683 12.5028C17.2598 12.5028 16.6702 12.6305 16.1129 13.0887ZM19.5308 21.8778C19.5308 26.5184 19.5308 31.1591 19.5308 35.9403C23.1402 35.9403 26.7496 35.9403 30.4683 35.9403C30.4683 31.2997 30.4683 26.6591 30.4683 21.8778C26.859 21.8778 23.2496 21.8778 19.5308 21.8778ZM14.563 37.4071C14.4803 37.4971 14.3975 37.5871 14.3123 37.6798C14.2279 37.7691 14.1434 37.8583 14.0564 37.9503C13.8464 38.1613 13.8464 38.1613 13.8668 38.3817C13.9293 38.4056 13.9919 38.4296 14.0564 38.4542C14.7067 38.7353 15.0256 39.0457 15.3927 39.6501C15.437 39.7149 15.4813 39.7798 15.5269 39.8466C15.5914 39.8466 15.6558 39.8466 15.7222 39.8466C15.8897 39.6334 15.8897 39.6334 16.0618 39.3587C16.1272 39.2578 16.1927 39.1569 16.2601 39.0529C16.3283 38.9462 16.3966 38.8395 16.4669 38.7296C16.5704 38.5702 16.5704 38.5702 16.6759 38.4075C17.0077 37.9827 17.0077 37.9827 17.1871 37.5028C17.0752 37.4898 16.9633 37.4769 16.848 37.4635C16.6986 37.4461 16.5491 37.4287 16.3997 37.4113C16.2896 37.3985 16.2896 37.3985 16.1771 37.3855C16.1044 37.377 16.0318 37.3685 15.9568 37.3598C15.8843 37.3518 15.8117 37.3439 15.7369 37.3357C15.5269 37.3075 15.5269 37.3075 15.1638 37.2228C14.83 37.1768 14.83 37.1768 14.563 37.4071ZM34.4234 37.3014C33.8948 37.4425 33.3562 37.4683 32.8121 37.5028C33.1094 38.0803 33.4505 38.6268 33.807 39.1691C33.8714 39.2686 33.8714 39.2686 33.9372 39.3701C34.0452 39.5326 34.1605 39.6901 34.2769 39.8466C34.3414 39.8466 34.4058 39.8466 34.4722 39.8466C34.5745 39.697 34.6712 39.5436 34.7652 39.3888C35.1308 38.8438 35.5281 38.6127 36.1324 38.3817C35.9897 38.055 35.8079 37.8299 35.5587 37.5761C35.4593 37.4726 35.4593 37.4726 35.358 37.367C35.0389 37.1189 34.7966 37.2014 34.4234 37.3014ZM18.7073 38.0136C18.6174 38.1985 18.5336 38.3865 18.4566 38.577C18.3419 38.7554 18.2243 38.932 18.1026 39.1057C17.9924 39.2752 17.8826 39.4448 17.773 39.6146C17.716 39.7021 17.659 39.7896 17.6002 39.8797C17.3276 40.2297 17.3276 40.2297 17.1871 40.6278C22.3433 40.6278 27.4996 40.6278 32.8121 40.6278C32.4062 39.8944 32.4062 39.8944 31.9591 39.1965C31.863 39.056 31.863 39.056 31.765 38.9127C31.6996 38.8181 31.6343 38.7234 31.567 38.6259C31.5001 38.5282 31.4333 38.4305 31.3644 38.3298C31.0871 37.897 31.0871 37.897 30.7613 37.5028C30.6136 37.4911 30.4655 37.4861 30.3173 37.4838C30.2214 37.4822 30.1254 37.4805 30.0265 37.4787C29.9204 37.4774 29.8142 37.4761 29.7048 37.4747C29.5936 37.4729 29.4825 37.4712 29.368 37.4694C28.3408 37.4543 27.3136 37.4456 26.2864 37.4391C25.5272 37.4342 24.7682 37.4258 24.0092 37.4129C23.4108 37.403 22.8126 37.3991 22.2142 37.3971C21.96 37.3954 21.7058 37.3918 21.4516 37.3862C19.9135 37.2613 19.9135 37.2613 18.7073 38.0136ZM11.9137 40.1395C11.6694 40.5771 11.69 41.012 11.6924 41.4991C11.6922 41.583 11.692 41.6669 11.6918 41.7534C11.6917 41.9307 11.6921 42.108 11.6929 42.2853C11.6939 42.5543 11.6929 42.8232 11.6916 43.0921C11.6918 43.265 11.692 43.438 11.6924 43.6109C11.692 43.6903 11.6916 43.7697 11.6912 43.8514C11.6983 44.7356 11.8128 45.5109 12.4645 46.158C13.2148 46.8349 13.981 46.8927 14.9571 46.8909C15.0909 46.8912 15.0909 46.8912 15.2274 46.8915C15.5259 46.8922 15.8243 46.8921 16.1227 46.892C16.3369 46.8923 16.5511 46.8926 16.7652 46.893C17.3467 46.8939 17.9282 46.8941 18.5098 46.8941C18.8731 46.8942 19.2365 46.8944 19.5999 46.8947C20.8025 46.8955 22.0051 46.896 23.2077 46.8959C23.2725 46.8959 23.3373 46.8959 23.404 46.8959C23.4689 46.8959 23.5337 46.8959 23.6006 46.8959C24.6514 46.8959 25.7022 46.8968 26.753 46.8982C27.833 46.8996 28.9131 46.9002 29.9931 46.9002C30.5991 46.9001 31.205 46.9004 31.8109 46.9014C32.3809 46.9024 32.9509 46.9024 33.5209 46.9017C33.7298 46.9016 33.9387 46.9018 34.1476 46.9024C34.4334 46.9032 34.7191 46.9027 35.0049 46.902C35.1281 46.9027 35.1281 46.9027 35.2538 46.9035C36.1385 46.8984 36.9135 46.7838 37.561 46.1317C38.2355 45.384 38.2957 44.6162 38.3007 43.6429C38.3012 43.5585 38.3018 43.474 38.3024 43.3869C38.3033 43.209 38.3039 43.0311 38.3043 42.8531C38.3053 42.5818 38.3083 42.3106 38.3114 42.0392C38.312 41.8658 38.3125 41.6924 38.3129 41.5189C38.3147 41.3981 38.3147 41.3981 38.3165 41.2747C38.3147 40.7918 38.2565 40.46 37.9879 40.0419C37.5998 39.7979 37.1641 39.7911 36.7183 39.8466C36.136 40.0684 35.8144 40.647 35.4973 41.1569C35.449 41.2341 35.4008 41.3112 35.3512 41.3908C35.3089 41.4619 35.2666 41.533 35.223 41.6063C34.916 41.9666 34.5704 42.0827 34.1062 42.1298C33.9665 42.1315 33.8268 42.1317 33.6871 42.1305C33.6098 42.131 33.5324 42.1316 33.4527 42.1321C33.1942 42.1335 32.9359 42.1328 32.6775 42.1321C32.4918 42.1327 32.3062 42.1334 32.1206 42.1341C31.617 42.1359 31.1134 42.1358 30.6097 42.1352C30.1892 42.1349 29.7686 42.1355 29.348 42.1361C28.3558 42.1375 27.3635 42.1373 26.3713 42.1362C25.3479 42.1351 24.3246 42.1365 23.3012 42.1391C22.4223 42.1412 21.5433 42.1419 20.6643 42.1413C20.1395 42.141 19.6147 42.1412 19.0899 42.1429C18.5964 42.1444 18.1029 42.144 17.6093 42.1422C17.4284 42.1418 17.2474 42.1421 17.0664 42.1432C16.8191 42.1445 16.5718 42.1433 16.3244 42.1416C16.2174 42.143 16.2174 42.143 16.1083 42.1444C15.5733 42.1368 15.2764 41.9929 14.8433 41.702C14.6913 41.5384 14.6913 41.5384 14.5981 41.3785C14.5624 41.3199 14.5267 41.2612 14.4899 41.2008C14.4555 41.1406 14.421 41.0804 14.3856 41.0184C13.9731 40.2789 13.9731 40.2789 13.2808 39.8466C12.7385 39.811 12.3766 39.8199 11.9137 40.1395Z" fill="black"/>
</svg>
