<svg width="50" height="50" viewBox="0 0 50 50" fill="none" xmlns="http://www.w3.org/2000/svg">
<path d="M27.1134 15.9214C27.6046 16.1614 28.0759 16.4335 28.5476 16.7091C29.6752 17.3712 29.6752 17.3712 30.9521 17.4774C31.834 17.2168 32.5989 16.786 33.3863 16.321C33.959 15.995 34.3909 15.8289 35.0537 15.8172C35.5048 15.9877 35.6974 16.2846 35.9326 16.6961C36.4909 18.4947 35.7511 20.4738 35.1109 22.1378C35.0849 22.2089 35.0589 22.28 35.0321 22.3532C34.9619 22.5398 34.8828 22.723 34.803 22.9057C34.756 23.2761 34.7729 23.3145 34.9816 23.5996C35.0909 23.7275 35.2026 23.8534 35.3161 23.9776C35.4354 24.1158 35.5545 24.254 35.6736 24.3923C35.7339 24.461 35.7942 24.5297 35.8563 24.6005C36.1079 24.8915 36.3441 25.1933 36.5795 25.4974C36.6672 25.6096 36.755 25.7217 36.8428 25.8339C36.8858 25.889 36.9289 25.9442 36.9733 26.001C37.1507 26.228 37.3288 26.4545 37.5068 26.681C37.5966 26.7952 37.6864 26.9095 37.7761 27.0238C37.9981 27.3066 38.2205 27.5891 38.4438 27.8709C44.6088 35.6625 44.6088 35.6625 44.4035 38.3098C44.331 38.5711 44.331 38.5711 44.1357 38.7665C43.532 38.8213 43.532 38.8213 43.2961 38.6593C43.1015 38.3952 43.048 38.1311 42.9638 37.8143C42.4374 36.0066 41.4769 34.3578 40.4248 32.8094C40.3768 32.7387 40.3288 32.6681 40.2794 32.5952C39.2648 31.1107 38.1534 29.6977 37.0394 28.2872C36.9086 28.1212 36.7783 27.9547 36.6482 27.7881C36.1662 27.1714 35.6778 26.5608 35.1818 25.9552C34.6931 25.3578 34.2275 24.7502 33.7841 24.118C33.2673 24.2118 32.7709 24.3658 32.2678 24.5147C30.6219 24.9591 28.9938 24.7536 27.4365 24.118C26.8207 24.8854 26.2072 25.6543 25.6014 26.4295C25.318 26.791 25.0294 27.1478 24.7377 27.5026C23.5163 28.9904 22.3763 30.5411 21.2841 32.1258C21.2362 32.195 21.1883 32.2641 21.1389 32.3354C19.2342 35.0943 17.5483 37.8834 18.1775 41.3482C18.5557 43.1177 19.4565 44.6528 20.9649 45.6763C22.7605 46.839 24.871 47.454 26.9886 47.631C27.0609 47.6371 27.1331 47.6432 27.2076 47.6495C27.5727 47.6795 27.9378 47.7066 28.3035 47.7299C28.4396 47.7399 28.5757 47.7499 28.7117 47.76C28.8935 47.7716 28.8935 47.7716 29.0789 47.7834C29.4378 47.8586 29.5674 47.9434 29.7802 48.2391C29.7741 48.5931 29.7741 48.5931 29.6826 48.9227C29.3778 49.1259 29.3262 49.142 28.9837 49.1295C28.9013 49.1265 28.8188 49.1235 28.7339 49.1204C28.6441 49.1156 28.5544 49.1108 28.4619 49.1058C28.368 49.1011 28.2742 49.0963 28.1775 49.0914C26.5837 48.9952 24.9569 48.796 23.4341 48.3013C22.7718 48.1614 22.0776 48.4207 21.4306 48.5748C20.5695 48.7745 19.7237 48.9348 18.8427 49.0204C18.7364 49.0312 18.63 49.042 18.5204 49.0532C14.5831 49.3831 9.7254 49.2869 6.46481 46.7499C4.82389 45.3328 4.02404 43.4801 3.83057 41.3514C3.5373 37.1438 6.87589 33.3297 9.33861 30.2376C9.56009 29.9587 9.77919 29.678 9.99874 29.3976C10.3306 28.9739 10.6659 28.5534 11.0049 28.1354C11.1548 27.9495 11.3023 27.7618 11.4495 27.5738C11.6063 27.3738 11.7628 27.1915 11.9385 27.0069C12.1327 26.7853 12.2365 26.6527 12.2998 26.3641C12.1874 25.9084 12.0019 25.5078 11.7988 25.0864C11.6695 24.8017 11.5785 24.5086 11.488 24.2096C11.4432 24.0629 11.4432 24.0629 11.3976 23.9132C11.2357 23.2963 11.2049 22.7076 11.2011 22.0733C11.1991 21.9886 11.1971 21.9038 11.195 21.8164C11.1911 21.1585 11.2806 20.68 11.726 20.169C12.1188 19.9556 12.4538 19.9428 12.8857 20.0165C13.3092 20.191 13.6989 20.4146 14.0942 20.6451C14.3024 20.7631 14.5107 20.881 14.719 20.9987C14.8101 21.0514 14.9012 21.1041 14.995 21.1584C15.5193 21.4438 16.0134 21.4779 16.5966 21.3836C17.1434 21.1826 17.6508 20.8839 18.1591 20.6024C19.4363 19.9102 19.4363 19.9102 20.0146 20.0165C20.4231 20.1928 20.6022 20.4007 20.7959 20.7977C21.2719 22.4246 20.6826 24.1957 20.0255 25.678C19.8512 26.0826 19.8512 26.0826 19.8597 26.5133C20.0897 26.8719 20.352 27.1971 20.625 27.5238C20.6797 27.5904 20.7345 27.657 20.7909 27.7256C21.1453 28.1553 21.5065 28.5789 21.8701 29.0008C21.9329 28.9203 21.9957 28.8397 22.0604 28.7567C22.5606 28.1169 23.0656 27.4816 23.5791 26.8524C24.0669 26.2544 24.5477 25.6515 25.0225 25.0431C25.2103 24.8026 25.3997 24.5635 25.5902 24.3252C25.6644 24.2318 25.6644 24.2318 25.7402 24.1366C25.8353 24.0171 25.9307 23.8979 26.0264 23.779C26.2208 23.5341 26.3602 23.3431 26.4599 23.0438C26.4093 22.8535 26.4093 22.8535 26.3157 22.6532C26.2826 22.5755 26.2495 22.4978 26.2154 22.4178C26.1793 22.3344 26.1431 22.2509 26.1059 22.1649C25.4245 20.5243 24.6759 18.435 25.2671 16.6614C25.4077 16.3488 25.5434 16.1437 25.8007 15.9149C26.2867 15.7382 26.6381 15.7331 27.1134 15.9214ZM26.4599 17.0868C26.0254 18.5703 26.6805 20.1589 27.1679 21.5484C27.2186 21.7008 27.2186 21.7008 27.2703 21.8562C27.4829 22.4373 27.6688 22.773 28.2275 23.0607C28.2887 23.0874 28.35 23.114 28.413 23.1415C28.4937 23.1772 28.5744 23.213 28.6576 23.2498C29.7573 23.592 30.7261 23.5926 31.8425 23.3272C32.2216 23.2391 32.2216 23.2391 32.5642 23.1968C32.9454 23.117 33.2228 23.0342 33.4912 22.7508C34.445 21.1428 35.0976 18.9503 34.7607 17.0868C34.6398 17.1472 34.6398 17.1472 34.5166 17.2088C34.3416 17.2963 34.1666 17.3838 33.9915 17.4711C33.6499 17.6417 33.3088 17.8132 32.9686 17.9863C32.8989 18.0215 32.8293 18.0568 32.7576 18.0931C32.6221 18.1617 32.4868 18.2306 32.3517 18.2998C31.4524 18.754 30.4166 18.8006 29.4369 18.5676C28.5275 18.2339 27.6903 17.7222 26.8719 17.2096C26.6684 17.0707 26.6684 17.0707 26.4599 17.0868ZM12.4951 21.286C12.1017 22.4661 12.639 23.8605 13.0688 24.9603C13.1008 25.0436 13.1328 25.1269 13.1657 25.2127C13.3962 25.7783 13.644 26.1766 14.1842 26.4972C15.573 27.0346 16.969 26.7969 18.3186 26.2623C18.6806 25.963 18.7925 25.5764 18.9526 25.1434C19.0033 25.0108 19.0033 25.0108 19.055 24.8754C19.494 23.7104 19.8745 22.5387 19.624 21.286C19.5693 21.3133 19.5147 21.3406 19.4584 21.3688C19.2899 21.453 19.1213 21.537 18.9526 21.6209C18.7361 21.7297 18.5206 21.8402 18.3056 21.952C17.203 22.5231 16.2791 22.8488 15.0402 22.5189C14.2186 22.2519 13.486 21.8071 12.745 21.3694C12.6074 21.2782 12.6074 21.2782 12.4951 21.286ZM13.1787 27.3407C13.1088 27.4353 13.0389 27.53 12.967 27.6275C12.445 28.331 11.9151 29.0252 11.3598 29.7027C10.8613 30.3114 10.3733 30.9261 9.89861 31.5536C9.74313 31.7583 9.58631 31.9621 9.42959 32.1659C6.07456 36.3845 6.07456 36.3845 5.09495 41.5009C5.33571 43.2671 6.03835 44.739 7.41696 45.8954C8.5801 46.6959 9.88277 47.1827 11.2561 47.4823C11.3229 47.497 11.3898 47.5118 11.4587 47.527C12.965 47.8282 14.4976 47.8851 16.029 47.879C16.1156 47.8789 16.2022 47.8788 16.2915 47.8788C17.9024 47.8753 19.5385 47.8434 21.0888 47.3602C20.7807 47.1035 20.4612 46.8723 20.1306 46.6461C18.2401 45.3169 17.2416 43.4557 16.8358 41.2021C16.3454 36.8988 18.6253 33.4908 21.0888 30.1727C20.6917 29.6359 20.2831 29.1102 19.862 28.5919C19.8082 28.525 19.7544 28.4581 19.6989 28.3891C19.398 28.0183 19.0898 27.6713 18.7451 27.3407C18.6475 27.3796 18.6475 27.3796 18.5479 27.4193C16.667 28.14 15.0358 28.043 13.1787 27.3407Z" fill="black"/>
<path d="M35.1417 36.5862C35.2384 36.5864 35.2384 36.5864 35.337 36.5867C36.9748 36.5943 38.6318 36.758 39.894 37.911C40.1831 38.2424 40.2632 38.4986 40.2503 38.936C40.2485 39.0141 40.2468 39.0921 40.245 39.1725C40.2427 39.2314 40.2404 39.2904 40.2381 39.3511C40.3538 39.3371 40.3538 39.3371 40.4719 39.3228C42.2324 39.1498 44.2627 39.3033 45.7068 40.4253C46.127 40.8767 46.2069 41.3395 46.2093 41.9373C46.2099 42.0446 46.2106 42.1519 46.2112 42.2624C46.2114 42.4355 46.2114 42.4355 46.2115 42.6122C46.2119 42.7315 46.2122 42.8507 46.2125 42.9735C46.213 43.2257 46.2132 43.478 46.2132 43.7303C46.2134 44.1154 46.2152 44.5005 46.2171 44.8856C46.2173 45.1308 46.2175 45.3761 46.2176 45.6213C46.2183 45.7361 46.219 45.851 46.2198 45.9694C46.2161 47.268 46.2161 47.268 45.8331 47.7747C44.9877 48.5244 43.9826 48.8618 42.8748 49.019C42.8026 49.0299 42.7303 49.0407 42.6558 49.0518C41.2615 49.2255 39.9002 49.1072 38.5211 48.8798C38.0343 48.809 37.6421 48.8571 37.1631 48.9656C35.1451 49.405 32.5223 49.2178 30.7685 48.0932C30.4573 47.8604 30.2543 47.6061 30.0818 47.2612C30.0666 47.0439 30.0574 46.8262 30.0509 46.6085C30.0489 46.5423 30.0469 46.476 30.0448 46.4078C30.0383 46.1898 30.0325 45.9717 30.0269 45.7536C30.0249 45.6788 30.0228 45.604 30.0207 45.5269C29.9827 44.1191 29.9654 42.7125 29.9842 41.3042C29.9854 41.1797 29.9866 41.0552 29.9879 40.927C29.992 40.5399 30.0001 40.153 30.0086 39.7661C30.01 39.6469 30.0113 39.5277 30.0127 39.4049C30.0341 38.6483 30.096 38.1491 30.6617 37.6074C32.0238 36.7276 33.5545 36.5792 35.1417 36.5862ZM31.3514 38.7651C31.5129 39.1462 31.7014 39.2792 32.08 39.4541C33.9369 40.1454 36.3454 40.2045 38.1873 39.4487C38.4589 39.3005 38.716 39.1389 38.9686 38.9604C38.8066 38.5763 38.6143 38.447 38.2335 38.2715C36.4013 37.571 32.8586 37.2579 31.3514 38.7651ZM31.2537 40.4253C31.2078 40.8253 31.1876 41.1986 31.2537 41.5971C31.4692 41.8627 31.7194 41.9658 32.035 42.0854C32.1019 42.1139 32.1689 42.1423 32.2379 42.1716C34.0405 42.8593 36.3723 42.7571 38.169 42.0915C38.6435 41.8839 38.6435 41.8839 38.9686 41.4995C38.9988 41.139 38.991 40.7861 38.9686 40.4253C38.8894 40.4512 38.8102 40.4771 38.7286 40.5039C38.6205 40.5384 38.5123 40.5728 38.4009 40.6084C38.2956 40.6424 38.1902 40.6764 38.0816 40.7114C37.1267 40.9861 36.1935 41.049 35.2027 41.0478C35.074 41.0478 34.9452 41.0478 34.8126 41.0478C33.8066 41.0361 32.8982 40.909 31.9373 40.6206C31.808 40.5835 31.6787 40.5466 31.5494 40.51C31.4518 40.482 31.3542 40.4541 31.2537 40.4253ZM40.2381 40.5229C40.2381 41.1675 40.2381 41.812 40.2381 42.4761C42.6232 42.5329 42.6232 42.5329 44.8279 41.6948C44.8279 41.5981 44.8279 41.5014 44.8279 41.4018C44.4771 41.0543 44.1401 40.9241 43.6683 40.7976C43.4964 40.7502 43.4964 40.7502 43.3211 40.7018C42.6134 40.5369 41.9435 40.5104 41.2208 40.5168C41.0787 40.5175 41.0787 40.5175 40.9337 40.5182C40.7018 40.5193 40.47 40.5211 40.2381 40.5229ZM31.2537 43.062C31.1741 43.8079 31.1741 43.8079 31.4246 44.478C33.3402 45.3621 35.6701 45.5112 37.699 44.9175C38.4399 44.6582 38.4399 44.6582 38.9686 44.1362C38.9754 43.9532 38.9768 43.77 38.9747 43.5869C38.9738 43.489 38.9729 43.391 38.972 43.2901C38.9709 43.2148 38.9697 43.1396 38.9686 43.062C38.8894 43.0879 38.8102 43.1139 38.7286 43.1406C38.6205 43.1751 38.5123 43.2096 38.4009 43.2451C38.2956 43.2791 38.1902 43.3131 38.0816 43.3481C37.1019 43.6294 36.1518 43.6809 35.1356 43.6784C35.0083 43.68 34.881 43.6816 34.7499 43.6832C33.5294 43.6838 32.4008 43.4846 31.2537 43.062ZM43.8762 43.3681C43.0469 43.6335 42.2325 43.6715 41.3672 43.7029C41.2585 43.7071 41.1498 43.7113 41.0378 43.7156C40.7713 43.7259 40.5047 43.7358 40.2381 43.7456C40.2381 44.229 40.2381 44.7124 40.2381 45.2104C41.6834 45.2528 43.2456 45.2892 44.535 44.5268C44.6065 44.4869 44.678 44.447 44.7516 44.4059C44.9542 44.2406 44.9542 44.2406 44.9637 43.9489C44.9592 43.8435 44.9547 43.7382 44.95 43.6296C44.9447 43.4704 44.9447 43.4704 44.9393 43.308C44.9348 43.2268 44.9303 43.1456 44.9256 43.062C44.5939 43.062 44.1944 43.2635 43.8762 43.3681ZM38.3948 45.8818C36.3532 46.6283 33.8377 46.5911 31.7912 45.875C31.543 45.7814 31.543 45.7814 31.2537 45.7964C31.2431 45.9508 31.2356 46.1055 31.2293 46.2602C31.2248 46.3463 31.2202 46.4324 31.2156 46.5212C31.2666 46.8577 31.3795 46.9547 31.6443 47.1636C33.3413 48.0887 35.64 48.0878 37.4888 47.6511C38.0292 47.481 38.5632 47.2759 38.9686 46.8706C38.9923 46.5875 38.9923 46.5875 38.9808 46.2724C38.979 46.1654 38.9772 46.0584 38.9754 45.9482C38.9732 45.8659 38.9709 45.7835 38.9686 45.6987C38.7725 45.6987 38.5742 45.8122 38.3948 45.8818ZM44.3519 45.8818C43.0232 46.3676 41.6386 46.4007 40.2381 46.3823C40.2263 46.4553 40.2144 46.5283 40.2022 46.6036C40.1859 46.6997 40.1695 46.7959 40.1526 46.895C40.1368 46.9902 40.1209 47.0853 40.1046 47.1834C40.0474 47.4361 39.967 47.6199 39.8475 47.8471C42.3897 47.9474 42.3897 47.9474 44.7303 47.0659C44.9549 46.884 44.9549 46.884 44.9447 46.5952C44.9424 46.4887 44.9401 46.3822 44.9378 46.2724C44.936 46.1654 44.9343 46.0584 44.9325 45.9482C44.9302 45.8659 44.9279 45.7835 44.9256 45.6987C44.7296 45.6987 44.5313 45.8122 44.3519 45.8818Z" fill="black"/>
<path d="M21.788 5.49219C22.0614 5.50234 22.1629 5.55737 22.375 5.73557C22.6129 5.99601 22.8332 6.26484 23.0514 6.54199C23.0927 6.59427 23.134 6.64654 23.1766 6.7004C23.3535 6.92459 23.5299 7.1492 23.7048 7.37503C24.0383 7.80432 24.3861 8.21866 24.7421 8.62939C24.8855 8.7962 25.0288 8.96315 25.172 9.13022C25.2815 9.25773 25.3915 9.38477 25.5016 9.51173C25.7651 9.8335 25.8752 10.0121 25.9506 10.4299C25.8834 10.7412 25.8834 10.7412 25.6767 10.906C25.3386 11.0599 25.0996 11.0637 24.7299 11.0525C24.5597 11.0485 24.5597 11.0485 24.3862 11.0445C24.3002 11.0411 24.2142 11.0377 24.1256 11.0342C24.1271 11.099 24.1287 11.1639 24.1303 11.2307C24.1719 13.2547 24.0672 14.837 22.6108 16.3767C21.6008 17.3074 20.4294 17.712 19.0719 17.6954C17.9005 17.6194 16.7576 17.1427 15.9225 16.3076C14.9692 15.115 14.6465 13.9621 14.6224 12.4502C14.6207 12.3835 14.619 12.3169 14.6172 12.2482C14.6176 11.951 14.6393 11.7434 14.78 11.4794C14.9459 11.3271 14.9459 11.3271 15.2877 11.2844C15.6295 11.3271 15.6295 11.3271 15.7916 11.4469C15.955 11.6631 15.9775 11.8228 16.014 12.0901C16.1229 12.6933 16.3165 13.0338 16.8075 13.4145C17.2751 13.6524 17.7558 13.6561 18.2662 13.5732C18.7192 13.4094 19.0392 13.1584 19.2855 12.7432C19.5205 12.2049 19.5181 11.6133 19.5358 11.0342C19.4498 11.0376 19.3638 11.041 19.2752 11.0445C19.1618 11.0471 19.0484 11.0498 18.9315 11.0525C18.7633 11.0576 18.7633 11.0576 18.5916 11.0628C18.236 11.0315 18.0593 10.9567 17.778 10.7412C17.6803 10.5093 17.6803 10.5093 17.6803 10.2529C17.8877 9.85239 18.1668 9.52278 18.4615 9.18481C18.846 8.73783 19.2175 8.28378 19.5785 7.81763C21.2889 5.61442 21.2889 5.61442 21.788 5.49219ZM21.7819 7.12793C21.6172 7.31055 21.4576 7.49496 21.2997 7.68335C21.2522 7.73978 21.2047 7.79621 21.1557 7.85434C20.8127 8.26484 20.4791 8.68204 20.1522 9.10547C20.1099 9.16019 20.0675 9.21491 20.0239 9.27129C19.8194 9.49438 19.8194 9.49438 19.7311 9.76465C19.8245 9.7807 19.8245 9.7807 19.9199 9.79707C20.0006 9.81256 20.0813 9.82804 20.1644 9.84399C20.2449 9.85872 20.3253 9.87345 20.4082 9.88863C20.5081 9.92394 20.5081 9.92394 20.61 9.95996C20.7472 10.3716 20.7256 10.7617 20.7259 11.1929C20.7271 11.2773 20.7283 11.3618 20.7296 11.4488C20.7322 12.6036 20.4695 13.3955 19.6639 14.2385C18.8217 14.7947 17.9447 14.9833 16.9509 14.7978C16.7693 14.7536 16.5897 14.7015 16.4108 14.6475C16.5752 15.2503 17.0152 15.6549 17.538 15.9681C18.4416 16.4299 19.3413 16.5852 20.3468 16.3202C21.3286 15.9392 22.0945 15.3097 22.5631 14.3545C22.951 13.4391 22.9012 12.4752 22.906 11.5006C22.9075 11.2852 22.9107 11.0699 22.9141 10.8545C22.9148 10.7272 22.9154 10.6 22.9162 10.4689C22.9537 10.1553 22.9537 10.1553 23.0802 9.96928C23.3448 9.79926 23.6225 9.79369 23.9303 9.76465C23.7047 9.35862 23.4281 9.01499 23.1246 8.66601C22.735 8.213 22.3596 7.75369 22.0008 7.27556C21.9608 7.22684 21.9208 7.17812 21.8795 7.12793C21.8473 7.12793 21.8151 7.12793 21.7819 7.12793Z" fill="black"/>
<path d="M17.4977 1.97339C18.5016 2.91239 19.0058 4.08951 19.0686 5.45316C19.0724 5.62583 19.0757 5.79851 19.0785 5.9712C19.084 6.10205 19.084 6.10205 19.0896 6.23556C19.0981 6.87314 19.0981 6.87314 18.8115 7.19114C18.5536 7.32618 18.5536 7.32618 18.2972 7.32618C18.0007 7.20132 17.9227 7.12433 17.7723 6.8379C17.7389 6.69613 17.7087 6.5536 17.6808 6.41065C17.5638 5.83615 17.3533 5.4999 16.8812 5.14112C16.376 4.88364 15.8416 4.89103 15.3039 5.0469C14.7837 5.27067 14.5859 5.54729 14.3544 6.05665C14.2514 6.36548 14.2262 6.62984 14.2018 6.95386C14.1895 7.11304 14.1895 7.11305 14.177 7.27544C14.1711 7.35664 14.1652 7.43783 14.1591 7.52149C14.245 7.51809 14.331 7.51469 14.4196 7.51119C14.533 7.50855 14.6465 7.5059 14.7633 7.50318C14.8755 7.49978 14.9876 7.49638 15.1032 7.49288C15.4596 7.52421 15.6352 7.59821 15.9169 7.81446C16.0389 8.07081 16.0389 8.07081 16.0145 8.4004C15.8292 8.72632 15.5754 8.99652 15.3309 9.2793C15.1659 9.47868 15.0021 9.67896 14.8382 9.87921C14.6591 10.0977 14.4794 10.3155 14.2994 10.5332C14.0282 10.8614 13.7575 11.19 13.4877 11.5193C13.4196 11.6014 13.3515 11.6834 13.2813 11.768C13.1439 11.9398 13.0123 12.1163 12.8853 12.296C12.4253 12.9331 12.4253 12.9331 12.1087 13.0818C11.8685 13.1118 11.7432 13.0905 11.5223 12.9902C11.2161 12.7321 10.984 12.4284 10.7411 12.1113C10.597 11.9361 10.4525 11.7611 10.3077 11.5864C10.1591 11.4034 10.0106 11.2203 9.86219 11.0371C9.7158 10.858 9.56932 10.679 9.42274 10.5C9.35098 10.4123 9.27923 10.3245 9.2053 10.2341C9.05135 10.0461 8.89722 9.85812 8.74296 9.67031C8.66516 9.57552 8.58736 9.48073 8.50721 9.38306C8.43697 9.29759 8.36672 9.21211 8.29435 9.12405C8.23166 9.04637 8.16897 8.9687 8.10438 8.88868C8.02035 8.78596 8.02035 8.78596 7.93462 8.68116C7.75721 8.4175 7.77839 8.22251 7.81141 7.91212C8.00672 7.61915 8.00672 7.61915 8.17609 7.55239C8.45553 7.51336 8.72561 7.51232 9.0077 7.51539C9.11294 7.51627 9.21818 7.51715 9.32661 7.51806C9.4467 7.51976 9.4467 7.51976 9.56922 7.52149C9.56718 7.46459 9.56513 7.40769 9.56302 7.34907C9.50043 5.33337 9.68481 3.69296 11.1126 2.15383C12.8868 0.50914 15.6337 0.452878 17.4977 1.97339ZM11.5368 3.63813C10.8091 4.64913 10.7938 5.73499 10.7838 6.93555C10.7815 7.15687 10.7788 7.37816 10.7749 7.59945C10.7714 7.79814 10.7695 7.99684 10.7676 8.19555C10.7411 8.49805 10.7411 8.49805 10.5458 8.69337C10.2865 8.74856 10.029 8.76542 9.76453 8.79102C10.0413 9.22377 10.3435 9.61201 10.6801 9.99952C11.0779 10.463 11.4564 10.933 11.8153 11.4277C12.1494 11.1749 12.4142 10.923 12.6698 10.5916C13.0353 10.123 13.4104 9.6637 13.7894 9.20606C13.9655 8.99964 13.9655 8.99964 14.0614 8.79102C13.7391 8.7588 13.4169 8.72657 13.0848 8.69337C13.0701 8.31153 13.0596 7.92982 13.0527 7.54776C13.0483 7.35546 13.0409 7.16323 13.0333 6.97103C13.0188 6.01329 13.1949 5.22324 13.8473 4.49145C14.524 3.85416 15.341 3.68971 16.2442 3.69649C16.6349 3.72127 17.0046 3.80619 17.3817 3.90821C16.9118 3.09096 16.2315 2.49461 15.3264 2.21143C13.7422 1.87616 12.5473 2.41877 11.5368 3.63813Z" fill="black"/>
</svg>
