<svg width="50" height="50" viewBox="0 0 50 50" fill="none" xmlns="http://www.w3.org/2000/svg">
<g clip-path="url(#clip0_147_2017)">
<path d="M20.1644 0.228756C21.0545 0.878065 21.3164 1.86302 21.5682 2.88989C21.5982 3.00658 21.6282 3.12328 21.659 3.24351C21.7319 3.52815 21.8033 3.81306 21.8734 4.09838C21.9388 4.08706 22.0042 4.07574 22.0715 4.06408C22.3737 4.01201 22.6759 3.96059 22.9782 3.90918C23.1323 3.88246 23.1323 3.88246 23.2896 3.8552C29.1753 2.85916 35.3808 4.37498 40.245 7.79712C40.9233 8.28522 41.5586 8.82049 42.1859 9.37182C42.2724 9.44735 42.3589 9.52288 42.448 9.6007C43.3877 10.4334 44.2502 11.307 45.018 12.3015C45.0683 12.3661 45.1187 12.4306 45.1706 12.4972C48.3658 16.6169 50.0461 21.5771 50.035 26.7852C50.035 26.9266 50.035 26.9266 50.0349 27.071C50.0309 28.6232 49.9413 30.1162 49.6078 31.6374C49.5864 31.7353 49.5649 31.8332 49.5428 31.934C48.7759 35.3104 47.2834 38.5019 45.1156 41.2078C45.0416 41.3017 44.9676 41.3956 44.8913 41.4923C43.6739 42.9857 42.2879 44.38 40.7211 45.5046C40.6196 45.5789 40.5182 45.6532 40.4136 45.7297C37.6352 47.7123 34.4992 49.0485 31.1508 49.7039C31.0717 49.7198 30.9926 49.7358 30.9112 49.7523C28.0893 50.2952 24.8705 50.2156 22.0687 49.6062C21.9241 49.5748 21.9241 49.5748 21.7765 49.5428C18.2479 48.7484 15.0069 47.2058 12.2055 44.9187C12.1448 44.8694 12.0842 44.82 12.0217 44.7692C10.7892 43.7585 9.67028 42.6619 8.68983 41.4031C8.61518 41.3117 8.54053 41.2203 8.46362 41.1261C5.97181 38.0144 4.40625 34.198 3.80702 30.2703C3.79448 30.1892 3.78194 30.1081 3.76902 30.0246C3.37616 27.3345 3.53787 24.5233 4.09999 21.8718C4.02176 21.8512 3.94353 21.8306 3.86293 21.8094C3.56826 21.731 3.27403 21.6511 2.98002 21.5702C2.79193 21.519 2.60339 21.4694 2.41485 21.4198C1.52362 21.1731 0.732734 20.8975 0.187634 20.114C-0.248575 19.1911 -0.0451268 18.263 0.273084 17.343C0.665701 16.2635 1.16113 15.2251 1.65739 14.1902C1.84641 13.7577 1.84641 13.7577 1.76234 13.3086C1.50594 12.5092 1.67765 11.8617 2.04921 11.1296C2.91732 9.54574 3.97633 8.08442 5.17421 6.7351C5.25893 6.63842 5.34365 6.54174 5.43094 6.44213C5.90277 5.91196 6.38687 5.43058 6.93202 4.97729C7.00679 4.91007 7.08157 4.84285 7.15861 4.77359C10.7124 1.65495 10.7124 1.65495 12.5228 1.63867C12.5918 1.63728 12.6608 1.6359 12.7319 1.63447C12.9867 1.65698 12.9867 1.65698 13.3487 1.7821C13.8791 1.91972 14.23 1.6826 14.6896 1.43115C18.6135 -0.563822 18.6135 -0.563822 20.1644 0.228756ZM17.8512 2.31616C17.7718 2.34539 17.6925 2.37462 17.6107 2.40473C16.4255 2.85584 15.2641 3.41322 14.1475 4.01415C13.8464 4.1518 13.6056 4.1321 13.2797 4.09838C13.0838 3.96908 12.8884 3.83894 12.6937 3.70776C12.3254 3.7412 12.0656 3.86588 11.7538 4.05833C11.6693 4.11027 11.5848 4.16222 11.4978 4.21573C11.3647 4.29964 11.3647 4.29964 11.2289 4.38525C11.1372 4.4427 11.0455 4.50015 10.951 4.55934C9.57264 5.4332 8.37622 6.45906 7.22499 7.61401C7.15714 7.67846 7.08928 7.74292 7.01938 7.80932C5.97441 8.81312 5.16867 10.0107 4.39296 11.2273C4.35645 11.2842 4.31994 11.3412 4.28233 11.3998C3.8674 11.9645 3.8674 11.9645 3.73149 12.6128C3.80689 12.805 3.80689 12.805 3.95961 13.0156C4.137 13.3473 4.16569 13.5975 4.09999 13.9617C3.94981 14.332 3.75898 14.6786 3.56898 15.0298C3.13298 15.8679 2.74358 16.7094 2.40931 17.5933C2.37118 17.6918 2.33304 17.7903 2.29375 17.8917C2.25976 17.984 2.22576 18.0762 2.19073 18.1712C2.14592 18.2923 2.14592 18.2923 2.1002 18.4158C2.04099 18.6868 2.07535 18.8718 2.14686 19.1374C2.78222 19.3584 3.42254 19.5441 4.0729 19.7154C4.21735 19.7538 4.21735 19.7538 4.36471 19.7929C4.66906 19.8738 4.97351 19.9542 5.27797 20.0347C5.48568 20.0898 5.69339 20.1449 5.9011 20.2C6.40742 20.3344 6.91383 20.4685 7.4203 20.6023C7.68723 20.2642 7.82541 19.9323 7.96351 19.5281C8.79175 17.2428 10.0911 15.1766 11.7172 13.3757C11.7899 13.2913 11.8627 13.2068 11.9377 13.1198C14.2482 10.4656 17.3382 8.72969 20.6039 7.51635C20.4721 7.00075 20.3401 6.48517 20.2081 5.96961C20.1634 5.79491 20.1187 5.62019 20.074 5.44547C19.9459 4.94447 19.8172 4.44363 19.6878 3.94295C19.6296 3.71646 19.5722 3.48976 19.515 3.26301C19.4808 3.1296 19.4465 2.9962 19.4122 2.8628C19.3828 2.74712 19.3535 2.63144 19.3232 2.51226C19.256 2.23242 19.256 2.23242 19.0414 2.0476C18.5988 2.0476 18.2597 2.16482 17.8512 2.31616ZM22.3617 6.14917C22.3829 6.23622 22.3829 6.23622 22.4044 6.32502C22.7471 7.85502 22.7471 7.85502 22.4086 8.46926C22.2171 8.88867 22.2437 9.22379 22.264 9.677C22.2947 11.1383 21.9356 12.3832 20.9175 13.4658C20.5031 13.8552 20.0355 14.1522 19.5589 14.4593C17.4772 15.8055 15.8199 17.404 14.4882 19.5037C13.6763 20.7767 12.7624 21.8056 11.2289 22.1648C10.6417 22.292 10.0665 22.2628 9.46994 22.2415C8.95792 22.2325 8.65799 22.3031 8.20155 22.5554C7.50924 22.6507 6.82343 22.5235 6.15077 22.3601C4.95931 26.8559 5.70307 32.0109 7.81093 36.1296C7.84493 36.1971 7.87893 36.2646 7.91397 36.3341C8.77462 38.0352 9.82271 39.5765 11.1164 40.9793C11.3233 41.2043 11.5233 41.4343 11.7233 41.6655C12.0847 42.0717 12.4725 42.422 12.889 42.7703C12.9675 42.84 13.0459 42.9097 13.1267 42.9816C17.2819 46.6004 22.8344 48.3282 28.3004 47.9827C30.1436 47.8448 31.947 47.4891 33.6898 46.8718C33.753 46.8501 33.8162 46.8283 33.8813 46.8059C34.9024 46.4532 35.8626 46.0138 36.8148 45.5046C36.874 45.4732 36.9332 45.4417 36.9941 45.4093C38.736 44.4736 40.2644 43.246 41.6976 41.8914C41.8232 41.7737 41.8232 41.7737 41.9513 41.6537C42.6233 41.0051 43.1876 40.2913 43.7484 39.5476C43.8179 39.457 43.8874 39.3663 43.959 39.2729C45.7419 36.8957 46.963 34.0738 47.5814 31.1736C47.5962 31.1046 47.6109 31.0355 47.6261 30.9644C47.6725 30.7336 47.7134 30.5025 47.7523 30.2703C47.7784 30.1147 47.7784 30.1147 47.805 29.9561C47.9609 28.924 47.9865 27.9066 47.9843 26.8645C47.9842 26.7328 47.9842 26.7328 47.9842 26.5984C47.9808 25.1518 47.8815 23.7746 47.557 22.3601C47.5387 22.2775 47.5205 22.1949 47.5016 22.1099C46.6931 18.5352 44.9416 15.2198 42.4263 12.5567C42.2187 12.3363 42.0212 12.1115 41.8258 11.8804C41.4873 11.4927 41.1181 11.1634 40.7211 10.8367C40.6702 10.7944 40.6193 10.752 40.5669 10.7084C39.6804 9.97341 38.7717 9.29327 37.7914 8.68823C37.7267 8.64823 37.662 8.60823 37.5953 8.56702C33.3582 5.99163 27.1965 4.61749 22.3617 6.14917ZM14.6095 13.3303C14.4051 13.5228 14.1985 13.7045 13.9816 13.8823C13.6081 14.2003 13.2978 14.5598 12.9867 14.9382C12.905 15.0369 12.8233 15.1356 12.7391 15.2373C11.5265 16.7265 10.3936 18.4477 9.86171 20.3093C10.6095 20.3743 11.2555 20.1417 11.8469 19.6818C12.3184 19.2636 12.6273 18.7318 12.9623 18.2036C13.5395 17.3176 14.1179 16.4909 14.8422 15.7195C14.8911 15.6671 14.94 15.6147 14.9903 15.5608C16.0287 14.4576 17.1706 13.5812 18.4556 12.7829C19.0602 12.4035 19.6721 12.0127 20.0057 11.3616C20.0438 11.2898 20.0818 11.2181 20.121 11.1441C20.3124 10.709 20.3201 10.335 20.3109 9.8601C18.4479 9.8601 15.8914 12.1138 14.6095 13.3303Z" fill="black"/>
<path d="M34.5306 17.8927C36.7908 19.8647 38.2072 22.5111 38.5723 25.492C38.5997 25.9217 38.6049 26.3493 38.6028 26.7798C38.6021 26.9529 38.6021 26.9529 38.6013 27.1294C38.5589 30.3174 37.1837 33.2816 34.9065 35.5016C33.8901 36.4398 32.4616 37.5321 31.071 37.7601C30.6441 37.6764 30.4598 37.5376 30.1738 37.2108C30.0391 36.8375 30.0374 36.5405 30.1677 36.1671C30.5129 35.7801 30.9453 35.5588 31.4025 35.3229C33.5349 34.2155 35.2024 32.2457 35.9588 29.9629C36.7507 27.4379 36.5918 24.8515 35.4473 22.4647C34.1481 20.0503 32.1452 18.4146 29.5452 17.5574C26.9875 16.8196 24.3678 17.2012 22.0439 18.4455C19.8509 19.6757 18.2457 21.7406 17.5487 24.1492C17.369 24.8142 17.2136 25.4856 17.1855 26.1756C17.1805 26.274 17.1755 26.3725 17.1703 26.4739C17.0946 29.2559 18.2132 31.8066 20.0969 33.8172C20.8958 34.5778 21.8561 35.134 22.8296 35.6391C23.0941 35.7804 23.3038 35.8927 23.4783 36.1411C23.5969 36.5529 23.5847 36.8996 23.4111 37.2901C23.2248 37.523 23.1334 37.6123 22.8496 37.699C22.2162 37.7634 21.8206 37.5737 21.281 37.2779C21.1996 37.2339 21.1182 37.19 21.0344 37.1447C18.2868 35.6184 16.3896 33.105 15.4743 30.1223C14.5497 26.8856 15.0911 23.6218 16.6973 20.7068C16.933 20.3235 17.1906 19.978 17.4785 19.6326C17.5618 19.5277 17.6449 19.4226 17.728 19.3175C18.2956 18.6112 18.9002 18.0308 19.627 17.4842C19.7042 17.4205 19.7815 17.3568 19.8612 17.2912C24.1607 13.8868 30.4725 14.5019 34.5306 17.8927Z" fill="black"/>
<path d="M29.1661 23.5516C30.0237 24.2158 30.5035 25.0302 30.7599 26.0709C30.8666 27.2775 30.7449 28.3357 29.955 29.3023C29.2118 30.1099 28.4148 30.7053 27.2927 30.7816C25.9704 30.8179 24.9331 30.5136 23.93 29.6117C23.1508 28.8022 22.8119 27.7163 22.8287 26.6068C22.9285 25.4509 23.4387 24.5181 24.2699 23.7283C25.6853 22.5694 27.6549 22.5701 29.1661 23.5516ZM25.401 25.5643C25.0317 26.028 24.8744 26.3962 24.9127 26.9925C24.9897 27.5135 25.156 27.917 25.5562 28.2689C26.1243 28.6893 26.6387 28.8003 27.3419 28.7076C27.9841 28.4439 28.4354 27.977 28.7091 27.3404C28.8055 26.681 28.7101 26.1253 28.3184 25.5826C27.9125 25.1344 27.4623 24.9333 26.8658 24.8685C26.2446 24.9306 25.8289 25.099 25.401 25.5643Z" fill="black"/>
<path d="M40.8171 32.6163C41.1242 32.9572 41.3501 33.329 41.5773 33.7263C41.6108 33.7847 41.6442 33.8431 41.6786 33.9032C41.7488 34.0261 41.8188 34.149 41.8886 34.2721C41.9945 34.4586 42.1013 34.6447 42.2081 34.8307C42.2766 34.9508 42.3451 35.071 42.4135 35.1912C42.475 35.299 42.5364 35.4069 42.5997 35.518C43.0632 36.3903 43.0632 36.3903 43.0632 36.8277C42.9349 37.1964 42.7877 37.3605 42.4772 37.5967C42.1132 37.7026 41.8861 37.7204 41.5213 37.6177C41.0316 37.28 40.8129 36.7986 40.5302 36.2845C40.4734 36.1838 40.4165 36.0832 40.358 35.9795C40.243 35.776 40.1288 35.572 40.0154 35.3677C39.7818 34.9537 39.536 34.5473 39.2888 34.1413C39.0883 33.7528 39.0742 33.5332 39.1569 33.1045C39.3428 32.7757 39.4868 32.6473 39.8222 32.4759C40.2203 32.4056 40.446 32.4582 40.8171 32.6163Z" fill="black"/>
<path d="M37.0117 10.6452C37.2829 10.7811 37.3885 10.8937 37.5977 11.1334C37.7154 11.5144 37.7191 11.7338 37.6099 12.1161C37.0916 12.8326 36.1219 13.2264 35.3638 13.6481C35.1646 13.7594 34.9655 13.8708 34.7664 13.9823C34.6794 14.0307 34.5924 14.0791 34.5028 14.129C34.326 14.2305 34.154 14.3406 33.9844 14.4538C33.4933 14.5328 33.1225 14.5333 32.7087 14.2462C32.4948 13.9288 32.4219 13.7621 32.4219 13.3795C32.5516 12.8414 32.7441 12.6442 33.215 12.3541C33.4195 12.2382 33.6251 12.1244 33.8318 12.0123C33.9324 11.956 34.0331 11.8996 34.1368 11.8414C34.3402 11.7274 34.5441 11.6143 34.7486 11.502C35.1633 11.2702 35.5696 11.0248 35.9755 10.7778C36.3682 10.5735 36.5774 10.5553 37.0117 10.6452Z" fill="black"/>
<path d="M20.5106 39.1572C20.7863 39.2798 20.9464 39.3803 21.127 39.6211C21.2505 40.025 21.2602 40.3806 21.0828 40.767C20.8585 41.0705 20.6376 41.2009 20.3088 41.385C20.2508 41.4179 20.1929 41.4507 20.1332 41.4845C19.9483 41.5888 19.7626 41.6914 19.5768 41.794C19.4546 41.8628 19.3324 41.9317 19.2104 42.0007C17.3354 43.0564 17.3354 43.0564 16.818 43.0818C16.429 42.9369 16.1988 42.7502 16.0184 42.3799C15.9525 42.0838 15.9737 41.9113 16.0184 41.5987C16.2814 41.2028 16.5608 40.9913 16.9717 40.7594C17.1357 40.6659 17.1357 40.6659 17.303 40.5706C17.418 40.5064 17.533 40.4421 17.648 40.3779C17.76 40.3144 17.872 40.2508 17.9874 40.1853C18.2063 40.0612 18.4256 39.9378 18.6453 39.8151C18.835 39.7089 19.0241 39.6016 19.2124 39.4927C19.2895 39.4485 19.3665 39.4043 19.4459 39.3587C19.5115 39.3205 19.5771 39.2824 19.6447 39.2431C19.9462 39.1011 20.1863 39.1074 20.5106 39.1572Z" fill="black"/>
<path d="M42.0867 24.9C42.5032 25.0832 42.891 25.3108 43.283 25.5409C43.3874 25.6004 43.4917 25.6598 43.5993 25.7211C43.9109 25.9 44.2198 26.0827 44.5281 26.2672C44.6294 26.3269 44.7307 26.3865 44.835 26.448C44.9306 26.506 45.0263 26.5641 45.1248 26.6239C45.2098 26.6751 45.2949 26.7263 45.3825 26.7791C45.7454 27.0625 45.8814 27.3274 45.9381 27.7809C45.8869 28.1902 45.8107 28.3364 45.5047 28.6109C45.1857 28.7704 44.9643 28.8456 44.6126 28.749C43.9212 28.4688 43.2884 28.1136 42.6483 27.732C42.5458 27.6719 42.4433 27.6117 42.3377 27.5497C40.9726 26.7444 40.9726 26.7444 40.7196 26.3649C40.6663 26.0655 40.6665 25.7854 40.7196 25.4859C41.1041 25.0002 41.466 24.7782 42.0867 24.9Z" fill="black"/>
<path d="M9.17956 24.9024C9.65404 25.1155 10.0953 25.3799 10.5406 25.647C10.6613 25.7175 10.782 25.7878 10.9029 25.8579C11.2425 26.0562 11.5785 26.2597 11.9139 26.4649C12.0046 26.5192 12.0952 26.5736 12.1886 26.6296C12.2673 26.6787 12.346 26.7278 12.427 26.7784C12.4939 26.8198 12.5608 26.8611 12.6298 26.9037C12.8421 27.0952 12.9067 27.267 12.9882 27.5391C12.9806 27.9614 12.9341 28.1653 12.6769 28.5034C12.3629 28.7407 12.2088 28.8086 11.8163 28.8086C11.3492 28.6275 10.9207 28.4072 10.485 28.159C10.4264 28.1256 10.3678 28.0923 10.3075 28.0579C10.1848 27.9879 10.0622 27.9178 9.93969 27.8474C9.7534 27.7406 9.56664 27.6345 9.37983 27.5286C9.2599 27.46 9.13999 27.3914 9.02011 27.3228C8.85864 27.2305 8.85864 27.2305 8.6939 27.1363C7.97386 26.6902 7.97386 26.6902 7.81237 26.3672C7.75816 25.9148 7.75022 25.5877 7.99548 25.1953C8.3577 24.8544 8.69901 24.8076 9.17956 24.9024Z" fill="black"/>
<path d="M27.9911 7.76414C28.354 7.83864 28.5053 8.00056 28.7117 8.30011C28.8766 8.71794 28.7728 9.06796 28.614 9.47198C28.4095 9.86768 28.183 10.2493 27.9548 10.6317C27.8657 10.7837 27.8657 10.7837 27.7748 10.9387C26.6619 12.8245 26.6619 12.8245 26.1726 12.9876C25.8903 13.0101 25.6583 12.9863 25.3914 12.89C25.0652 12.6046 24.9274 12.4166 24.8359 11.9927C24.9004 11.635 24.9848 11.4439 25.1602 11.1325C25.2132 11.0377 25.2662 10.9428 25.3208 10.8451C25.4041 10.6971 25.4041 10.6971 25.489 10.5462C25.595 10.3532 25.7009 10.1602 25.8068 9.96713C25.9144 9.77355 26.0221 9.58002 26.1299 9.38653C26.1837 9.28834 26.2375 9.19015 26.293 9.08899C27.0607 7.71561 27.0607 7.71561 27.9911 7.76414Z" fill="black"/>
<path d="M28.1221 40.7211C28.4707 40.8954 28.6724 41.1151 28.8118 41.4841C28.7955 42.3151 28.2573 43.0549 27.8475 43.7485C27.759 43.901 27.759 43.901 27.6687 44.0567C26.7967 45.5435 26.7967 45.5435 26.2667 45.8969C25.7818 45.9418 25.4794 45.9116 25.0948 45.6039C24.8429 45.2681 24.8742 44.9374 24.8995 44.5297C25.0231 44.2256 25.0231 44.2256 25.1959 43.9205C25.2589 43.8081 25.3219 43.6958 25.3868 43.58C25.4368 43.4935 25.4368 43.4935 25.4878 43.4053C25.5879 43.2319 25.6859 43.0575 25.7835 42.8827C27.1065 40.5352 27.1065 40.5352 28.1221 40.7211Z" fill="black"/>
<path d="M39.3867 17.5624C39.5129 17.5601 39.5129 17.5601 39.6416 17.5577C40.0257 17.5533 40.4099 17.5493 40.794 17.5471C40.9964 17.5455 41.1989 17.5428 41.4012 17.5391C41.6936 17.5337 41.9859 17.5316 42.2783 17.5301C42.3684 17.5279 42.4584 17.5257 42.5512 17.5234C42.9813 17.5248 43.2717 17.5399 43.6137 17.8164C43.9479 18.1727 43.9479 18.1727 43.9507 18.4625C43.896 19.084 43.896 19.084 43.668 19.3879C43.3659 19.6011 43.1181 19.6445 42.7581 19.6493C42.6759 19.6506 42.5938 19.6518 42.5091 19.6531C42.4206 19.6538 42.3321 19.6546 42.2409 19.6553C42.1495 19.6561 42.0581 19.6569 41.9639 19.6577C41.7705 19.6591 41.577 19.6601 41.3835 19.6609C41.0883 19.6625 40.7933 19.6668 40.4982 19.6711C40.3101 19.6721 40.1219 19.673 39.9338 19.6736C39.8459 19.6753 39.758 19.677 39.6674 19.6788C39.1121 19.6769 38.8077 19.6065 38.3824 19.2414C38.2134 18.9035 38.2375 18.5367 38.2847 18.1672C38.5764 17.6843 38.8391 17.5717 39.3867 17.5624Z" fill="black"/>
<path d="M11.2883 34.0095C11.3883 34.0091 11.4884 34.0088 11.5914 34.0085C11.8025 34.0085 12.0137 34.01 12.2248 34.0128C12.5476 34.0167 12.8701 34.0148 13.193 34.0123C13.3984 34.0131 13.6037 34.0141 13.8091 34.0156C13.9536 34.0145 13.9536 34.0145 14.101 34.0135C14.5611 34.0229 14.7742 34.0297 15.1463 34.32C15.4201 34.6919 15.4742 34.8893 15.4296 35.3534C15.2563 35.6998 15.1436 35.8928 14.7856 36.0519C14.3785 36.1531 14.0044 36.1645 13.5867 36.164C13.4635 36.1646 13.4635 36.1646 13.3379 36.1653C13.165 36.1658 12.9921 36.1659 12.8191 36.1655C12.5559 36.1651 12.2929 36.1674 12.0297 36.1699C11.861 36.1701 11.6924 36.1702 11.5237 36.1701C11.4457 36.171 11.3678 36.1719 11.2875 36.1728C10.7746 36.1686 10.4139 36.088 9.9608 35.8417C9.76494 35.5479 9.73261 35.463 9.72276 35.1275C9.71886 35.0554 9.71496 34.9833 9.71094 34.909C9.91179 34.0283 10.5133 33.9975 11.2883 34.0095Z" fill="black"/>
<path d="M35.453 38.285C35.7479 38.4428 35.9921 38.6343 36.1024 38.9614C36.1611 39.309 36.1546 39.6596 36.1564 40.0111C36.157 40.0935 36.1576 40.1759 36.1581 40.2607C36.159 40.4348 36.1597 40.6089 36.1601 40.783C36.161 41.0479 36.164 41.3128 36.1671 41.5776C36.1678 41.7472 36.1683 41.9168 36.1686 42.0863C36.1699 42.1649 36.1711 42.2434 36.1723 42.3244C36.1703 42.8406 36.0871 43.1983 35.8436 43.6561C35.579 43.8778 35.4089 43.9411 35.0685 43.9918C34.6901 43.9377 34.4809 43.7936 34.1835 43.5584C34.0693 43.33 34.0717 43.1909 34.0685 42.9363C34.0673 42.848 34.066 42.7596 34.0647 42.6686C34.064 42.5729 34.0633 42.4772 34.0626 42.3785C34.0618 42.2803 34.061 42.182 34.0602 42.0807C34.0588 41.8725 34.0578 41.6642 34.057 41.4559C34.0553 41.1376 34.051 40.8194 34.0467 40.5011C34.0457 40.2989 34.0449 40.0967 34.0442 39.8944C34.0425 39.7993 34.0408 39.7042 34.0391 39.6061C34.0404 39.1795 34.044 38.9389 34.2715 38.5689C34.6296 38.2435 34.9828 38.2065 35.453 38.285Z" fill="black"/>
<path d="M30.6649 31.7396C30.9393 31.9148 31.1053 32.0344 31.2508 32.3256C31.2847 32.8425 31.301 33.1785 30.9579 33.5951C30.5872 33.8264 30.3165 33.8058 29.8959 33.7443C29.5859 33.6673 29.4653 33.5745 29.2977 33.3021C29.181 32.9119 29.1562 32.6249 29.316 32.2462C29.7055 31.7762 30.0442 31.6251 30.6649 31.7396Z" fill="black"/>
<path d="M23.829 31.7396C24.1034 31.9148 24.2693 32.0344 24.4149 32.3256C24.4488 32.8425 24.465 33.1785 24.1219 33.5951C23.7512 33.8264 23.4806 33.8058 23.0599 33.7443C22.7499 33.6673 22.6294 33.5745 22.4618 33.3021C22.345 32.9119 22.3202 32.6249 22.4801 32.2462C22.8695 31.7762 23.2083 31.6251 23.829 31.7396Z" fill="black"/>
<path d="M33.3022 29.2942C33.573 29.4608 33.6654 29.5827 33.7478 29.8889C33.8075 30.2629 33.8186 30.4979 33.6685 30.8506C33.4712 31.0831 33.3083 31.2306 33.0009 31.2802C32.6017 31.287 32.3822 31.2815 32.0327 31.0703C31.7815 30.7956 31.7448 30.608 31.7031 30.2403C31.7519 29.7605 31.887 29.6273 32.228 29.2942C32.6048 29.1686 32.9234 29.1987 33.3022 29.2942Z" fill="black"/>
<path d="M33.3016 22.4603C33.5724 22.627 33.6648 22.7488 33.7472 23.0551C33.8064 23.4255 33.8161 23.6651 33.674 24.0167C33.3675 24.3655 33.1891 24.4056 32.7218 24.4501C32.3206 24.4411 32.1192 24.3138 31.8368 24.0228C31.679 23.7073 31.6816 23.3873 31.7391 23.0463C32.1065 22.3839 32.596 22.2825 33.3016 22.4603Z" fill="black"/>
<path d="M30.4574 19.8813C30.7686 19.9438 30.9417 20.0863 31.1562 20.3142C31.3144 20.6306 31.3091 20.9488 31.2539 21.2908C31.123 21.5649 31.0051 21.6678 30.7656 21.8767C30.3664 22.0001 30.1594 22.0012 29.7646 21.8645C29.4593 21.6563 29.3338 21.5391 29.2031 21.1931C29.2031 20.7216 29.235 20.5105 29.4961 20.1189C29.8428 19.8878 30.0486 19.8588 30.4574 19.8813Z" fill="black"/>
<path d="M7.71662 14.5493C8.05943 14.8027 8.18323 14.9631 8.30255 15.3733C8.30255 15.773 8.22638 15.9742 8.00958 16.3071C7.61714 16.5688 7.299 16.5704 6.83771 16.5024C6.55741 16.3272 6.3991 16.2112 6.25177 15.9165C6.21068 15.6177 6.2049 15.3358 6.25177 15.0376C6.68336 14.4777 7.03823 14.3856 7.71662 14.5493Z" fill="black"/>
<path d="M27.3438 36.6175C27.5765 36.8025 27.7002 36.9398 27.832 37.2035C27.8888 37.8958 27.8888 37.8958 27.6489 38.2716C27.357 38.5549 27.2875 38.5687 26.8677 38.589C26.3231 38.5781 26.3231 38.5781 26.0742 38.3753C25.8504 38.0435 25.7812 37.8434 25.7812 37.4415C25.8971 37.0433 26.0511 36.8797 26.3672 36.6175C26.685 36.4586 27.011 36.5306 27.3438 36.6175Z" fill="black"/>
<path d="M27.3438 32.7113C27.5765 32.8963 27.7002 33.0336 27.832 33.2972C27.8888 33.9896 27.8888 33.9896 27.6489 34.3653C27.357 34.6487 27.2875 34.6624 26.8677 34.6827C26.3231 34.6719 26.3231 34.6719 26.0742 34.4691C25.8504 34.1373 25.7812 33.9372 25.7812 33.5353C25.8971 33.1371 26.0511 32.9734 26.3672 32.7113C26.685 32.5524 27.011 32.6243 27.3438 32.7113Z" fill="black"/>
<path d="M21.3885 29.2993C21.7345 29.555 21.8559 29.7147 21.9744 30.1294C21.9744 30.5999 21.8289 30.8011 21.5167 31.1365C21.185 31.3068 20.8699 31.3189 20.5096 31.2524C20.2352 31.0773 20.0692 30.9576 19.9236 30.6665C19.8826 30.3677 19.8768 30.0858 19.9236 29.7876C20.3552 29.2277 20.7101 29.1356 21.3885 29.2993Z" fill="black"/>
<path d="M34.1797 25.8753C34.4124 26.0603 34.5361 26.1976 34.668 26.4613C34.7247 27.1536 34.7247 27.1536 34.4849 27.5294C34.1929 27.8128 34.1234 27.8265 33.7036 27.8468C33.159 27.836 33.159 27.836 32.9102 27.6332C32.6864 27.3014 32.6172 27.1013 32.6172 26.6993C32.733 26.3011 32.887 26.1375 33.2031 25.8753C33.5209 25.7164 33.8469 25.7884 34.1797 25.8753Z" fill="black"/>
<path d="M20.5078 25.8753C20.7405 26.0603 20.8643 26.1976 20.9961 26.4613C21.0528 27.1536 21.0528 27.1536 20.813 27.5294C20.521 27.8128 20.4515 27.8265 20.0317 27.8468C19.4872 27.836 19.4872 27.836 19.2383 27.6332C19.0145 27.3014 18.9453 27.1013 18.9453 26.6993C19.0611 26.3011 19.2151 26.1375 19.5312 25.8753C19.849 25.7164 20.1751 25.7884 20.5078 25.8753Z" fill="black"/>
<path d="M27.3438 19.0394C27.5765 19.2244 27.7002 19.3617 27.832 19.6253C27.8888 20.3177 27.8888 20.3177 27.6489 20.6935C27.357 20.9768 27.2875 20.9905 26.8677 21.0108C26.3231 21 26.3231 21 26.0742 20.7972C25.8504 20.4654 25.7812 20.2653 25.7812 19.8634C25.8971 19.4652 26.0511 19.3016 26.3672 19.0394C26.685 18.8805 27.011 18.9524 27.3438 19.0394Z" fill="black"/>
<path d="M21.3885 22.4634C21.7058 22.7048 21.8492 22.8633 21.9683 23.2446C21.9777 23.6968 21.8764 23.92 21.5716 24.2517C21.2063 24.4661 20.9238 24.5019 20.5096 24.4165C20.2352 24.2413 20.0692 24.1217 19.9236 23.8306C19.8826 23.5318 19.8768 23.2499 19.9236 22.9517C20.3552 22.3918 20.7101 22.2996 21.3885 22.4634Z" fill="black"/>
<path d="M23.6136 19.8813C23.9248 19.9438 24.098 20.0863 24.3125 20.3142C24.4707 20.6306 24.4654 20.9488 24.4102 21.2908C24.2793 21.5649 24.1614 21.6678 23.9219 21.8767C23.5226 22.0001 23.3156 22.0012 22.9209 21.8645C22.6156 21.6563 22.4901 21.5391 22.3594 21.1931C22.3594 20.7216 22.3913 20.5105 22.6523 20.1189C22.999 19.8878 23.2049 19.8588 23.6136 19.8813Z" fill="black"/>
<path d="M15.7074 6.20726C16.0186 6.26983 16.1917 6.4123 16.4063 6.64022C16.5765 6.98066 16.5597 7.343 16.5039 7.71444C16.2575 8.07292 16.0966 8.17916 15.6799 8.30038C15.2717 8.30038 15.0793 8.24219 14.7461 8.00741C14.5113 7.67418 14.4531 7.48184 14.4531 7.07357C14.6534 6.38515 15.021 6.1695 15.7074 6.20726Z" fill="black"/>
</g>
<defs>
<clipPath id="clip0_147_2017">
<rect width="50" height="50" fill="white"/>
</clipPath>
</defs>
</svg>
