<svg width="50" height="50" viewBox="0 0 50 50" fill="none" xmlns="http://www.w3.org/2000/svg">
<path d="M7.15637 33.1646C7.27885 33.1619 7.40134 33.1591 7.52754 33.1562C8.32958 33.2514 8.89861 33.7267 9.51232 34.2206C9.66715 34.3431 9.82202 34.4655 9.97695 34.5879C10.0549 34.6498 10.1329 34.7116 10.2132 34.7754C10.5746 35.0604 10.9405 35.3394 11.3068 35.6183C11.4442 35.7231 11.5817 35.828 11.7191 35.933C11.7845 35.9828 11.8498 36.0327 11.9172 36.0841C12.4044 36.4564 12.89 36.831 13.3758 37.2052C13.4811 37.2862 13.5864 37.3672 13.6917 37.4482C13.7443 37.4886 13.7969 37.5291 13.851 37.5707C13.9572 37.6524 14.0634 37.734 14.1696 37.8156C14.4334 38.0183 14.6968 38.2215 14.9593 38.4259C15.5206 38.8619 16.0875 39.288 16.6656 39.7015C16.7243 39.7435 16.7829 39.7855 16.8434 39.8287C17.4393 40.2519 17.8265 40.2764 18.5516 40.2325C18.8942 40.1488 18.8942 40.1488 19.1376 40.0372C19.0892 39.9526 19.0409 39.868 18.9911 39.7809C18.7197 39.1375 18.7217 38.3551 18.9407 37.698C19.0579 37.4564 19.1856 37.2342 19.3329 37.0099C19.3893 36.9192 19.4457 36.8286 19.5038 36.7352C20.1007 36.1548 20.8554 35.9324 21.6484 35.7514C21.7994 35.7153 21.7994 35.7153 21.9535 35.6785C22.284 35.6001 22.6151 35.5236 22.9462 35.4474C23.1791 35.3928 23.4121 35.3381 23.6451 35.2835C24.2521 35.1418 24.8598 35.0033 25.4678 34.8661C25.7173 34.8097 25.9666 34.7528 26.2159 34.6954C26.5837 34.6108 26.9519 34.5275 27.3201 34.4445C27.4843 34.4063 27.4843 34.4063 27.6519 34.3674C29.571 33.9405 31.2069 34.0194 32.9071 35.0567C32.9906 35.1276 33.074 35.1985 33.16 35.2715C34.1725 36.1196 35.456 35.955 36.7157 35.9356C36.7112 35.8556 36.7066 35.7755 36.702 35.693C36.6984 35.5878 36.6949 35.4825 36.6913 35.3741C36.6867 35.2699 36.6822 35.1656 36.6775 35.0583C36.7157 34.7638 36.7157 34.7638 36.8707 34.5532C37.1887 34.3102 37.3919 34.3236 37.7899 34.3226C37.8579 34.3219 37.9259 34.3212 37.996 34.3205C38.2203 34.3188 38.4445 34.3199 38.6688 34.3213C38.825 34.321 38.9811 34.3206 39.1373 34.3201C39.4643 34.3196 39.7913 34.3204 40.1184 34.3222C40.5374 34.3244 40.9564 34.3232 41.3754 34.3208C41.6978 34.3194 42.0202 34.3199 42.3426 34.3209C42.4971 34.3211 42.6515 34.3208 42.806 34.3199C43.0221 34.3189 43.2379 34.3204 43.454 34.3226C43.6383 34.3231 43.6383 34.3231 43.8263 34.3235C44.1376 34.3731 44.1376 34.3731 44.3756 34.5472C44.5282 34.7638 44.5282 34.7638 44.5282 35.1544C44.6326 35.1523 44.7371 35.1503 44.8447 35.1482C45.2327 35.1411 45.6207 35.1366 46.0088 35.1329C46.1766 35.131 46.3445 35.1283 46.5123 35.1249C46.7538 35.1202 46.9951 35.118 47.2366 35.1162C47.3489 35.1132 47.3489 35.1132 47.4635 35.1101C47.8039 35.11 48.004 35.1256 48.2835 35.3277C48.522 35.6711 48.5443 35.9818 48.5458 36.3932C48.5464 36.4848 48.5469 36.5764 48.5475 36.6708C48.5476 36.7706 48.5477 36.8703 48.5478 36.9732C48.5483 37.0788 48.5488 37.1844 48.5493 37.2933C48.5507 37.643 48.5514 37.9926 48.5519 38.3423C48.5525 38.5854 48.5531 38.8284 48.5536 39.0714C48.5546 39.5811 48.5552 40.0908 48.5555 40.6006C48.5559 41.1237 48.5573 41.6469 48.5596 42.17C48.5622 42.8018 48.5635 43.4335 48.5637 44.0653C48.564 44.3059 48.5648 44.5466 48.5661 44.7872C48.5677 45.1241 48.5675 45.4609 48.5669 45.7977C48.5678 45.8969 48.5687 45.9961 48.5696 46.0983C48.5663 46.6587 48.514 47.0637 48.2391 47.5567C47.9293 47.7117 47.5957 47.6662 47.2557 47.6639C47.1779 47.6638 47.1002 47.6636 47.0201 47.6635C46.7713 47.663 46.5225 47.6617 46.2738 47.6605C46.1053 47.66 45.9368 47.6596 45.7683 47.6592C45.355 47.6581 44.9416 47.6564 44.5282 47.6544C44.5181 47.747 44.508 47.8397 44.4977 47.9352C44.4305 48.2403 44.4305 48.2403 44.1376 48.4356C43.838 48.4618 43.838 48.4618 43.4651 48.464C43.3971 48.4647 43.3291 48.4653 43.259 48.466C43.0342 48.4679 42.8094 48.4682 42.5846 48.4684C42.4283 48.4691 42.272 48.4697 42.1157 48.4704C41.7881 48.4716 41.4605 48.4719 41.1328 48.4718C40.713 48.4718 40.2933 48.4745 39.8735 48.4778C39.5507 48.48 39.2279 48.4804 38.9051 48.4803C38.7504 48.4805 38.5956 48.4814 38.4408 48.4829C38.2243 48.4848 38.008 48.4843 37.7915 48.4831C37.6067 48.4835 37.6067 48.4835 37.4183 48.4839C37.1063 48.4356 37.1063 48.4356 36.8682 48.2618C36.7157 48.045 36.7157 48.045 36.7157 47.6544C36.5671 47.6549 36.5671 47.6549 36.4155 47.6555C34.002 47.6642 31.5884 47.6706 29.1749 47.6746C28.0078 47.6766 26.8406 47.6794 25.6734 47.6839C24.6558 47.6878 23.6382 47.6903 22.6206 47.6911C22.0821 47.6917 21.5436 47.6928 21.005 47.6957C20.4975 47.6984 19.99 47.6992 19.4824 47.6986C19.2968 47.6987 19.1111 47.6994 18.9255 47.701C16.7216 47.7179 15.4255 47.0066 13.8644 45.4988C13.5419 45.1886 13.2145 44.8837 12.8876 44.5782C12.7563 44.4551 12.6251 44.3321 12.4939 44.209C12.1211 43.8595 11.7476 43.5107 11.3739 43.1622C10.8027 42.6295 10.2326 42.0956 9.663 41.5612C9.16514 41.0942 8.6664 40.6283 8.16707 40.1629C7.84367 39.8614 7.52096 39.5591 7.19909 39.256C7.12979 39.1907 7.06049 39.1255 6.98909 39.0584C6.85686 38.9339 6.72473 38.8093 6.59274 38.6845C6.29642 38.4057 5.99763 38.1347 5.68466 37.8746C5.42231 37.652 5.2235 37.431 5.03845 37.138C4.99137 37.0651 4.94428 36.9923 4.89578 36.9172C4.54553 36.3001 4.58255 35.397 4.7409 34.7165C5.0124 34.0994 5.58961 33.5849 6.18133 33.2791C6.51332 33.1801 6.81005 33.1682 7.15637 33.1646ZM6.54601 35.0628C6.32573 35.338 6.32573 35.338 6.27136 35.6732C6.44459 36.5249 7.31482 37.0911 7.93456 37.6545C8.33264 38.0169 8.7242 38.3859 9.11559 38.7555C9.6413 39.2512 10.1679 39.7459 10.6964 40.2386C11.5267 41.0127 12.3546 41.7894 13.1825 42.5661C13.2476 42.6271 13.3126 42.6881 13.3797 42.751C13.4446 42.8119 13.5096 42.8729 13.5765 42.9357C13.7067 43.0577 13.8369 43.1796 13.9673 43.3014C14.2929 43.6057 14.6167 43.9116 14.9372 44.2212C16.1932 45.4276 17.2405 46.111 19.0416 46.1036C19.1175 46.1037 19.1935 46.1038 19.2717 46.1039C19.5247 46.104 19.7776 46.1035 20.0306 46.103C20.2125 46.1029 20.3944 46.103 20.5764 46.103C21.0693 46.103 21.5621 46.1025 22.055 46.1018C22.5705 46.1012 23.0859 46.1011 23.6014 46.101C24.577 46.1007 25.5527 46.0999 26.5283 46.0989C27.8471 46.0976 29.1658 46.0971 30.4845 46.0965C32.5616 46.0956 34.6386 46.0937 36.7157 46.0919C36.7157 43.256 36.7157 40.42 36.7157 37.4981C35.0721 37.4498 35.0721 37.4498 33.3954 37.4005C32.348 36.8509 32.348 36.8509 31.9 36.4571C31.0919 35.8154 30.1499 35.6981 29.1532 35.7916C28.4632 35.8837 27.7875 36.0449 27.1095 36.2004C26.9484 36.2368 26.7873 36.2732 26.6261 36.3095C26.2906 36.3853 25.9553 36.4617 25.6201 36.5386C25.1915 36.6367 24.7626 36.7334 24.3336 36.8298C24.0017 36.9044 23.67 36.9799 23.3383 37.0555C23.1802 37.0914 23.0221 37.1272 22.8639 37.1627C22.6429 37.2124 22.4222 37.2631 22.2016 37.314C22.0763 37.3426 21.951 37.3711 21.8219 37.4005C21.2511 37.5641 20.8091 37.7526 20.5048 38.2794C20.4327 38.7806 20.4327 38.7806 20.6047 39.2376C20.8136 39.5009 20.9651 39.6373 21.286 39.7442C22.0307 39.8024 22.7572 39.6889 23.4909 39.5733C23.6052 39.556 23.7195 39.5387 23.8372 39.5208C24.1995 39.4657 24.5616 39.4098 24.9237 39.3536C25.2872 39.2976 25.6508 39.2417 26.0144 39.1864C26.2399 39.1521 26.4653 39.1173 26.6906 39.0821C26.793 39.0665 26.8954 39.0508 27.0009 39.0347C27.135 39.0139 27.135 39.0139 27.2719 38.9926C28.121 38.8973 28.121 38.8973 28.5126 39.1583C28.6635 39.4602 28.6389 39.7046 28.6102 40.0372C28.3335 40.3931 28.1121 40.4855 27.6727 40.5513C27.5627 40.5686 27.4528 40.5858 27.3395 40.6036C27.2206 40.6205 27.1018 40.6374 26.9794 40.6548C26.856 40.6735 26.7326 40.6922 26.6055 40.7115C26.3437 40.7512 26.0817 40.7897 25.8196 40.8274C25.4887 40.8751 25.1581 40.9248 24.8275 40.9752C23.5941 41.1629 22.3746 41.3308 21.1278 41.3818C20.6547 41.4142 20.2203 41.5239 19.7662 41.6546C18.519 41.9786 17.396 42.1047 16.2079 41.502C15.9128 41.311 15.6428 41.0967 15.3717 40.8734C15.2187 40.7509 15.0656 40.6284 14.9124 40.506C14.8357 40.4442 14.759 40.3823 14.6799 40.3186C14.321 40.0316 13.9554 39.7537 13.5895 39.4757C13.452 39.3708 13.3145 39.2659 13.1771 39.161C13.1118 39.1111 13.0464 39.0612 12.9791 39.0099C12.4918 38.6375 12.0062 38.2629 11.5204 37.8888C11.4151 37.8078 11.3098 37.7268 11.2045 37.6458C11.1519 37.6053 11.0994 37.5649 11.0452 37.5232C10.939 37.4415 10.8327 37.3598 10.7264 37.2781C10.464 37.0764 10.2019 36.8744 9.94033 36.6715C9.67853 36.4685 9.4154 36.2673 9.15183 36.0666C8.96665 35.9244 8.78334 35.7798 8.59985 35.6354C8.47072 35.536 8.34153 35.4367 8.21227 35.3375C8.15306 35.29 8.09385 35.2426 8.03284 35.1937C7.53811 34.819 7.09385 34.6782 6.54601 35.0628ZM38.2782 35.9356C38.2782 39.545 38.2782 43.1544 38.2782 46.8731C39.8251 46.8731 41.3719 46.8731 42.9657 46.8731C42.9657 43.2638 42.9657 39.6544 42.9657 35.9356C41.4188 35.9356 39.8719 35.9356 38.2782 35.9356ZM44.5282 36.7169C44.5282 39.8106 44.5282 42.9044 44.5282 46.0919C45.3016 46.0919 46.0751 46.0919 46.8719 46.0919C46.8719 42.9981 46.8719 39.9044 46.8719 36.7169C46.0985 36.7169 45.3251 36.7169 44.5282 36.7169Z" fill="black"/>
<path d="M6.53074 1.53577C6.59874 1.53512 6.66673 1.53446 6.73679 1.53379C6.9616 1.53193 7.18638 1.53155 7.4112 1.53134C7.56749 1.53071 7.72378 1.53006 7.88006 1.52937C8.2077 1.5282 8.53532 1.52784 8.86295 1.52795C9.28276 1.52797 9.70251 1.52531 10.1223 1.52194C10.4451 1.51977 10.7679 1.51938 11.0907 1.51948C11.2454 1.51925 11.4002 1.51839 11.555 1.51688C11.7715 1.51496 11.9878 1.51552 12.2043 1.5167C12.3275 1.51642 12.4507 1.51614 12.5775 1.51586C12.8895 1.56415 12.8895 1.56415 13.1276 1.73801C13.2801 1.95477 13.2801 1.95477 13.2801 2.3454C13.4287 2.34486 13.4287 2.34486 13.5803 2.34431C15.9938 2.33562 18.4073 2.32921 20.8209 2.32516C21.988 2.32315 23.1552 2.3204 24.3224 2.31593C25.34 2.31203 26.3576 2.30951 27.3752 2.30864C27.9137 2.30814 28.4522 2.30695 28.9908 2.3041C29.4983 2.30143 30.0058 2.30063 30.5134 2.30121C30.699 2.30111 30.8847 2.30034 31.0703 2.29883C33.2742 2.28185 34.5703 2.99323 36.1314 4.50103C36.4539 4.8112 36.7813 5.11608 37.1082 5.42157C37.2395 5.54464 37.3707 5.66772 37.5019 5.79083C37.8747 6.14033 38.2482 6.48906 38.6219 6.83758C39.1931 7.3703 39.7631 7.90423 40.3328 8.43861C40.8307 8.90554 41.3294 9.37152 41.8287 9.83689C42.1521 10.1384 42.4748 10.4407 42.7967 10.7438C42.866 10.809 42.9353 10.8743 43.0067 10.9414C43.1389 11.0659 43.2711 11.1905 43.403 11.3153C43.6994 11.5941 43.9982 11.8651 44.3111 12.1251C44.5735 12.3478 44.7723 12.5688 44.9573 12.8618C45.028 12.9711 45.028 12.9711 45.1 13.0826C45.4503 13.6997 45.4132 14.6028 45.2549 15.2833C44.9834 15.9004 44.4062 16.4149 43.8145 16.7207C43.4825 16.8197 43.1857 16.8316 42.8394 16.8351C42.7169 16.8379 42.5945 16.8407 42.4683 16.8435C41.6662 16.7484 41.0972 16.273 40.4835 15.7792C40.3286 15.6567 40.1738 15.5343 40.0188 15.4119C39.9409 15.35 39.8629 15.2882 39.7826 15.2244C39.4212 14.9394 39.0553 14.6604 38.689 14.3815C38.5516 14.2766 38.4141 14.1717 38.2767 14.0668C38.2113 14.017 38.146 13.9671 38.0786 13.9157C37.5914 13.5434 37.1058 13.1688 36.6199 12.7946C36.3555 12.5912 36.0911 12.3878 35.8266 12.1844C35.5608 11.98 35.2951 11.7754 35.0296 11.5705C34.7138 11.3268 34.3976 11.0839 34.0809 10.8415C34.027 10.8002 33.9731 10.7589 33.9176 10.7164C33.7587 10.595 33.5994 10.474 33.44 10.3532C33.3472 10.2827 33.2545 10.2122 33.1589 10.1396C32.5837 9.7321 32.1408 9.715 31.4442 9.76727C31.1016 9.85098 31.1016 9.85098 30.8582 9.96258C30.9066 10.0472 30.9549 10.1318 31.0047 10.2189C31.2761 10.8623 31.2741 11.6447 31.0551 12.3018C30.9379 12.5434 30.8102 12.7656 30.6629 12.9899C30.5783 13.1259 30.5783 13.1259 30.492 13.2646C29.8951 13.845 29.1404 14.0674 28.3474 14.2484C28.2467 14.2724 28.1461 14.2965 28.0423 14.3212C27.7117 14.3997 27.3807 14.4761 27.0496 14.5524C26.8166 14.607 26.5837 14.6616 26.3507 14.7163C25.7437 14.858 25.136 14.9965 24.528 15.1337C24.2785 15.1901 24.0292 15.247 23.7799 15.3044C23.4121 15.389 23.0439 15.4723 22.6757 15.5553C22.5662 15.5807 22.4567 15.6062 22.3439 15.6324C20.4248 16.0592 18.7889 15.9804 17.0887 14.9431C17.0052 14.8722 16.9218 14.8013 16.8358 14.7283C15.8233 13.8802 14.5398 14.0448 13.2801 14.0641C13.2846 14.1442 13.2892 14.2243 13.2938 14.3068C13.2974 14.412 13.3009 14.5172 13.3045 14.6257C13.3091 14.7299 13.3136 14.8341 13.3183 14.9415C13.2801 15.236 13.2801 15.236 13.1251 15.4466C12.8071 15.6896 12.6039 15.6762 12.2059 15.6772C12.1039 15.6782 12.1039 15.6782 11.9998 15.6793C11.7755 15.681 11.5513 15.6798 11.327 15.6785C11.1708 15.6788 11.0147 15.6792 10.8585 15.6797C10.5315 15.6802 10.2045 15.6794 9.8774 15.6776C9.45835 15.6753 9.03941 15.6766 8.62036 15.679C8.29798 15.6804 7.97562 15.6799 7.65324 15.6789C7.49875 15.6787 7.34425 15.679 7.18976 15.6799C6.97372 15.6809 6.75785 15.6794 6.54183 15.6772C6.41897 15.6769 6.2961 15.6766 6.16952 15.6762C5.85824 15.6266 5.85824 15.6266 5.6202 15.4526C5.46761 15.236 5.46761 15.236 5.46761 14.8454C5.36316 14.8474 5.25871 14.8495 5.15109 14.8516C4.76308 14.8587 4.37508 14.8632 3.98703 14.8669C3.81918 14.8688 3.65133 14.8715 3.48349 14.8749C3.24204 14.8796 3.00067 14.8818 2.75918 14.8835C2.64685 14.8866 2.64685 14.8866 2.53226 14.8897C2.20306 14.8898 2.00101 14.8836 1.73683 14.6779C1.52958 14.4144 1.51233 14.2967 1.51176 13.9655C1.51011 13.8177 1.51011 13.8177 1.50842 13.6668C1.50961 13.5055 1.50961 13.5055 1.51082 13.3409C1.51013 13.2272 1.50945 13.1134 1.50874 12.9962C1.50702 12.6198 1.50816 12.2434 1.50948 11.8669C1.50922 11.6056 1.50884 11.3444 1.50835 11.0832C1.50764 10.5354 1.50858 9.9877 1.51044 9.43997C1.51256 8.8069 1.51187 8.17388 1.50972 7.54082C1.50795 6.99708 1.5077 6.45336 1.50872 5.90962C1.50933 5.58495 1.50926 5.26031 1.50812 4.93565C1.50713 4.5737 1.50864 4.21185 1.51082 3.84991C1.51003 3.74235 1.50924 3.63479 1.50842 3.52397C1.50952 3.4254 1.51063 3.32682 1.51176 3.22526C1.51191 3.13971 1.51205 3.05416 1.51221 2.96601C1.57854 2.65564 1.70429 2.53824 1.95199 2.3454C2.23418 2.3113 2.47796 2.29968 2.75918 2.30725C2.83666 2.3078 2.91414 2.30836 2.99397 2.30892C3.24078 2.31111 3.48745 2.31601 3.73421 2.32098C3.9018 2.32294 4.0694 2.32472 4.23699 2.32632C4.64725 2.33062 5.05741 2.33736 5.46761 2.3454C5.47768 2.25275 5.48775 2.16009 5.49813 2.06464C5.62586 1.48404 6.01704 1.53888 6.53074 1.53577ZM7.03011 3.12665C7.03011 6.73602 7.03011 10.3454 7.03011 14.0641C8.57699 14.0641 10.1239 14.0641 11.7176 14.0641C11.7176 10.4548 11.7176 6.8454 11.7176 3.12665C10.1707 3.12665 8.62386 3.12665 7.03011 3.12665ZM3.12386 3.9079C3.12386 7.00165 3.12386 10.0954 3.12386 13.2829C3.8973 13.2829 4.67074 13.2829 5.46761 13.2829C5.46761 10.1891 5.46761 7.0954 5.46761 3.9079C4.69417 3.9079 3.92074 3.9079 3.12386 3.9079ZM13.2801 3.9079C13.2801 6.74383 13.2801 9.57977 13.2801 12.5016C14.3758 12.5339 15.4715 12.5661 16.6004 12.5993C17.6478 13.1489 17.6478 13.1489 18.0958 13.5427C18.9039 14.1844 19.8459 14.3017 20.8426 14.2082C21.5326 14.1161 22.2083 13.9549 22.8863 13.7994C23.0474 13.763 23.2085 13.7266 23.3697 13.6903C23.7051 13.6144 24.0405 13.538 24.3757 13.4612C24.8043 13.3631 25.2332 13.2663 25.6622 13.17C25.9941 13.0953 26.3258 13.0199 26.6575 12.9443C26.8156 12.9083 26.9737 12.8726 27.1319 12.8371C27.3529 12.7874 27.5736 12.7367 27.7942 12.6858C27.9195 12.6572 28.0448 12.6287 28.1738 12.5992C28.7447 12.4357 29.1866 12.2472 29.491 11.7204C29.5631 11.2192 29.5631 11.2192 29.3911 10.7621C29.1822 10.4988 29.0307 10.3625 28.7098 10.2556C27.9651 10.1974 27.2386 10.3109 26.5049 10.4265C26.3906 10.4438 26.2763 10.4611 26.1586 10.479C25.7963 10.534 25.4342 10.59 25.0721 10.6462C24.7086 10.7022 24.345 10.758 23.9814 10.8134C23.7559 10.8477 23.5305 10.8824 23.3051 10.9177C23.2028 10.9333 23.1004 10.949 22.9949 10.9651C22.8607 10.9859 22.8607 10.9859 22.7239 11.0071C21.8748 11.1025 21.8748 11.1025 21.4832 10.8415C21.3323 10.5396 21.3569 10.2952 21.3856 9.96258C21.6623 9.60667 21.8837 9.5143 22.3231 9.44848C22.4331 9.43123 22.543 9.41398 22.6563 9.3962C22.7751 9.3793 22.894 9.3624 23.0164 9.34499C23.1398 9.32626 23.2632 9.30754 23.3903 9.28825C23.6521 9.24861 23.914 9.21006 24.1761 9.17235C24.5071 9.12469 24.8377 9.07502 25.1683 9.02461C26.4017 8.83693 27.6212 8.66902 28.868 8.61802C29.3411 8.58559 29.7755 8.47593 30.2296 8.34515C31.3144 8.0634 32.491 7.84642 33.548 8.35126C34.0182 8.63832 34.445 8.97896 34.8722 9.32515C35.2174 9.60306 35.5681 9.87385 35.918 10.1457C35.9926 10.2038 36.0672 10.2619 36.144 10.3218C36.6959 10.7514 37.254 11.1722 37.8148 11.5902C38.3558 11.9945 38.8869 12.4104 39.4169 12.8289C39.8896 13.2022 40.3657 13.5707 40.8455 13.9347C41.0302 14.0762 41.2128 14.2201 41.3956 14.364C41.5248 14.4635 41.6541 14.5629 41.7835 14.6623C41.8427 14.7097 41.902 14.7572 41.963 14.8061C42.3678 15.1127 42.639 15.2085 43.1629 15.1384C43.5122 14.8931 43.63 14.7436 43.7244 14.3266C43.5512 13.4748 42.681 12.9087 42.0612 12.3452C41.6632 11.9829 41.2716 11.6138 40.8802 11.2443C40.3545 10.7486 39.8279 10.2539 39.2994 9.76117C38.4691 8.98708 37.6412 8.21041 36.8133 7.43373C36.7482 7.3727 36.6832 7.31168 36.6161 7.24881C36.5187 7.15738 36.5187 7.15738 36.4192 7.06411C36.2892 6.94222 36.1592 6.82039 36.0291 6.69861C35.7013 6.39174 35.3741 6.08417 35.0483 5.77519C34.9191 5.65325 34.7899 5.5313 34.6607 5.40936C34.6026 5.3539 34.5445 5.29844 34.4846 5.2413C34.0037 4.78854 33.5034 4.32444 32.8602 4.12762C32.7927 4.10597 32.7252 4.08432 32.6557 4.06201C32.0909 3.92632 31.5328 3.8938 30.9542 3.89615C30.8783 3.89607 30.8023 3.89599 30.7241 3.8959C30.4711 3.89574 30.2182 3.89628 29.9652 3.89681C29.7833 3.89684 29.6014 3.89682 29.4194 3.89677C28.9265 3.89674 28.4337 3.89731 27.9408 3.89799C27.4253 3.89861 26.9099 3.89866 26.3944 3.89878C25.4188 3.89908 24.4431 3.89988 23.4675 3.90086C22.1487 3.90216 20.83 3.90269 19.5113 3.90326C17.4342 3.90417 15.3572 3.90612 13.2801 3.9079Z" fill="black"/>
<path d="M33.8007 17.8243C33.9746 18.0561 34.0567 18.2407 34.1608 18.5079C34.3176 18.8717 34.4656 19.0961 34.8368 19.2769C35.2294 19.3852 35.6303 19.386 36.0357 19.3898C36.3276 19.4356 36.3276 19.4356 36.5504 19.5958C36.755 19.8768 36.8179 20.0969 36.8952 20.4366C36.9174 20.5326 36.9174 20.5326 36.9401 20.6305C36.9756 20.7856 37.0103 20.9409 37.0444 21.0962C37.1078 21.3841 37.173 21.6716 37.2384 21.959C37.302 22.2391 37.3649 22.5194 37.4275 22.7997C37.4591 22.9408 37.4907 23.0819 37.5226 23.2229C37.5679 23.4244 37.6124 23.6261 37.6566 23.8279C37.6828 23.9458 37.7089 24.0637 37.7359 24.1852C37.811 24.6218 37.8687 24.9604 37.652 25.356C37.3629 25.624 37.0915 25.7308 36.7304 25.8775C36.4432 26.0174 36.298 26.1975 36.1323 26.4669C35.9944 26.8805 36.0073 27.2899 35.993 27.7238C35.9222 28.1098 35.8611 28.1851 35.5463 28.42C35.1983 28.5395 34.8422 28.6107 34.4821 28.6847C34.3731 28.7083 34.2641 28.7319 34.1517 28.7562C33.7885 28.8345 33.4248 28.9107 33.061 28.9869C32.8049 29.0416 32.5488 29.0965 32.2927 29.1516C31.6787 29.2833 31.0645 29.4135 30.4501 29.5431C29.747 29.6916 29.0442 29.8415 28.3414 29.9915C27.9922 30.0661 27.6431 30.1406 27.2939 30.215C27.2252 30.2297 27.1564 30.2444 27.0856 30.2595C26.6021 30.3626 26.1184 30.4654 25.6348 30.568C24.2147 30.8694 22.7951 31.1731 21.3774 31.4853C21.1435 31.5368 20.9095 31.5882 20.6756 31.6395C19.8636 31.8175 19.8636 31.8175 19.0521 31.9975C18.7044 32.075 18.3564 32.1512 18.0083 32.2271C17.9112 32.2491 17.8141 32.2711 17.7141 32.2938C17.2493 32.3939 16.874 32.462 16.4057 32.3262C16.0839 32.0991 15.9768 31.8521 15.8381 31.4962C15.6813 31.1323 15.5333 30.9079 15.1621 30.7271C14.7695 30.6188 14.3686 30.618 13.9632 30.6142C13.6713 30.5684 13.6713 30.5684 13.4486 30.4082C13.2439 30.1272 13.181 29.9071 13.1037 29.5674C13.0889 29.5035 13.0741 29.4395 13.0588 29.3735C13.0233 29.2184 12.9886 29.0632 12.9545 28.9078C12.8911 28.6199 12.8259 28.3324 12.7605 28.045C12.6969 27.7649 12.634 27.4846 12.5714 27.2043C12.5398 27.0632 12.5082 26.9222 12.4763 26.7811C12.431 26.5796 12.3865 26.3779 12.3423 26.1762C12.3031 25.9993 12.3031 25.9993 12.263 25.8189C12.1879 25.3822 12.1302 25.0436 12.3469 24.648C12.636 24.38 12.9074 24.2732 13.2685 24.1265C13.5557 23.9866 13.7009 23.8065 13.8666 23.5372C14.0045 23.1236 13.9916 22.7141 14.0059 22.2802C14.0767 21.8942 14.1378 21.8189 14.4526 21.5841C14.8006 21.4645 15.1567 21.3933 15.5168 21.3194C15.6258 21.2958 15.7348 21.2722 15.8472 21.2478C16.2104 21.1696 16.5741 21.0934 16.9379 21.0172C17.194 20.9624 17.4501 20.9075 17.7062 20.8525C18.3202 20.7208 18.9344 20.5906 19.5488 20.4609C20.2519 20.3125 20.9547 20.1626 21.6575 20.0125C22.0067 19.938 22.3558 19.8635 22.705 19.789C22.7737 19.7743 22.8425 19.7597 22.9133 19.7446C23.3968 19.6415 23.8805 19.5387 24.3641 19.436C25.7842 19.1346 27.2038 18.8309 28.6215 18.5187C28.8554 18.4672 29.0894 18.4159 29.3233 18.3646C30.1353 18.1866 30.1353 18.1866 30.9468 18.0065C31.2945 17.9291 31.6425 17.8529 31.9906 17.777C32.0877 17.7549 32.1848 17.7329 32.2848 17.7102C33.3225 17.4868 33.3225 17.4868 33.8007 17.8243ZM31.9044 19.5132C31.8226 19.5302 31.7408 19.5471 31.6566 19.5646C31.5255 19.5925 31.5255 19.5925 31.3917 19.621C31.3015 19.6401 31.2112 19.6591 31.1182 19.6787C30.9278 19.7191 30.7375 19.7596 30.5472 19.8004C30.2548 19.8628 29.9622 19.9239 29.6696 19.9849C29.4848 20.0243 29.2999 20.0637 29.1151 20.1032C29.0271 20.1214 28.9392 20.1396 28.8485 20.1584C28.7677 20.176 28.6868 20.1936 28.6035 20.2117C28.4963 20.2344 28.4963 20.2344 28.3869 20.2577C28.2007 20.3004 28.2007 20.3004 28.1245 20.5098C28.1777 20.5445 28.2309 20.5791 28.2858 20.6147C29.326 21.3491 30.061 22.4614 30.3346 23.7092C30.5821 25.2159 30.3721 26.5763 29.687 27.9317C31.2232 27.632 32.7527 27.3117 34.2768 26.9551C34.2911 26.8889 34.3055 26.8227 34.3203 26.7545C34.5295 25.8862 34.8098 25.1012 35.589 24.6053C35.6574 24.5699 35.7258 24.5345 35.7962 24.4981C35.9779 24.306 35.9779 24.306 35.9232 23.9339C35.8974 23.7688 35.8692 23.604 35.8393 23.4395C35.8242 23.3475 35.8091 23.2555 35.7935 23.1607C35.7426 22.8639 35.6849 22.569 35.6257 22.2737C35.6077 22.1722 35.5898 22.0707 35.5713 21.9661C35.516 21.6947 35.46 21.4481 35.351 21.1934C35.0784 21.0203 35.0784 21.0203 34.7651 20.9981C33.9766 20.7449 33.206 20.3597 32.7875 19.6065C32.7634 19.5501 32.7392 19.4937 32.7143 19.4356C32.4129 19.4356 32.1925 19.4528 31.9044 19.5132ZM24.9995 21.0958C24.935 21.1602 24.8705 21.2247 24.8041 21.2911C24.9563 21.5369 25.0367 21.6634 25.3187 21.7488C25.4007 21.7589 25.4826 21.769 25.5671 21.7794C26.0164 21.856 26.313 21.9548 26.6596 22.2676C26.8834 22.6503 26.9549 22.8796 26.9404 23.3236C26.8549 23.6348 26.8549 23.6348 26.562 23.8301C26.016 23.8918 26.016 23.8918 25.7807 23.8301C25.7066 23.7463 25.6324 23.6625 25.556 23.5761C25.3079 23.3007 25.3079 23.3007 24.9457 23.3583C24.8244 23.3911 24.7032 23.424 24.5783 23.4578C24.4558 23.4894 24.3333 23.521 24.2071 23.5536C24.0676 23.5938 24.0676 23.5938 23.9252 23.6348C23.9897 23.8604 24.0541 24.086 24.1205 24.3184C24.1915 24.3043 24.2625 24.2902 24.3357 24.2757C26.1086 23.9484 26.1086 23.9484 26.8122 24.294C27.4093 24.8452 27.6134 25.5201 27.6465 26.3276C27.6103 26.8227 27.4829 27.1619 27.1479 27.5411C27.0298 27.6077 26.9096 27.6708 26.7878 27.7303C26.4263 27.9033 26.4263 27.9033 26.3727 28.2979C26.3707 28.4027 26.3687 28.5074 26.3666 28.6153C27.4405 28.1464 28.1011 27.5313 28.6127 26.4669C28.9533 25.4765 28.9545 24.3476 28.5403 23.38C27.9518 22.2617 27.0792 21.5727 25.8784 21.1934C25.5713 21.1254 25.3167 21.1009 24.9995 21.0958ZM22.1918 22.2799C21.3558 23.1654 21.1424 24.2134 21.1638 25.3808C21.2137 26.4637 21.7706 27.2832 22.5397 28.0049C23.3121 28.6447 24.1166 28.7931 25.0971 28.9083C25.1242 28.5972 25.1242 28.5972 24.9018 28.3223C24.6851 28.2585 24.6851 28.2585 24.4379 28.2308C23.9881 28.1503 23.6865 28.0497 23.3393 27.7364C23.1155 27.3537 23.044 27.1244 23.0585 26.6805C23.144 26.3692 23.144 26.3692 23.437 26.1739C23.9829 26.1123 23.9829 26.1123 24.2182 26.1739C24.2923 26.2577 24.3665 26.3416 24.4429 26.428C24.691 26.7034 24.691 26.7034 25.0532 26.6458C25.1745 26.6129 25.2957 26.5801 25.4206 26.5462C25.5431 26.5146 25.6656 26.483 25.7918 26.4505C25.8848 26.4236 25.9778 26.3968 26.0737 26.3692C26.0092 26.1436 25.9448 25.918 25.8784 25.6856C25.8074 25.6997 25.7364 25.7138 25.6632 25.7283C23.8903 26.0556 23.8903 26.0556 23.1867 25.71C22.5896 25.1589 22.3855 24.484 22.3524 23.6764C22.3886 23.1814 22.516 22.8421 22.851 22.463C22.9691 22.3963 23.0893 22.3333 23.2111 22.2737C23.5726 22.1007 23.5726 22.1007 23.6262 21.7061C23.6282 21.6014 23.6302 21.4966 23.6323 21.3887C23.1702 21.3887 22.5211 21.9794 22.1918 22.2799ZM19.7226 22.1515C19.6009 22.1774 19.6009 22.1774 19.4767 22.2038C19.3889 22.2227 19.3011 22.2417 19.2106 22.2612C19.0755 22.2901 19.0755 22.2901 18.9377 22.3196C18.747 22.3604 18.5563 22.4014 18.3656 22.4425C18.0736 22.5053 17.7814 22.5678 17.4893 22.6302C17.3042 22.6699 17.1191 22.7097 16.934 22.7494C16.8464 22.7682 16.7589 22.7869 16.6686 22.8062C16.5871 22.8238 16.5057 22.8413 16.4217 22.8595C16.3501 22.8749 16.2785 22.8903 16.2047 22.9061C15.9958 22.9529 15.9958 22.9529 15.7221 23.0489C15.6425 23.2666 15.6425 23.2666 15.5939 23.5311C15.3976 24.3104 15.1023 24.9581 14.4099 25.3987C14.3073 25.4518 14.3073 25.4518 14.2027 25.5059C14.021 25.6981 14.021 25.6981 14.0757 26.0701C14.1015 26.2353 14.1297 26.4001 14.1596 26.5645C14.1747 26.6565 14.1898 26.7485 14.2054 26.8433C14.2563 27.1402 14.314 27.435 14.3732 27.7303C14.4001 27.8826 14.4001 27.8826 14.4276 28.0379C14.4829 28.3094 14.5389 28.5559 14.6479 28.8106C14.9205 28.9837 14.9205 28.9837 15.2338 29.0059C16.0045 29.2534 16.8044 29.634 17.198 30.3853C17.2266 30.4457 17.2552 30.5062 17.2846 30.5684C17.8785 30.5098 18.4532 30.4227 19.0363 30.2972C19.115 30.2805 19.1938 30.2637 19.2749 30.2465C19.4394 30.2113 19.6038 30.1759 19.7682 30.1403C20.0209 30.0858 20.2738 30.0327 20.5267 29.9796C20.6871 29.9452 20.8474 29.9107 21.0078 29.8761C21.0835 29.8603 21.1593 29.8445 21.2374 29.8283C21.4187 29.7883 21.5981 29.7397 21.7768 29.6895C21.809 29.6251 21.8412 29.5606 21.8745 29.4942C21.8212 29.4596 21.768 29.425 21.7131 29.3893C20.4647 28.5079 19.8712 27.2567 19.5708 25.7962C19.4106 24.5835 19.7031 23.4554 20.2143 22.3653C20.2465 22.2686 20.2787 22.1719 20.312 22.0723C20.1027 22.0723 19.9273 22.1076 19.7226 22.1515Z" fill="black"/>
<path d="M37.8734 14.5463C38.1245 14.9004 38.2183 15.2317 38.3016 15.6499C38.3192 15.7304 38.3367 15.8109 38.3548 15.8938C38.4126 16.1609 38.4678 16.4285 38.523 16.6961C38.5636 16.8861 38.6043 17.0761 38.6452 17.266C38.7532 17.7695 38.859 18.2735 38.9644 18.7775C39.0681 19.2722 39.1737 19.7665 39.2792 20.2608C39.405 20.8503 39.5305 21.4399 39.6546 22.0299C39.8695 23.0511 40.0888 24.0711 40.3161 25.0897C40.3619 25.296 40.4077 25.5023 40.4535 25.7086C40.5192 26.0044 40.5852 26.3001 40.6524 26.5955C40.7138 26.8656 40.7739 27.1359 40.8339 27.4063C40.852 27.4844 40.8702 27.5626 40.8889 27.6431C41.005 28.1744 41.121 28.7551 41.0121 29.2942C40.7535 29.6274 40.5343 29.7419 40.127 29.8296C40.0283 29.8516 39.9296 29.8736 39.8279 29.8963C39.7209 29.9186 39.6139 29.9409 39.5037 29.9639C39.391 29.9886 39.2783 30.0133 39.1622 30.0388C38.9228 30.0911 38.6834 30.1427 38.4438 30.1938C38.0982 30.2674 37.7529 30.3426 37.4078 30.4185C36.6934 30.5753 35.9784 30.7292 35.2633 30.883C34.9933 30.9412 34.7233 30.9994 34.4533 31.0577C33.6584 31.2292 32.8634 31.4003 32.0684 31.5714C31.6938 31.6521 31.3191 31.7328 30.9444 31.8134C30.8696 31.8296 30.7948 31.8457 30.7177 31.8623C30.1067 31.9939 29.4956 32.1255 28.8846 32.2571C28.4983 32.3403 28.1119 32.4235 27.7256 32.5067C25.7278 32.9368 23.7304 33.3688 21.7335 33.8032C21.2638 33.9054 20.794 34.0075 20.3242 34.1094C20.2594 34.1235 20.1945 34.1376 20.1278 34.1521C19.8067 34.2217 19.4856 34.2914 19.1645 34.361C18.5449 34.4955 17.9253 34.6302 17.3058 34.7656C16.7294 34.8916 16.1528 35.0169 15.5761 35.1416C15.3665 35.187 15.1569 35.2328 14.9474 35.2789C14.6628 35.3414 14.3781 35.4029 14.0932 35.4642C13.9705 35.4915 13.9705 35.4915 13.8453 35.5195C13.3521 35.6242 12.9023 35.6994 12.3988 35.6418C11.9136 35.3055 11.8017 34.8993 11.6913 34.3447C11.6737 34.2642 11.6562 34.1837 11.6381 34.1008C11.5803 33.8337 11.5251 33.5661 11.4699 33.2985C11.4293 33.1084 11.3886 32.9185 11.3477 32.7285C11.2397 32.225 11.1339 31.7211 11.0285 31.217C10.9248 30.7224 10.8192 30.2281 10.7137 29.7338C10.5879 29.1442 10.4624 28.5546 10.3383 27.9647C10.1234 26.9435 9.90414 25.9235 9.67678 24.9049C9.63097 24.6986 9.58517 24.4923 9.53938 24.286C9.47372 23.9902 9.40772 23.6945 9.34054 23.3991C9.27914 23.129 9.21899 22.8587 9.15906 22.5883C9.14089 22.5101 9.12273 22.432 9.10402 22.3515C8.80368 20.9777 8.80368 20.9777 9.13772 20.4548C9.42043 20.2794 9.66072 20.2085 9.98627 20.1374C10.0482 20.1235 10.1101 20.1096 10.1738 20.0953C10.3825 20.0488 10.5917 20.0044 10.8008 19.96C10.953 19.9266 11.1052 19.8931 11.2573 19.8594C11.6784 19.7668 12.0998 19.6762 12.5214 19.586C12.7907 19.5283 13.06 19.4701 13.3292 19.4118C14.6563 19.1243 15.9843 18.8406 17.3125 18.5576C18.3903 18.3279 19.4681 18.0977 20.5458 17.8672C20.6712 17.8405 20.7965 17.8137 20.9256 17.7861C22.9078 17.3622 24.8889 16.933 26.8694 16.5012C27.3234 16.4022 27.7775 16.3033 28.2316 16.2045C28.4566 16.1555 28.6816 16.1066 28.9066 16.0576C29.0558 16.0251 29.205 15.9926 29.3542 15.9601C30.2372 15.7679 31.1201 15.5752 32.0028 15.3817C32.5589 15.2598 33.1151 15.1385 33.6714 15.0177C33.9943 14.9475 34.3171 14.877 34.6398 14.8059C34.9918 14.7284 35.3441 14.6518 35.6965 14.5755C35.7989 14.5527 35.9013 14.5299 36.0068 14.5064C37.3886 14.2103 37.3886 14.2103 37.8734 14.5463ZM35.6314 16.303C35.533 16.3241 35.4345 16.3453 35.333 16.367C35.2256 16.3906 35.1182 16.4141 35.0075 16.4384C34.893 16.4631 34.7785 16.4878 34.6606 16.5133C34.3439 16.5817 34.0273 16.6506 33.7108 16.7196C33.3712 16.7936 33.0314 16.867 32.6916 16.9405C32.1065 17.0671 31.5215 17.194 30.9365 17.3212C30.0183 17.5209 29.1 17.7198 28.1817 17.9186C27.8711 17.9859 27.5604 18.0531 27.2498 18.1204C27.134 18.1455 27.134 18.1455 27.0158 18.1711C26.4643 18.2905 25.9129 18.4101 25.3614 18.5297C22.5136 19.1473 19.6651 19.7619 16.8164 20.3755C16.1999 20.5083 15.5835 20.6412 14.967 20.7741C14.5098 20.8727 14.0525 20.9712 13.5953 21.0698C13.3846 21.1152 13.1739 21.1606 12.9633 21.206C12.6778 21.2676 12.3923 21.3291 12.1068 21.3906C12.024 21.4085 11.9411 21.4264 11.8557 21.4448C11.7794 21.4612 11.703 21.4777 11.6244 21.4946C11.5589 21.5087 11.4935 21.5228 11.426 21.5374C11.1972 21.5856 10.968 21.6314 10.7386 21.677C11.0514 23.2605 11.3763 24.8408 11.7164 26.4186C11.7383 26.5205 11.7602 26.6225 11.7828 26.7274C11.8981 27.2629 12.0136 27.7983 12.1292 28.3336C12.2483 28.885 12.3666 29.4366 12.4848 29.9882C12.5765 30.4154 12.6687 30.8425 12.761 31.2695C12.805 31.4731 12.8487 31.6767 12.8922 31.8804C12.9525 32.1627 13.0137 32.4449 13.075 32.727C13.0927 32.8106 13.1104 32.8943 13.1287 32.9806C13.1455 33.0571 13.1623 33.1337 13.1797 33.2126C13.194 33.279 13.2083 33.3454 13.223 33.4139C13.2779 33.6214 13.2779 33.6214 13.473 33.884C13.5897 33.8587 13.7064 33.8334 13.8266 33.8073C19.8826 32.4939 25.9391 31.1826 31.9964 29.8752C32.5294 29.7602 33.0624 29.6451 33.5954 29.5301C34.3162 29.3745 35.037 29.2189 35.7578 29.0634C36.0243 29.0059 36.2908 28.9484 36.5573 28.8908C36.9217 28.8122 37.2861 28.7336 37.6504 28.655C37.7572 28.6319 37.864 28.6089 37.974 28.5851C38.072 28.564 38.1699 28.5429 38.2708 28.5211C38.3552 28.5029 38.4397 28.4847 38.5266 28.4659C38.7688 28.4147 39.0114 28.3657 39.2543 28.3176C38.9416 26.7327 38.6153 25.1513 38.2731 23.5725C38.2281 23.3641 38.183 23.1557 38.138 22.9472C38.0449 22.5167 37.9517 22.0861 37.8583 21.6556C37.7386 21.1032 37.6193 20.5508 37.5001 19.9983C37.4078 19.5708 37.3152 19.1433 37.2226 18.7158C37.1785 18.5119 37.1344 18.3079 37.0904 18.1039C37.0294 17.8214 36.9682 17.5389 36.9068 17.2565C36.8797 17.1305 36.8797 17.1305 36.8521 17.0019C36.7682 16.594 36.7682 16.594 36.6175 16.2082C36.2729 16.1986 35.968 16.23 35.6314 16.303Z" fill="black"/>
<path d="M43.9312 18.6909C44.8638 18.9377 45.588 20.1971 46.0628 20.9618C47.1486 22.8929 47.3717 25.216 46.7769 27.34C46.5198 28.1428 46.1846 28.8916 45.7027 29.5861C45.811 29.5886 45.9192 29.5911 46.0308 29.5937C46.1737 29.5992 46.3166 29.6048 46.4595 29.6105C46.5308 29.6119 46.6021 29.6132 46.6755 29.6147C47.0157 29.6301 47.2289 29.6575 47.5078 29.8592C47.6643 30.0866 47.7089 30.1925 47.7047 30.465C47.7057 30.5294 47.7067 30.5939 47.7077 30.6603C47.6285 30.9585 47.5123 31.0598 47.2652 31.2462C46.9725 31.3049 46.6841 31.301 46.3863 31.2981C46.3011 31.2985 46.2159 31.2988 46.1281 31.2992C45.9481 31.2995 45.7682 31.2988 45.5883 31.2971C45.313 31.2951 45.038 31.2971 44.7628 31.2996C44.5878 31.2994 44.4128 31.2989 44.2379 31.2981C44.1557 31.2989 44.0735 31.2997 43.9888 31.3005C43.6391 31.2949 43.4178 31.2804 43.112 31.1026C42.8967 30.7324 42.9124 30.3981 42.9165 29.9767C42.9161 29.8915 42.9157 29.8062 42.9153 29.7184C42.9151 29.5385 42.9158 29.3586 42.9174 29.1787C42.9195 28.9034 42.9174 28.6284 42.9149 28.3532C42.9152 28.1782 42.9157 28.0032 42.9165 27.8282C42.9157 27.746 42.9149 27.6638 42.9141 27.5791C42.9232 27.0092 42.9232 27.0092 43.1547 26.7023C43.4384 26.5029 43.6173 26.5015 43.9544 26.5229C44.1402 26.5587 44.1402 26.5587 44.3783 26.693C44.6097 27.0818 44.6115 27.4804 44.6285 27.9259C45.4036 26.0384 45.5701 24.2928 44.7742 22.3816C44.4573 21.7021 44.0889 21.1562 43.5653 20.6196C42.9128 19.9453 42.9128 19.9453 42.9195 19.5214C42.9683 19.1368 42.9683 19.1368 43.1148 18.8927C43.3898 18.7277 43.6094 18.6724 43.9312 18.6909Z" fill="black"/>
<path d="M3.61047 18.6977C3.6957 18.6973 3.78092 18.697 3.86873 18.6966C4.04866 18.6963 4.22859 18.697 4.40851 18.6987C4.68376 18.7008 4.95876 18.6987 5.23401 18.6962C5.40898 18.6964 5.58394 18.6969 5.75891 18.6977C5.84111 18.6969 5.92332 18.6961 6.00801 18.6953C6.35768 18.7009 6.57899 18.7154 6.88482 18.8932C7.1001 19.2634 7.08437 19.5977 7.08032 20.0191C7.08069 20.1043 7.08107 20.1896 7.08145 20.2774C7.08172 20.4573 7.081 20.6372 7.07937 20.8172C7.07728 21.0924 7.07935 21.3674 7.08185 21.6427C7.08159 21.8176 7.08109 21.9926 7.08032 22.1676C7.08111 22.2498 7.0819 22.332 7.08272 22.4167C7.07359 22.9866 7.07359 22.9866 6.84209 23.2935C6.55841 23.4929 6.37949 23.4943 6.04234 23.4729C5.85657 23.4371 5.85657 23.4371 5.61853 23.3028C5.38709 22.914 5.38529 22.5155 5.36829 22.0699C4.59317 23.9574 4.42664 25.703 5.22256 27.6142C5.53948 28.2937 5.90786 28.8396 6.43144 29.3762C7.08401 30.0505 7.08401 30.0505 7.07727 30.4744C7.02844 30.859 7.02844 30.859 6.88196 31.1031C6.60701 31.2681 6.38739 31.3234 6.06561 31.3049C5.13298 31.0581 4.4088 29.7987 3.93396 29.034C2.84819 27.1029 2.62507 24.7798 3.21985 22.6558C3.47696 21.853 3.81221 21.1042 4.29407 20.4097C4.18581 20.4072 4.07754 20.4047 3.966 20.4021C3.82308 20.3966 3.68015 20.391 3.53723 20.3853C3.46598 20.3839 3.39473 20.3826 3.32132 20.3811C2.98104 20.3657 2.76785 20.3383 2.48895 20.1366C2.33251 19.9092 2.28786 19.8033 2.29211 19.5308C2.2906 19.4342 2.2906 19.4342 2.28906 19.3355C2.46881 18.6588 3.02944 18.6921 3.61047 18.6977Z" fill="black"/>
</svg>
