<?xml version="1.0" encoding="UTF-8"?>
<svg id="Layer_1" data-name="Layer 1" xmlns="http://www.w3.org/2000/svg" viewBox="0 0 32 32">
  <defs>
    <style>
      .cls-1 {
        fill: #0f0f0f;
      }
    </style>
  </defs>
  <g id="Twitter">
    <path class="cls-1" d="M10.09,19.28h-1.65s-.06-.01-.09-.03l-4.75-4.16v4.19h-1.22v-9.78h1.22v3.85l4.07-3.81s.06-.04.09-.04h1.7s-.24.23-.25.23l-4.6,4.32s-.13.14-.13.22c0,.07.09.18.13.23l5.47,4.78Z"/>
    <path class="cls-1" d="M14.53,12.07v1.2c-.11-.29-.31-.55-.58-.77-.28-.22-.57-.38-.89-.49-.32-.1-.64-.16-.95-.16-.49,0-.97.1-1.42.29-.45.19-.84.45-1.16.78-.32.33-.58.72-.78,1.17-.19.45-.29.92-.29,1.42,0,.66.16,1.27.49,1.83.33.56.77,1,1.33,1.32.56.32,1.17.48,1.83.48.32,0,.65-.05.97-.16.33-.1.63-.26.9-.48.27-.22.45-.47.55-.75v1.18h1.21v-6.87h-1.21ZM13.81,17.29c-.48.51-1.05.76-1.71.76-.44,0-.84-.12-1.22-.35-.38-.24-.67-.55-.89-.94-.22-.39-.32-.81-.32-1.25,0-.68.24-1.28.72-1.8.48-.52,1.05-.78,1.72-.78s1.23.26,1.71.78c.48.52.72,1.12.72,1.8s-.24,1.27-.72,1.78Z"/>
    <path class="cls-1" d="M23.42,14.09c-.19-.45-.45-.84-.78-1.16s-.71-.58-1.16-.78c-.45-.19-.92-.29-1.41-.29-.32,0-.65.05-.98.16-.33.11-.63.27-.91.48-.28.22-.46.46-.55.74v-1.17h-1.21v10.43h1.21v-4.78c.17.44.49.79.97,1.05.48.26.97.38,1.47.38s.96-.1,1.41-.29c.45-.19.83-.45,1.16-.78.32-.33.58-.72.78-1.17.19-.45.29-.92.29-1.42s-.1-.97-.29-1.42ZM21.78,17.3c-.48.51-1.05.77-1.71.77-.44,0-.84-.12-1.22-.36-.38-.24-.67-.55-.89-.95-.22-.39-.32-.81-.32-1.25s.11-.86.32-1.25c.22-.39.51-.71.89-.95.38-.24.78-.36,1.22-.36.66,0,1.23.26,1.71.77.48.51.72,1.11.72,1.79s-.24,1.28-.72,1.79Z"/>
    <path class="cls-1" d="M29.43,16.49c.22.44.24.88.08,1.31-.13.33-.34.61-.64.84-.3.23-.62.4-.96.49-.34.1-.7.15-1.06.15-.48,0-.94-.09-1.4-.26-.46-.17-.86-.41-1.22-.73l-.03-.03c-.16-.14-.27-.26-.33-.34l-.06-.11,1.05-.7.06.09c.13.19.31.35.53.49.23.13.45.23.68.28.23.05.4.08.53.1.13.02.22.03.28.03.37-.03.7-.1.97-.21.25-.12.41-.28.48-.48.04-.11.03-.24-.03-.4-.12-.24-.41-.43-.86-.58-.17-.05-.43-.11-.79-.18-1.45-.26-2.31-.78-2.58-1.57-.13-.39-.12-.78.03-1.18.15-.39.38-.71.69-.94.52-.39,1.14-.59,1.86-.6.53,0,.98.08,1.35.24.37.16.74.44,1.13.82l.23.29-.93.73-.24-.29s-.07-.08-.13-.13c-.06-.05-.15-.12-.28-.2-.12-.08-.28-.15-.47-.21-.19-.06-.4-.08-.61-.08-.47,0-.87.12-1.2.36-.12.1-.21.22-.27.37-.06.15-.08.29-.03.42.08.21.34.4.79.57.16.06.47.15.93.24.5.11.81.19.91.22.79.25,1.31.64,1.55,1.18h0Z"/>
  </g>
</svg>