<?xml version="1.0" encoding="UTF-8"?>
<svg id="Layer_1" data-name="Layer 1" xmlns="http://www.w3.org/2000/svg" viewBox="0 0 16 16">
  <defs>
    <style>
      .cls-1 {
        fill: #0f0f0f;
      }
    </style>
  </defs>
  <g id="Twitter">
    <path class="cls-1" d="M4.79,9.78h-.9s-.03,0-.05-.02l-2.58-2.26v2.28h-.66v-5.31h.66v2.09l2.21-2.07s.03-.02.05-.02h.92s-.13.12-.13.13l-2.5,2.35s-.07.08-.07.12c0,.04.05.1.07.12l2.97,2.6Z"/>
    <path class="cls-1" d="M7.2,5.87v.65c-.06-.16-.17-.3-.32-.42-.15-.12-.31-.21-.49-.26-.17-.06-.35-.08-.52-.08-.27,0-.53.05-.77.16-.24.1-.46.25-.63.42-.18.18-.32.39-.42.63-.1.24-.16.5-.16.77,0,.36.09.69.27.99.18.3.42.54.72.72.3.18.63.26.99.26.17,0,.35-.03.53-.08.18-.06.34-.14.49-.26.15-.12.25-.25.3-.41v.64h.66v-3.73h-.66ZM6.81,8.7c-.26.28-.57.41-.93.41-.24,0-.46-.06-.66-.19-.2-.13-.37-.3-.48-.51-.12-.21-.18-.44-.18-.68,0-.37.13-.7.39-.98.26-.28.57-.42.93-.42s.67.14.93.42c.26.28.39.61.39.98s-.13.69-.39.97Z"/>
    <path class="cls-1" d="M12.03,6.96c-.1-.24-.25-.46-.42-.63s-.39-.32-.63-.42c-.24-.1-.5-.16-.76-.16-.17,0-.35.03-.53.09-.18.06-.34.15-.49.26-.15.12-.25.25-.3.4v-.64h-.66v5.67h.66v-2.6c.09.24.27.43.53.57.26.14.53.21.8.21s.52-.05.76-.16c.24-.1.45-.25.63-.42.18-.18.32-.39.42-.63.1-.24.16-.5.16-.77s-.05-.52-.16-.77ZM11.14,8.7c-.26.28-.57.42-.93.42-.24,0-.46-.06-.66-.19-.2-.13-.37-.3-.48-.52-.12-.21-.18-.44-.18-.68s.06-.47.18-.68c.12-.21.28-.38.48-.51.2-.13.43-.19.66-.19.36,0,.67.14.93.42.26.28.39.6.39.97s-.13.69-.39.97Z"/>
    <path class="cls-1" d="M15.3,8.27c.12.24.13.48.05.71-.07.18-.19.33-.35.46-.16.13-.34.22-.52.27-.19.05-.38.08-.58.08-.26,0-.51-.05-.76-.14-.25-.09-.47-.23-.66-.4h-.02c-.09-.09-.15-.15-.18-.2l-.04-.06.57-.38.04.05c.07.1.17.19.29.26.12.07.25.12.37.15.12.03.22.05.29.05.07,0,.12.01.15.01.2-.01.38-.05.53-.11.14-.07.22-.15.26-.26.02-.06.02-.13-.02-.22-.07-.13-.22-.23-.47-.31-.09-.03-.23-.06-.43-.1-.79-.14-1.26-.43-1.4-.85-.07-.21-.07-.42.02-.64.08-.21.21-.38.38-.51.28-.21.62-.32,1.01-.33.29,0,.53.04.73.13.2.09.4.24.61.45l.12.16-.5.4-.13-.16s-.04-.04-.07-.07c-.03-.03-.08-.06-.15-.11-.07-.04-.15-.08-.26-.11-.1-.03-.21-.05-.33-.05-.26,0-.47.06-.65.19-.06.05-.11.12-.15.2-.04.08-.04.16-.02.23.04.12.18.22.43.31.08.04.25.08.5.13.27.06.44.1.49.12.43.14.71.35.84.64h0Z"/>
  </g>
</svg>