<?xml version="1.0" encoding="UTF-8"?>
<svg id="Layer_1" data-name="Layer 1" xmlns="http://www.w3.org/2000/svg" viewBox="0 0 48 48">
  <defs>
    <style>
      .cls-1 {
        fill: #0f0f0f;
      }
    </style>
  </defs>
  <g id="Twitter">
    <path class="cls-1" d="M13.96,29.57h-2.8c-.06,0-.11-.02-.15-.06l-8.08-7.07v7.13H.86V12.94h2.07v6.54l6.93-6.48s.1-.06.16-.06h2.89s-.41.39-.42.39l-7.82,7.34c-.07.07-.22.24-.22.38,0,.12.15.31.22.38l9.29,8.13Z"/>
    <path class="cls-1" d="M21.5,17.32v2.04c-.19-.5-.52-.94-.99-1.31-.47-.38-.97-.65-1.52-.83-.54-.18-1.08-.27-1.61-.27-.84,0-1.64.16-2.41.49-.77.33-1.42.77-1.98,1.33-.55.56-.99,1.22-1.32,1.98-.33.77-.49,1.57-.49,2.41,0,1.12.28,2.15.83,3.1.56.95,1.31,1.7,2.26,2.25.95.55,1.98.82,3.1.82.54,0,1.1-.09,1.66-.27.56-.18,1.07-.45,1.54-.82.46-.37.77-.79.93-1.27v2.01h2.05v-11.68h-2.05ZM20.28,26.19c-.81.86-1.78,1.29-2.9,1.29-.74,0-1.44-.2-2.08-.6-.64-.4-1.15-.93-1.51-1.6-.37-.66-.55-1.37-.55-2.12,0-1.16.41-2.17,1.23-3.05.82-.88,1.79-1.32,2.92-1.32s2.09.44,2.9,1.32c.81.88,1.22,1.9,1.22,3.05s-.41,2.17-1.22,3.03Z"/>
    <path class="cls-1" d="M36.61,20.75c-.33-.77-.77-1.43-1.32-1.98s-1.21-.99-1.97-1.32c-.76-.33-1.56-.49-2.39-.49-.55,0-1.1.09-1.66.27-.56.18-1.08.45-1.55.82-.47.37-.78.79-.93,1.26v-1.99h-2.05l.02,17.73h2.04v-8.12c.29.75.84,1.34,1.65,1.78.81.43,1.64.65,2.49.65s1.63-.16,2.39-.49c.76-.33,1.42-.77,1.97-1.33.55-.56.99-1.22,1.32-1.98.33-.77.49-1.57.49-2.41s-.16-1.64-.49-2.41ZM33.82,26.2c-.81.87-1.78,1.31-2.9,1.31-.74,0-1.44-.2-2.08-.61-.64-.4-1.15-.94-1.51-1.61-.37-.67-.55-1.38-.55-2.13s.18-1.46.55-2.13c.37-.67.87-1.2,1.51-1.61.64-.4,1.33-.61,2.08-.61,1.12,0,2.09.43,2.9,1.3.81.87,1.22,1.88,1.22,3.04s-.41,2.17-1.22,3.04Z"/>
    <path class="cls-1" d="M46.82,24.84c.37.74.42,1.49.14,2.23-.22.56-.58,1.04-1.09,1.43-.5.39-1.05.67-1.63.84-.59.17-1.19.25-1.81.25-.81,0-1.61-.15-2.39-.44-.78-.29-1.47-.71-2.07-1.24l-.06-.04c-.27-.24-.46-.44-.56-.59l-.11-.19,1.79-1.19.11.15c.22.32.52.6.91.83.38.23.77.38,1.15.47.39.08.69.14.9.17.21.03.37.04.47.04.63-.04,1.19-.16,1.66-.35.43-.21.7-.48.82-.82.07-.19.06-.42-.06-.67-.21-.4-.7-.73-1.47-.98-.29-.09-.73-.19-1.34-.31-2.47-.44-3.93-1.33-4.39-2.67-.23-.66-.21-1.33.05-2,.26-.67.65-1.2,1.18-1.59.88-.66,1.94-1.01,3.16-1.03.91,0,1.67.14,2.29.41.62.28,1.26.74,1.92,1.4l.39.5-1.58,1.25-.41-.5c-.04-.06-.12-.13-.22-.22-.1-.09-.26-.2-.47-.34-.21-.14-.48-.26-.81-.35-.33-.1-.67-.14-1.03-.14-.8,0-1.48.2-2.04.61-.2.16-.35.37-.46.62-.11.25-.13.49-.06.71.13.36.58.68,1.34.97.27.11.79.25,1.58.41.85.19,1.37.32,1.55.38,1.34.43,2.22,1.09,2.64,2h0Z"/>
  </g>
</svg>