<svg width="50" height="50" viewBox="0 0 50 50" fill="none" xmlns="http://www.w3.org/2000/svg">
<g clip-path="url(#clip0_157_855)">
<path d="M8.38593 -0.0169174C8.48194 -0.0173527 8.57795 -0.017788 8.67686 -0.0182366C8.7821 -0.0182186 8.88733 -0.0182005 8.99576 -0.018182C9.10773 -0.018541 9.21971 -0.0189001 9.33509 -0.01927C9.64595 -0.0201604 9.95681 -0.0206113 10.2677 -0.0208706C10.6029 -0.0212521 10.9382 -0.0221875 11.2734 -0.0230398C12.0829 -0.0249684 12.8924 -0.0259526 13.7019 -0.0268218C14.083 -0.0272499 14.4642 -0.027774 14.8454 -0.0282855C16.1124 -0.0299465 17.3794 -0.0313621 18.6464 -0.0320696C18.9751 -0.0322561 19.3038 -0.0324436 19.6325 -0.0326346C19.755 -0.0327055 19.755 -0.0327055 19.88 -0.0327778C21.2042 -0.0335888 22.5283 -0.0360641 23.8524 -0.0392343C25.2118 -0.0424623 26.5711 -0.0442226 27.9305 -0.0445349C28.6937 -0.0447464 29.457 -0.0456025 30.2203 -0.0480955C30.8701 -0.0502132 31.52 -0.0510026 32.1698 -0.0500519C32.5014 -0.0496075 32.8329 -0.0497967 33.1645 -0.0516888C33.5239 -0.0534082 33.8833 -0.0527304 34.2427 -0.0514414C34.3999 -0.0530482 34.3999 -0.0530482 34.5603 -0.0546875C35.3222 -0.0480723 35.6295 0.103406 36.1896 0.617533C36.3126 0.74295 36.3126 0.74295 36.438 0.8709C36.483 0.916413 36.528 0.961926 36.5744 1.00882C36.7168 1.15299 36.8586 1.2978 37.0003 1.44272C37.1414 1.58652 37.2826 1.73015 37.4241 1.87349C37.5531 2.00421 37.6816 2.1354 37.8101 2.26663C38.017 2.46758 38.2244 2.65571 38.4431 2.84298C38.9155 3.2527 39.3547 3.69453 39.7948 4.13833C39.9458 4.2906 40.0971 4.44254 40.2485 4.5944C40.6242 4.97135 40.9993 5.34884 41.3744 5.72631C41.6926 6.04643 42.011 6.36635 42.3297 6.686C42.4774 6.83438 42.6249 6.98306 42.7723 7.13175C43.2247 7.58658 43.6824 8.02898 44.1698 8.44649C44.5781 8.7974 44.9592 9.1779 45.3438 9.5543C45.431 9.637 45.5181 9.71971 45.608 9.80492C45.7334 9.92823 45.7334 9.92823 45.8614 10.054C45.9368 10.1269 46.0121 10.1998 46.0897 10.2748C46.65 11.0257 46.6245 11.8761 46.6194 12.779C46.6196 12.9157 46.62 13.0525 46.6205 13.1892C46.6216 13.5632 46.6208 13.9371 46.6197 14.311C46.6188 14.7151 46.6196 15.1191 46.6202 15.5231C46.6212 16.314 46.6205 17.1049 46.6193 17.8958C46.618 18.8177 46.6182 19.7397 46.6184 20.6616C46.6187 22.3074 46.6175 23.9532 46.6156 25.5991C46.6138 27.1942 46.6131 28.7892 46.6136 30.3843C46.6142 32.1227 46.6142 33.8611 46.6131 35.5995C46.613 35.7851 46.6129 35.9707 46.6127 36.1564C46.6127 36.2934 46.6127 36.2934 46.6126 36.4331C46.6122 37.0749 46.6122 37.7166 46.6124 38.3583C46.6126 39.1414 46.6121 39.9245 46.6107 40.7076C46.61 41.1067 46.6096 41.5057 46.61 41.9049C46.6104 42.2711 46.6099 42.6373 46.6087 43.0035C46.6083 43.1969 46.6088 43.3903 46.6094 43.5837C46.6002 45.4882 46.2886 46.9873 44.9715 48.4032C44.8909 48.4777 44.8103 48.5522 44.7273 48.629C44.6786 48.676 44.6299 48.7229 44.5797 48.7713C43.4678 49.7951 42.1478 50.041 40.6835 50.0341C40.5425 50.0345 40.4015 50.035 40.2605 50.0356C39.8753 50.0371 39.49 50.0366 39.1048 50.0359C38.6885 50.0355 38.2721 50.0367 37.8558 50.0377C37.041 50.0394 36.2263 50.0394 35.4115 50.0389C34.749 50.0385 34.0866 50.0387 33.4241 50.0392C33.3297 50.0393 33.2353 50.0394 33.1381 50.0394C32.9463 50.0396 32.7545 50.0397 32.5628 50.0399C30.7655 50.0412 28.9683 50.0407 27.171 50.0396C25.5281 50.0386 23.8852 50.0399 22.2422 50.0422C20.5538 50.0446 18.8654 50.0455 17.1769 50.0449C16.2296 50.0445 15.2823 50.0447 14.3349 50.0465C13.5285 50.0479 12.722 50.048 11.9156 50.0462C11.5044 50.0454 11.0933 50.0452 10.6822 50.0467C10.3052 50.0481 9.92823 50.0476 9.55124 50.0457C9.41548 50.0453 9.27971 50.0456 9.14395 50.0466C7.67854 50.0569 6.2477 49.6208 5.14605 48.6118C3.84259 47.2028 3.47138 45.7974 3.4779 43.9296C3.47742 43.7598 3.47681 43.59 3.47609 43.4202C3.4745 42.9554 3.47472 42.4905 3.47525 42.0257C3.47551 41.5237 3.47409 41.0217 3.4729 40.5197C3.47084 39.5368 3.4704 38.5539 3.47057 37.571C3.4707 36.7718 3.47033 35.9726 3.4696 35.1734C3.4694 34.943 3.46919 34.7126 3.46899 34.4823C3.46889 34.3676 3.46879 34.2529 3.46868 34.1348C3.46683 31.9667 3.46694 29.7987 3.4676 27.6306C3.46815 25.6488 3.46611 23.6669 3.46288 21.6851C3.45958 19.6487 3.4581 17.6123 3.45856 15.5759C3.45877 14.4332 3.45827 13.2905 3.45583 12.1478C3.45378 11.1749 3.45343 10.2019 3.45528 9.22898C3.45617 8.73294 3.45629 8.23694 3.45426 7.74091C3.45243 7.28602 3.45289 6.83118 3.4551 6.37629C3.45551 6.21253 3.4551 6.04876 3.45377 5.885C3.44241 4.38577 3.71658 3.14493 4.68829 1.94932C4.74871 1.869 4.80914 1.78869 4.87139 1.70594C5.71059 0.715563 7.07386 -0.0141527 8.38593 -0.0169174ZM7.05569 3.88489C6.30219 4.78399 6.41791 5.94833 6.4213 7.05877C6.42107 7.22004 6.42076 7.38131 6.42037 7.54258C6.41956 7.98387 6.41996 8.42515 6.42057 8.86643C6.42101 9.34307 6.42033 9.81971 6.41979 10.2963C6.41892 11.2293 6.41911 12.1623 6.41968 13.0953C6.42012 13.8537 6.42018 14.6121 6.41996 15.3704C6.41993 15.4784 6.4199 15.5864 6.41987 15.6977C6.41981 15.9171 6.41975 16.1365 6.41968 16.3559C6.41913 18.4126 6.41977 20.4692 6.42082 22.5258C6.42169 24.2899 6.42154 26.054 6.42064 27.8181C6.41959 29.8675 6.41918 31.9168 6.41978 33.9662C6.41984 34.1848 6.4199 34.4034 6.41996 34.622C6.41999 34.7295 6.42002 34.8371 6.42005 34.9479C6.42022 35.7052 6.41994 36.4625 6.41948 37.2198C6.41893 38.1429 6.41908 39.0661 6.42012 39.9892C6.42063 40.46 6.42084 40.9309 6.42019 41.4017C6.41961 41.833 6.41993 42.2643 6.42097 42.6956C6.42118 42.8513 6.42107 43.0071 6.4206 43.1628C6.39358 44.8666 6.39358 44.8666 7.22735 46.2853C8.10578 47.1335 9.14974 47.0955 10.3121 47.0913C10.4443 47.0915 10.5766 47.0918 10.7089 47.0922C11.07 47.093 11.4311 47.0926 11.7922 47.092C12.1826 47.0916 12.5729 47.0923 12.9633 47.0928C13.7271 47.0937 14.4909 47.0935 15.2547 47.0929C15.8756 47.0925 16.4966 47.0924 17.1175 47.0926C17.2502 47.0927 17.2502 47.0927 17.3856 47.0927C17.5654 47.0928 17.7452 47.0929 17.9249 47.0929C19.6094 47.0935 21.2938 47.0928 22.9782 47.0918C24.4225 47.0909 25.8668 47.0911 27.3112 47.092C28.9897 47.093 30.6682 47.0934 32.3468 47.0928C32.5259 47.0928 32.705 47.0927 32.8841 47.0926C32.9722 47.0926 33.0603 47.0926 33.1511 47.0926C33.771 47.0924 34.391 47.0927 35.0109 47.0931C35.7668 47.0937 36.5226 47.0935 37.2785 47.0925C37.6639 47.092 38.0493 47.0918 38.4347 47.0924C38.7879 47.093 39.1412 47.0927 39.4944 47.0916C39.6818 47.0913 39.8692 47.092 40.0565 47.0926C41.1112 47.0879 41.9874 47.045 42.7742 46.2853C43.6198 45.4096 43.5844 44.3713 43.5789 43.2125C43.579 43.0816 43.5792 42.9506 43.5795 42.8197C43.5799 42.4622 43.5791 42.1048 43.5781 41.7474C43.5773 41.361 43.5776 40.9747 43.5777 40.5883C43.5778 39.9197 43.5772 39.2511 43.5761 38.5826C43.5745 37.6159 43.574 36.6493 43.5738 35.6826C43.5733 34.1141 43.572 32.5457 43.5702 30.9772C43.5684 29.4539 43.567 27.9307 43.5662 26.4074C43.5661 26.3135 43.5661 26.2195 43.566 26.1227C43.5658 25.6513 43.5655 25.1799 43.5653 24.7085C43.5633 20.8005 43.5598 16.8925 43.5555 12.9845C43.4636 12.9841 43.3718 12.9838 43.2772 12.9834C42.4081 12.9798 41.539 12.9741 40.6698 12.9665C40.2231 12.9627 39.7764 12.9595 39.3297 12.958C38.8978 12.9565 38.466 12.9531 38.0341 12.9485C37.8701 12.9471 37.7061 12.9463 37.5421 12.9462C36.2217 12.9449 35.1837 12.813 34.1969 11.8622C33.5643 11.1304 33.3905 10.3803 33.3792 9.43363C33.3782 9.36308 33.3772 9.29252 33.3762 9.21983C33.3732 8.98787 33.3707 8.75591 33.3683 8.52395C33.3663 8.36262 33.3643 8.2013 33.3622 8.03998C33.3568 7.61631 33.352 7.19263 33.3472 6.76895C33.3423 6.33625 33.3369 5.90355 33.3315 5.47085C33.321 4.62253 33.3111 3.77421 33.3016 2.92588C30.2204 2.92142 27.1393 2.91796 24.0581 2.9159C23.6941 2.91566 23.3301 2.91541 22.9661 2.91515C22.8574 2.91507 22.8574 2.91507 22.7465 2.91499C21.5742 2.91414 20.4018 2.91261 19.2295 2.91081C18.026 2.90898 16.8225 2.9079 15.619 2.9075C14.8767 2.90723 14.1345 2.90639 13.3922 2.9048C12.8225 2.90364 12.2527 2.90352 11.6829 2.90379C11.4496 2.90373 11.2163 2.90335 10.9831 2.9026C10.6639 2.90162 10.3449 2.90186 10.0257 2.90239C9.93397 2.90182 9.8422 2.90125 9.74765 2.90067C8.63509 2.90566 7.84362 3.06894 7.05569 3.88489ZM36.3289 5.17197C36.324 5.82206 36.3205 6.47214 36.3182 7.12224C36.3172 7.34352 36.3159 7.56481 36.3142 7.78609C36.3118 8.10363 36.3107 8.42116 36.3098 8.73871C36.3088 8.8381 36.3078 8.93749 36.3068 9.03989C36.3068 9.13177 36.3067 9.22365 36.3067 9.31831C36.3063 9.39941 36.3059 9.48052 36.3054 9.56408C36.3109 9.78406 36.3109 9.78406 36.5242 9.95713C36.7334 9.98564 36.7334 9.98564 36.9767 9.9793C37.0705 9.97929 37.1644 9.97927 37.261 9.97926C37.3626 9.97825 37.4641 9.97724 37.5687 9.9762C37.7243 9.97579 37.7243 9.97579 37.8831 9.97536C38.2155 9.97427 38.5478 9.97182 38.8802 9.96934C39.1051 9.96836 39.3301 9.96747 39.555 9.96667C40.1072 9.96451 40.6595 9.96124 41.2117 9.95713C40.8196 9.48718 40.41 9.04324 39.9765 8.6113C39.9163 8.55103 39.8562 8.49076 39.7942 8.42866C39.6677 8.30217 39.5412 8.1758 39.4145 8.04954C39.2228 7.85836 39.0316 7.66666 38.8405 7.47491C38.2477 6.88174 37.6544 6.29834 37.0125 5.75791C36.8913 5.65434 36.7702 5.55065 36.6492 5.44682C36.5587 5.36917 36.5587 5.36917 36.4663 5.28995C36.421 5.25102 36.3756 5.21209 36.3289 5.17197Z" fill="black"/>
<path d="M14.8471 23.2056C14.936 23.205 15.0249 23.2044 15.1164 23.2038C15.4143 23.2021 15.7121 23.2026 16.0099 23.2031C16.2234 23.2024 16.437 23.2015 16.6505 23.2006C17.2306 23.1984 17.8106 23.1981 18.3907 23.1983C18.8749 23.1983 19.3591 23.1975 19.8432 23.1967C21.0507 23.1947 22.2583 23.1946 23.4658 23.1953C24.5139 23.1958 25.562 23.1938 26.6101 23.1905C27.6869 23.1873 28.7636 23.1858 29.8403 23.1862C30.4446 23.1864 31.0489 23.1859 31.6532 23.1835C32.2215 23.1813 32.7898 23.1815 33.3581 23.1835C33.5666 23.1838 33.7751 23.1833 33.9836 23.1819C34.2685 23.1802 34.5531 23.1814 34.8379 23.1834C34.9203 23.1822 35.0027 23.1809 35.0877 23.1797C35.6825 23.1886 35.9756 23.3443 36.4272 23.7324C36.6776 24.0887 36.7461 24.4861 36.7141 24.9164C36.5957 25.4057 36.4266 25.7267 36.0291 26.0413C35.634 26.2246 35.2926 26.2147 34.8621 26.2116C34.7731 26.2122 34.6842 26.2127 34.5926 26.2132C34.2945 26.2146 33.9965 26.2139 33.6984 26.2132C33.4847 26.2138 33.271 26.2145 33.0574 26.2153C32.4769 26.217 31.8964 26.2169 31.3159 26.2163C30.8315 26.216 30.3471 26.2166 29.8627 26.2172C28.6546 26.2187 27.4466 26.2183 26.2386 26.2171C25.1898 26.2162 24.141 26.2174 23.0922 26.2198C22.0149 26.2221 20.9376 26.223 19.8603 26.2224C19.2557 26.2221 18.651 26.2223 18.0464 26.224C17.4778 26.2255 16.9093 26.2252 16.3407 26.2233C16.132 26.223 15.9233 26.2233 15.7146 26.2243C15.4297 26.2256 15.145 26.2244 14.8602 26.2227C14.7775 26.2237 14.6948 26.2246 14.6096 26.2256C14.0889 26.2191 13.7953 26.126 13.3803 25.7831C13.0761 25.4122 12.9567 25.0274 12.9897 24.5502C13.076 24.0496 13.2783 23.6946 13.6808 23.377C14.0756 23.1932 14.4166 23.2029 14.8471 23.2056Z" fill="black"/>
<path d="M14.7797 34.918C14.9022 34.9169 14.9022 34.9169 15.0271 34.9158C15.3004 34.9137 15.5737 34.9137 15.847 34.9137C16.0431 34.9127 16.2391 34.9115 16.4351 34.9103C16.9676 34.9073 17.5001 34.9062 18.0326 34.9056C18.3653 34.9052 18.698 34.9044 19.0307 34.9034C20.1916 34.9001 21.3525 34.8984 22.5134 34.8982C23.5953 34.8979 24.6772 34.8939 25.7591 34.8883C26.6881 34.8836 27.6172 34.8816 28.5462 34.8816C29.101 34.8815 29.6558 34.8804 30.2106 34.8766C30.7325 34.8731 31.2543 34.8729 31.7762 34.8751C31.9676 34.8754 32.1589 34.8745 32.3502 34.8724C33.9755 34.8553 33.9755 34.8553 34.4902 35.2865C34.8774 35.7112 34.8933 36.1203 34.8853 36.6733C34.8456 37.1313 34.6338 37.3369 34.319 37.6529C33.9604 37.9456 33.6082 37.9557 33.1593 37.9489C33.0365 37.9499 33.0365 37.9499 32.9113 37.951C32.6377 37.9527 32.3644 37.9509 32.0908 37.9491C31.8945 37.9496 31.6981 37.9504 31.5017 37.9513C30.9688 37.9531 30.436 37.9518 29.9031 37.9499C29.3455 37.9483 28.7878 37.9491 28.2301 37.9496C27.2936 37.9501 26.357 37.9485 25.4205 37.9458C24.3378 37.9427 23.2551 37.9427 22.1724 37.9444C21.1308 37.9459 20.0892 37.9453 19.0476 37.9436C18.6043 37.9429 18.1611 37.943 17.7178 37.9437C17.1958 37.9445 16.6739 37.9433 16.1519 37.9406C15.9604 37.94 15.7688 37.9399 15.5772 37.9407C15.3157 37.9415 15.0543 37.9399 14.7928 37.9378C14.717 37.9386 14.6412 37.9394 14.5631 37.9402C14.0575 37.9325 13.7711 37.8142 13.3803 37.4969C13.0761 37.126 12.9567 36.7412 12.9897 36.264C13.0762 35.7623 13.2781 35.4053 13.685 35.0908C14.0517 34.9174 14.3824 34.916 14.7797 34.918Z" fill="black"/>
<path d="M14.7032 29.0608C14.7766 29.0603 14.85 29.0598 14.9256 29.0592C15.171 29.0578 15.4164 29.0585 15.6619 29.0592C15.838 29.0586 16.0142 29.058 16.1903 29.0572C16.6685 29.0554 17.1467 29.0555 17.6249 29.0561C18.0241 29.0564 18.4233 29.0558 18.8226 29.0552C19.7644 29.0538 20.7062 29.054 21.648 29.0551C22.6196 29.0562 23.5912 29.0549 24.5628 29.0522C25.397 29.0501 26.2313 29.0494 27.0655 29.05C27.5638 29.0503 28.062 29.0501 28.5602 29.0484C29.0288 29.0469 29.4972 29.0473 29.9658 29.0491C30.1376 29.0495 30.3095 29.0492 30.4814 29.0482C30.7162 29.0469 30.9509 29.048 31.1857 29.0497C31.2875 29.0483 31.2875 29.0483 31.3913 29.0469C31.8747 29.0542 32.147 29.1898 32.5209 29.4893C32.8248 29.8665 32.9262 30.2783 32.9116 30.7588C32.7553 31.271 32.5323 31.5802 32.1303 31.9307C31.8419 32.0749 31.5495 32.0428 31.2333 32.0427C31.1236 32.0433 31.1236 32.0433 31.0117 32.0438C30.7653 32.0449 30.519 32.0453 30.2727 32.0456C30.0965 32.0462 29.9204 32.0469 29.7443 32.0476C29.2649 32.0493 28.7855 32.0503 28.3061 32.0511C28.0067 32.0516 27.7073 32.0522 27.4079 32.0528C26.4715 32.0547 25.5352 32.0561 24.5988 32.0569C23.5172 32.0578 22.4357 32.0604 21.3541 32.0644C20.5186 32.0673 19.6831 32.0688 18.8476 32.0691C18.3484 32.0693 17.8492 32.0702 17.35 32.0726C16.8803 32.0749 16.4106 32.0753 15.9409 32.0743C15.7685 32.0743 15.5962 32.0749 15.4238 32.0762C15.1884 32.078 14.953 32.0773 14.7176 32.076C14.6495 32.0771 14.5814 32.0781 14.5113 32.0792C14.0273 32.0729 13.7552 31.9367 13.3803 31.6377C13.0761 31.2668 12.9567 30.882 12.9897 30.4048C13.0764 29.9018 13.278 29.5428 13.6898 29.2315C14.0332 29.0665 14.3304 29.0576 14.7032 29.0608Z" fill="black"/>
</g>
<defs>
<clipPath id="clip0_157_855">
<rect width="50" height="50" fill="white"/>
</clipPath>
</defs>
</svg>
