<svg width="126" height="60" viewBox="0 0 126 60" fill="none" xmlns="http://www.w3.org/2000/svg">
<path d="M35.5322 45.1097H27.9314C27.7817 45.1115 27.6372 45.0575 27.524 44.9582L5.60403 25.7663V45.1115H0V0H5.60403V17.7447L24.3938 0.167189C24.5087 0.0609544 24.6584 0 24.8151 0H32.6615C32.6615 0 31.5473 1.04667 31.5246 1.06757L10.3167 20.9805C10.1182 21.1668 9.72306 21.6371 9.72306 22.0132C9.72306 22.3494 10.1217 22.8631 10.3306 23.0529L35.5322 45.1097Z" fill="white"/>
<path d="M55.9864 11.8845V17.4296C55.4676 16.0712 54.5727 14.8817 53.3053 13.8629C52.0362 12.8441 50.6626 12.0952 49.1846 11.6145C47.7065 11.1339 46.2494 10.8953 44.8096 10.8953C42.5325 10.8953 40.3546 11.3411 38.2759 12.2293C36.199 13.1175 34.4111 14.3174 32.9122 15.8256C31.415 17.3338 30.2207 19.1276 29.3328 21.207C28.4432 23.2864 27.9993 25.4634 27.9993 27.7413C27.9993 30.7786 28.7548 33.5877 30.2625 36.1635C31.7701 38.7427 33.814 40.7751 36.3888 42.2624C38.9671 43.7514 41.7735 44.4951 44.8096 44.4951C46.2877 44.4951 47.7866 44.2565 49.3047 43.7758C50.8228 43.2969 52.2103 42.5585 53.469 41.5588C54.7277 40.5591 55.5668 39.4097 55.9864 38.1105V43.5651H61.559V11.8845H55.9864ZM52.6751 35.9545C50.4676 38.2934 47.8475 39.462 44.8096 39.462C42.7919 39.462 40.9134 38.9169 39.176 37.8284C37.4386 36.7399 36.0702 35.2962 35.0709 33.4971C34.0716 31.6999 33.572 29.7807 33.572 27.7431C33.572 24.6065 34.6809 21.8427 36.8989 19.455C39.1168 17.0673 41.7543 15.8744 44.8096 15.8744C47.8649 15.8744 50.4676 17.0691 52.6751 19.455C54.8826 21.8427 55.9864 24.6065 55.9864 27.7431C55.9864 30.8796 54.8826 33.6173 52.6751 35.9562V35.9545Z" fill="white"/>
<path d="M96.9746 21.1824C96.0868 19.103 94.8925 17.3144 93.3953 15.8167C91.8981 14.3189 90.1136 13.1242 88.0472 12.2343C85.9789 11.3461 83.8167 10.9003 81.5587 10.9003C80.079 10.9003 78.5783 11.1441 77.0497 11.6352C75.5212 12.1246 74.1233 12.87 72.8541 13.8679C71.585 14.8675 70.7406 16.0065 70.3228 17.2848V11.8895H64.7501L64.7971 59.9999H70.3211L70.3246 37.9692C71.1028 40.0069 72.5965 41.616 74.804 42.7951C77.0114 43.9741 79.2625 44.5645 81.5605 44.5645C83.8585 44.5645 85.9807 44.1187 88.0489 43.2305C90.1154 42.3423 91.8998 41.1423 93.397 39.6342C94.8942 38.126 96.0885 36.3322 96.9764 34.2528C97.8642 32.1751 98.3099 29.9964 98.3099 27.7185C98.3099 25.4405 97.866 23.2636 96.9764 21.1841L96.9746 21.1824ZM89.4242 35.9752C87.2167 38.3437 84.5949 39.5279 81.5587 39.5279C79.541 39.5279 77.6626 38.9793 75.9251 37.8787C74.1877 36.7815 72.8193 35.3203 71.82 33.5021C70.8207 31.684 70.3228 29.7543 70.3228 27.7167C70.3228 25.6791 70.8207 23.7564 71.82 21.9452C72.8193 20.1375 74.1877 18.6833 75.9251 17.5844C77.6626 16.4854 79.541 15.9351 81.5587 15.9351C84.5949 15.9351 87.2167 17.1141 89.4242 19.4722C91.6317 21.8303 92.7337 24.5784 92.7337 27.715C92.7337 30.8515 91.63 33.6049 89.4242 35.9734V35.9752Z" fill="white"/>
<path d="M124.69 32.2815C125.689 34.2999 125.818 36.3184 125.08 38.3369C124.481 39.8555 123.496 41.1495 122.129 42.2188C120.761 43.2881 119.283 44.0474 117.695 44.4967C116.107 44.9461 114.474 45.1707 112.796 45.1707C110.599 45.1707 108.44 44.7754 106.323 43.9865C104.206 43.1975 102.338 42.0725 100.719 40.6148L100.57 40.4946C99.8298 39.8346 99.3214 39.3052 99.0411 38.9063L98.7417 38.3961L103.595 35.1585L103.895 35.5782C104.494 36.4577 105.314 37.2066 106.351 37.8266C107.389 38.4466 108.433 38.8715 109.483 39.1014C110.531 39.3313 111.346 39.4863 111.926 39.5664C112.505 39.6465 112.934 39.6866 113.214 39.6866C114.932 39.5664 116.429 39.2477 117.709 38.727C118.867 38.1679 119.607 37.4278 119.927 36.5082C120.127 35.9892 120.077 35.3797 119.777 34.6796C119.218 33.5807 117.89 32.6907 115.792 32.0115C115.014 31.7712 113.804 31.4926 112.166 31.1721C105.474 29.9722 101.508 27.5549 100.27 23.9185C99.6505 22.1195 99.6957 20.3118 100.404 18.4936C101.113 16.6754 102.177 15.2369 103.595 14.1763C105.993 12.3773 108.849 11.449 112.166 11.3881C114.622 11.3881 116.696 11.7625 118.383 12.5114C120.071 13.2602 121.804 14.5246 123.581 16.3027L124.629 17.6524L120.345 21.0398L119.236 19.69C119.116 19.5298 118.916 19.3295 118.637 19.091C118.357 18.8506 117.932 18.5424 117.363 18.161C116.793 17.7813 116.064 17.4609 115.174 17.2014C114.285 16.9419 113.352 16.8113 112.373 16.8113C110.195 16.8113 108.348 17.3616 106.83 18.4605C106.29 18.9011 105.871 19.4654 105.571 20.1533C105.272 20.843 105.221 21.4873 105.422 22.0864C105.78 23.0652 106.99 23.9447 109.048 24.7249C109.767 25.0244 111.195 25.3954 113.332 25.8342C115.65 26.3532 117.048 26.6946 117.528 26.8531C121.163 28.0129 123.552 29.8207 124.69 32.278V32.2815Z" fill="white"/>
</svg>
