<svg width="50" height="50" viewBox="0 0 50 50" fill="none" xmlns="http://www.w3.org/2000/svg">
<g clip-path="url(#clip0_157_907)">
<path d="M29.9586 0.552662C30.2595 0.759955 30.5499 0.976929 30.8344 1.20612C31.1059 1.41243 31.2496 1.46239 31.5955 1.46857C31.999 1.34608 32.2077 1.15176 32.5232 0.876529C33.0402 0.618053 33.5338 0.659034 34.0857 0.778873C34.6026 0.968156 34.8987 1.27312 35.1599 1.75544C35.4572 2.4985 35.1808 3.26076 34.9295 3.96987C34.8789 4.1172 34.8789 4.1172 34.8272 4.26751C34.7195 4.58005 34.6102 4.89198 34.5008 5.20392C34.4287 5.41236 34.3567 5.62083 34.2848 5.82934C34.1515 6.21521 34.0177 6.60093 33.8829 6.98627C33.8526 7.07338 33.8223 7.16049 33.791 7.25024C33.724 7.43664 33.6538 7.6219 33.5811 7.80617C33.5444 7.90028 33.5077 7.99438 33.4699 8.09134C33.419 8.21775 33.419 8.21775 33.367 8.34672C33.2905 8.64579 33.2952 8.78919 33.4021 9.07965C33.5674 9.27989 33.7284 9.45441 33.9137 9.634C33.9669 9.6871 34.0201 9.7402 34.0749 9.7949C34.2505 9.96978 34.4275 10.1433 34.6045 10.3168C34.7268 10.4381 34.8491 10.5596 34.9712 10.6811C35.2927 11.0006 35.6153 11.3189 35.9382 11.6369C36.4554 12.1467 36.9707 12.6583 37.4863 13.1698C37.6667 13.3485 37.8476 13.5268 38.0285 13.705C38.1388 13.814 38.2491 13.923 38.3593 14.032C38.41 14.0816 38.4606 14.1313 38.5127 14.1825C38.8475 14.5141 38.9846 14.6945 39.0051 15.1649C39.0027 15.5391 38.9821 15.6055 38.7366 15.9156C38.364 16.1994 38.169 16.2538 37.699 16.2086C37.2477 15.951 36.9616 15.6642 36.6475 15.2536C36.5577 15.139 36.4677 15.0246 36.3775 14.9103C36.3301 14.8501 36.2827 14.7899 36.2339 14.7279C34.3262 12.3365 32.1263 9.83304 28.9436 9.3997C26.5219 9.13784 24.4332 9.56001 22.5128 11.1034C19.9206 13.2726 17.6774 15.8932 15.6161 18.5626C15.5657 18.6276 15.5152 18.6927 15.4632 18.7596C13.1373 21.8132 12.2285 25.8209 12.7173 29.5936C12.8526 30.5614 13.0916 31.4878 13.3826 32.4195C13.6606 32.4195 13.8262 32.3823 14.0868 32.2982C14.1682 32.2726 14.2497 32.2471 14.3336 32.2207C14.5016 32.1672 14.6694 32.1133 14.8371 32.059C18.3732 30.9557 21.8812 31.7989 25.083 33.4022C25.3823 33.5502 25.6818 33.6977 25.9814 33.845C26.0556 33.8816 26.1297 33.9182 26.2061 33.9559C26.9106 34.3025 27.6224 34.6317 28.3362 34.9586C29.084 35.3029 29.8282 35.6511 30.5579 36.0328C30.6217 36.0658 30.6856 36.0987 30.7513 36.1327C31.7346 36.6592 32.3831 37.4435 32.7124 38.5169C32.8476 39.0872 32.8436 39.6493 32.8162 40.232C33.697 39.6611 34.4608 39.0345 35.2184 38.3106C35.4542 38.0877 35.7 37.8766 35.9454 37.6643C36.1741 37.4648 36.3995 37.2616 36.6248 37.0582C36.978 36.7394 37.3341 36.4246 37.6929 36.1121C37.9245 35.9085 38.1536 35.7023 38.3826 35.4957C38.7358 35.1769 39.092 34.8621 39.4507 34.5496C39.6824 34.346 39.9114 34.1398 40.1404 33.9332C41.327 32.8632 41.327 32.8632 41.6602 32.6499C41.9972 32.3237 42.0574 31.9949 42.1607 31.5467C42.1898 31.4325 42.1898 31.4325 42.2196 31.3161C42.5189 30.1021 42.6185 28.9105 42.6123 27.6649C42.6121 27.5553 42.6121 27.5553 42.6119 27.4435C42.6065 25.9314 42.4102 24.5955 41.9764 23.1483C41.8656 22.7243 41.8429 22.4061 41.8982 21.9703C42.0734 21.69 42.1895 21.5317 42.4841 21.3843C43.1579 21.317 43.1579 21.317 43.5649 21.572C43.9457 21.9127 44.041 22.3302 44.1626 22.8126C44.1867 22.9046 44.2109 22.9966 44.2357 23.0914C44.3061 23.3681 44.3723 23.6454 44.4373 23.9234C44.464 24.031 44.464 24.031 44.4912 24.1407C44.8458 25.6181 44.7637 27.1677 44.7501 28.6765C44.7496 28.7483 44.7492 28.82 44.7488 28.894C44.7429 29.3301 44.7028 29.7441 44.6326 30.1734C44.6872 30.1523 44.7419 30.1311 44.7981 30.1093C45.7992 29.7617 46.82 29.7323 47.8041 30.1494C48.7789 30.6307 49.476 31.3071 49.906 32.3279C50.1776 33.3214 50.1441 34.5405 49.692 35.4663C49.3408 36.0102 48.8983 36.458 48.4412 36.9117C48.3628 36.9925 48.2843 37.0733 48.2035 37.1566C47.8903 37.4769 47.5722 37.7825 47.2308 38.0725C46.5926 38.6275 46.0082 39.2405 45.4138 39.8414C44.0734 41.1965 44.0734 41.1965 43.4737 41.7056C42.9417 42.1821 42.449 42.7029 41.947 43.2105C40.6181 44.5546 40.6181 44.5546 40.0065 45.0743C39.7702 45.2796 39.5568 45.505 39.3408 45.7313C36.6397 48.4789 32.7769 49.9936 28.9539 50.0479C28.5212 50.0514 28.0887 50.0515 27.656 50.0501C27.3132 50.0494 26.9704 50.051 26.6276 50.0523C25.9595 50.0544 25.2915 50.0544 24.6234 50.0536C24.0803 50.0529 23.5372 50.0531 22.9941 50.0537C22.9163 50.0538 22.8385 50.0539 22.7584 50.054C22.6004 50.0541 22.4424 50.0543 22.2844 50.0545C20.8094 50.0561 19.3344 50.0553 17.8594 50.0536C16.5116 50.0522 15.1638 50.0536 13.8161 50.0564C12.428 50.0593 11.0399 50.0604 9.65179 50.0594C9.49476 50.0593 9.33773 50.0592 9.1807 50.0592C9.10346 50.0591 9.02622 50.0591 8.94664 50.059C8.40401 50.0588 7.86139 50.0598 7.31876 50.0612C6.65782 50.0629 5.99691 50.0629 5.33597 50.0607C4.99919 50.0596 4.66247 50.0593 4.32569 50.0611C3.96004 50.0626 3.59452 50.0612 3.22888 50.059C3.07062 50.0607 3.07062 50.0607 2.90917 50.0625C2.073 50.0522 1.45027 49.8155 0.803235 49.2835C0.32867 48.7005 -0.00657822 48.1894 -0.0120102 47.4227C-0.0134817 47.2595 -0.0134832 47.2595 -0.0149845 47.093C-0.0155539 46.9735 -0.0161233 46.854 -0.01671 46.7309C-0.0176655 46.6051 -0.0186194 46.4793 -0.0196038 46.3497C-0.0226679 45.9321 -0.0246503 45.5145 -0.0264614 45.0969C-0.0267834 45.0257 -0.0271041 44.9545 -0.0274359 44.8812C-0.0304433 44.2091 -0.0330514 43.537 -0.0347047 42.8649C-0.0368396 42.0072 -0.0409271 41.1496 -0.0477343 40.2919C-0.0523641 39.6879 -0.0547192 39.0838 -0.0554262 38.4798C-0.055908 38.1196 -0.0573597 37.7595 -0.0612615 37.3993C-0.0655691 36.9963 -0.065161 36.5935 -0.0643938 36.1905C-0.0663469 36.0728 -0.0683001 35.9552 -0.0703125 35.8339C-0.0628111 34.9519 0.145303 34.13 0.790191 33.4899C0.978924 33.3373 1.15644 33.2173 1.37086 33.1031C1.45838 33.0533 1.54591 33.0035 1.63608 32.9522C2.22184 32.7054 2.87234 32.764 3.49679 32.7643C3.63798 32.7636 3.77917 32.7629 3.92036 32.7621C4.21562 32.7608 4.51086 32.7606 4.80612 32.7612C5.18209 32.7618 5.55794 32.7588 5.93389 32.7548C6.22538 32.7523 6.51684 32.752 6.80834 32.7524C6.94682 32.7522 7.0853 32.7513 7.22377 32.7495C8.27535 32.7377 9.05198 32.9043 9.86696 33.5914C9.86696 33.6558 9.86696 33.7203 9.86696 33.7867C10.3504 33.6255 10.8338 33.4644 11.3318 33.2984C11.2915 33.1594 11.2512 33.0204 11.2097 32.8773C9.92417 28.1188 10.3289 23.3973 12.699 19.0406C13.6847 17.348 14.9685 15.9597 16.3668 14.6037C16.6809 14.2986 16.9929 13.9915 17.3051 13.6845C17.8837 13.1154 18.4631 12.5473 19.046 11.9826C19.4542 11.5871 19.8597 11.189 20.2635 10.7891C20.4173 10.6378 20.572 10.4875 20.7277 10.3383C20.9443 10.1303 21.1575 9.9192 21.3701 9.70708C21.4673 9.61619 21.4673 9.61619 21.5664 9.52346C21.8919 9.19686 21.8919 9.19686 21.9761 8.76079C21.9281 8.53192 21.8626 8.32206 21.781 8.10309C21.7512 8.00698 21.7215 7.91087 21.6908 7.81184C21.6446 7.68431 21.6446 7.68431 21.5975 7.5542C21.5623 7.45607 21.5271 7.35794 21.4909 7.25683C21.4534 7.15366 21.416 7.05048 21.3774 6.94419C21.2979 6.72054 21.2184 6.49687 21.139 6.27318C21.0146 5.92428 20.8897 5.5756 20.7635 5.22733C20.6411 4.88869 20.5208 4.54933 20.4009 4.20981C20.3441 4.05565 20.3441 4.05565 20.2862 3.89837C20.0413 3.19851 19.8297 2.43355 20.1177 1.71507C20.37 1.24865 20.6983 0.960631 21.1951 0.778873C21.8187 0.627991 22.2752 0.698687 22.8552 0.974186C23.0187 1.10346 23.1816 1.23354 23.3435 1.36481C23.696 1.47729 23.8674 1.48493 24.2163 1.35871C24.452 1.2096 24.6249 1.07469 24.8267 0.888736C26.163 -0.30737 28.469 -0.363203 29.9586 0.552662ZM25.8826 2.732C25.2316 3.26652 24.5117 3.57005 23.6521 3.53652C23.2192 3.48876 22.7936 3.40406 22.367 3.31794C22.6469 4.29421 22.9826 5.25095 23.313 6.211C23.5164 6.80316 23.7199 7.39533 23.9295 8.00543C26.3465 8.00543 28.7634 8.00543 31.2537 8.00543C31.6737 6.99886 31.6737 6.99886 32.0494 5.9783C32.0878 5.86769 32.0878 5.86769 32.1269 5.75484C32.1797 5.60182 32.2324 5.44873 32.2848 5.29557C32.3656 5.06026 32.4477 4.8254 32.5297 4.59052C32.5813 4.44075 32.6328 4.29096 32.6842 4.14115C32.7088 4.07107 32.7334 4.00099 32.7588 3.92878C32.8161 3.75953 32.8657 3.58769 32.9138 3.41559C32.8655 3.31891 32.8655 3.31891 32.8162 3.22028C32.724 3.252 32.724 3.252 32.63 3.28437C31.708 3.5843 30.9876 3.60808 30.0818 3.22028C29.8051 3.04394 29.5554 2.84048 29.3006 2.63434C28.1088 1.74781 27.004 1.79131 25.8826 2.732ZM43.9961 33.3565C43.8158 33.5274 43.6303 33.6914 43.4424 33.8538C43.1524 34.1048 42.8665 34.3597 42.5818 34.6168C42.2286 34.9355 41.8724 35.2503 41.5137 35.5628C41.282 35.7664 41.0529 35.9726 40.824 36.1793C40.4708 36.498 40.1146 36.8128 39.7559 37.1253C39.5242 37.3289 39.2951 37.5351 39.0662 37.7418C38.5451 38.2115 38.0197 38.6753 37.4854 39.1299C37.3694 39.2287 37.2534 39.3275 37.1375 39.4263C37.0783 39.4766 37.0191 39.527 36.9581 39.5788C36.677 39.8191 36.3999 40.0614 36.1323 40.3167C34.1421 42.2129 31.6484 43.3392 28.863 43.2964C28.3954 43.2692 27.9723 43.1558 27.5252 43.0213C27.4378 42.9957 27.3505 42.97 27.2605 42.9436C26.062 42.5877 24.8734 42.1992 23.6844 41.8129C23.2478 41.6712 22.8111 41.53 22.3744 41.3889C22.1316 41.3102 21.8888 41.2314 21.6461 41.1522C21.0871 40.9702 20.5276 40.792 19.964 40.6245C19.8647 40.5945 19.7654 40.5645 19.6631 40.5336C19.4798 40.4786 19.2961 40.4249 19.112 40.3728C18.6281 40.2263 18.3326 40.1072 18.0701 39.6461C18.0274 39.2409 18.0168 38.9075 18.2654 38.5718C18.6112 38.3058 19.0214 38.3332 19.4373 38.3765C19.8505 38.4762 20.2508 38.6099 20.6538 38.7446C20.834 38.8034 21.0142 38.8621 21.1944 38.9208C21.3844 38.9829 21.5742 39.0456 21.764 39.1084C22.1548 39.2378 22.5461 39.3655 22.9375 39.4928C23.4543 39.6611 23.9708 39.8298 24.4872 39.999C25.3281 40.2744 26.1694 40.5487 27.0126 40.8171C27.22 40.8834 27.4269 40.9508 27.6338 41.0183C27.7564 41.0573 27.8789 41.0963 28.0051 41.1365C28.108 41.1697 28.211 41.2029 28.317 41.237C28.9477 41.3825 29.4169 41.3227 29.9841 41.0132C30.4007 40.6893 30.6715 40.3735 30.7654 39.8414C30.7729 39.2488 30.6664 38.8394 30.2771 38.3765C29.8092 37.9389 29.3185 37.6847 28.739 37.4183C28.5956 37.351 28.5956 37.351 28.4492 37.2823C28.2347 37.1818 28.02 37.0816 27.8052 36.9817C27.3394 36.7651 26.8749 36.5458 26.4102 36.3267C26.049 36.1564 25.6876 35.9863 25.326 35.8168C24.7338 35.5392 24.1419 35.2617 23.5549 34.9734C21.8715 34.1484 20.2474 33.6546 18.3569 33.6524C18.2508 33.65 18.1446 33.6476 18.0352 33.6452C16.2046 33.6388 14.5246 34.3051 12.8333 34.9341C12.6202 35.0124 12.4071 35.0906 12.1939 35.1687C11.6782 35.3579 11.163 35.5484 10.6482 35.7398C10.6478 35.7979 10.6474 35.856 10.647 35.9158C10.6368 37.3317 10.6262 38.7476 10.6151 40.1635C10.6097 40.8482 10.6045 41.5329 10.5996 42.2177C10.595 42.8787 10.5899 43.5398 10.5844 44.2008C10.5825 44.4528 10.5806 44.7047 10.579 44.9567C10.5766 45.3101 10.5737 45.6635 10.5706 46.017C10.57 46.1206 10.5695 46.2243 10.5689 46.3311C10.5632 46.9095 10.5271 47.4708 10.4529 48.0445C12.7841 48.0491 15.1153 48.0525 17.4465 48.0546C18.5291 48.0556 19.6117 48.057 20.6944 48.0592C21.6389 48.0612 22.5835 48.0624 23.5281 48.0629C24.0274 48.0631 24.5266 48.0637 25.0259 48.0651C29.4321 48.0773 33.593 47.9208 37.1131 44.9195C37.1944 44.8506 37.2757 44.7818 37.3595 44.7108C37.9152 44.2244 38.4353 43.7024 38.9517 43.1749C39.2267 42.8957 39.5051 42.6288 39.8039 42.3751C40.4383 41.8274 41.0163 41.2181 41.6052 40.6226C42.9429 39.2703 42.9429 39.2703 43.5423 38.7614C44.0921 38.2682 44.6017 37.7296 45.1209 37.2047C46.5457 35.7642 46.5457 35.7642 47.1191 35.2857C47.5365 34.9194 47.9125 34.4886 47.9857 33.9248C47.9939 33.3371 47.9736 32.9717 47.5623 32.5172C47.1715 32.1427 46.8748 31.9474 46.3233 31.9007C45.3154 31.9281 44.6761 32.7049 43.9961 33.3565ZM2.17653 35.0928C1.93915 35.4014 1.94448 35.7457 1.94374 36.1233C1.94332 36.2201 1.94291 36.3169 1.94248 36.4166C1.94252 36.5222 1.94257 36.6278 1.94261 36.7366C1.94229 36.8482 1.94196 36.9599 1.94162 37.075C1.94069 37.4446 1.9405 37.8142 1.9404 38.1839C1.94008 38.4405 1.93975 38.6971 1.93941 38.9538C1.93879 39.4919 1.93864 40.03 1.9387 40.5681C1.93876 41.1898 1.93773 41.8114 1.93619 42.433C1.93476 43.0315 1.93441 43.63 1.93447 44.2285C1.93435 44.4829 1.93392 44.7374 1.93316 44.9918C1.93221 45.3474 1.93249 45.703 1.93308 46.0585C1.93253 46.1639 1.93198 46.2693 1.93141 46.3779C1.93182 46.4749 1.93223 46.572 1.93265 46.672C1.9326 46.756 1.93255 46.8401 1.93249 46.9266C1.96769 47.2726 2.07138 47.5511 2.28639 47.8248C2.59569 48.0627 2.94206 48.057 3.32053 48.0587C3.41668 48.0593 3.51284 48.0599 3.6119 48.0606C3.71516 48.0607 3.81842 48.0608 3.9248 48.0609C4.08481 48.0614 4.0848 48.0614 4.24804 48.0619C4.47353 48.0624 4.69902 48.0626 4.92452 48.0626C5.26935 48.0628 5.61416 48.0646 5.95899 48.0664C6.17814 48.0667 6.3973 48.0669 6.61645 48.067C6.71951 48.0677 6.82257 48.0684 6.92876 48.0691C7.07345 48.0687 7.07345 48.0687 7.22106 48.0682C7.30554 48.0684 7.39002 48.0685 7.47706 48.0686C7.82437 48.0339 8.10303 47.9307 8.3777 47.7149C8.61508 47.4063 8.60975 47.062 8.61048 46.6844C8.6109 46.5876 8.61132 46.4908 8.61175 46.3911C8.6117 46.2855 8.61166 46.18 8.61161 46.0712C8.61194 45.9595 8.61227 45.8478 8.61261 45.7328C8.61353 45.3631 8.61372 44.9935 8.61383 44.6239C8.61414 44.3672 8.61447 44.1106 8.61481 43.854C8.61544 43.3158 8.61558 42.7777 8.61552 42.2396C8.61546 41.618 8.61649 40.9964 8.61804 40.3747C8.61947 39.7762 8.61982 39.1778 8.61976 38.5793C8.61987 38.3248 8.62031 38.0704 8.62106 37.8159C8.62202 37.4604 8.62174 37.1048 8.62115 36.7492C8.6217 36.6438 8.62225 36.5384 8.62281 36.4299C8.6224 36.3328 8.62199 36.2357 8.62157 36.1357C8.62162 36.0517 8.62168 35.9677 8.62173 35.8811C8.58654 35.5351 8.48285 35.2566 8.26784 34.983C7.95853 34.745 7.61217 34.7507 7.2337 34.7491C7.08947 34.7481 7.08947 34.7481 6.94233 34.7472C6.83907 34.7471 6.73581 34.747 6.62942 34.7468C6.52276 34.7465 6.41609 34.7462 6.30619 34.7459C6.08069 34.7454 5.8552 34.7451 5.62971 34.7452C5.28487 34.7449 4.94007 34.7432 4.59524 34.7413C4.37608 34.741 4.15693 34.7408 3.93777 34.7407C3.83471 34.74 3.73165 34.7393 3.62547 34.7386C3.52901 34.7389 3.43255 34.7392 3.33317 34.7395C3.20645 34.7393 3.20645 34.7393 3.07717 34.7391C2.72986 34.7738 2.45119 34.877 2.17653 35.0928Z" fill="black"/>
<path d="M28.1221 18.263C28.4272 18.4705 28.4272 18.4705 28.6103 18.7513C28.6409 19.0748 28.6409 19.0748 28.6103 19.3372C28.705 19.3553 28.7997 19.3735 28.8972 19.3921C29.5903 19.5956 30.1164 20.0799 30.5085 20.6739C30.8232 21.2504 31.0429 21.9244 30.9098 22.5839C30.782 22.9109 30.6621 23.0475 30.3681 23.2435C29.8892 23.3206 29.5106 23.3203 29.0986 23.0542C28.8815 22.7218 28.828 22.4641 28.7572 22.08C28.6839 21.7764 28.5771 21.6565 28.3174 21.4856C27.8973 21.2989 27.5561 21.2511 27.115 21.3941C26.8562 21.5102 26.7472 21.5919 26.5535 21.8091C26.4369 22.1432 26.4522 22.3212 26.5596 22.6575C26.8417 23.0482 27.1773 23.1553 27.6338 23.2435C27.827 23.2722 28.0203 23.3006 28.2136 23.3289C29.0721 23.4672 29.8081 23.8204 30.3323 24.5351C30.8145 25.2875 31.0414 25.9923 30.9213 26.8876C30.7171 27.7128 30.314 28.4491 29.5869 28.9075C28.9101 29.2981 28.9101 29.2981 28.6103 29.2981C28.6254 29.4281 28.6254 29.4281 28.6409 29.5606C28.6103 29.8841 28.6103 29.8841 28.4272 30.1648C28.0547 30.4182 27.8202 30.4434 27.3774 30.4197C27.0124 30.3452 26.8663 30.1846 26.6572 29.8841C26.631 29.7854 26.6048 29.6867 26.5779 29.585C26.4249 29.2065 26.2565 29.175 25.8977 29.0155C25.1381 28.6377 24.7037 28.0285 24.4111 27.2474C24.2818 26.6977 24.2135 26.2554 24.4966 25.7459C24.7047 25.4888 24.7732 25.407 25.0936 25.3686C25.4651 25.3568 25.7196 25.3638 26.0591 25.5262C26.3169 25.8447 26.384 26.1388 26.4882 26.5302C26.5824 26.8325 26.6864 26.9739 26.9502 27.1497C27.4763 27.387 27.8029 27.3342 28.3254 27.1516C28.5449 27.0539 28.5449 27.0539 28.708 26.7591C28.7351 26.5683 28.7351 26.5683 28.7263 26.3685C28.7254 26.2688 28.7254 26.2688 28.7244 26.167C28.7136 25.9566 28.7136 25.9566 28.6103 25.6849C28.1208 25.4539 27.567 25.3773 27.0356 25.3003C26.1397 25.1592 25.4174 24.756 24.8529 24.0362C24.3609 23.3025 24.193 22.5102 24.3589 21.6375C24.6037 20.6898 25.1421 20.0404 25.9736 19.5325C26.0622 19.5063 26.1509 19.4802 26.2422 19.4532C26.5716 19.2793 26.6309 19.0027 26.7556 18.6628C27.0125 18.1206 27.6095 18.1838 28.1221 18.263Z" fill="black"/>
<path d="M41.3116 17.4772C41.5919 17.6524 41.7502 17.7685 41.8976 18.0632C41.9543 18.7555 41.9543 18.7555 41.7145 19.1313C41.4354 19.4021 41.2703 19.4504 40.8905 19.467C40.5402 19.4613 40.4437 19.4377 40.1398 19.235C39.8999 18.8752 39.8011 18.5939 39.8468 18.1608C40.2097 17.4725 40.5706 17.3812 41.3116 17.4772Z" fill="black"/>
</g>
<defs>
<clipPath id="clip0_157_907">
<rect width="50" height="50" fill="white"/>
</clipPath>
</defs>
</svg>
