<svg width="50" height="50" viewBox="0 0 50 50" fill="none" xmlns="http://www.w3.org/2000/svg">
<path d="M47.6681 2.19288C48.5438 3.0035 49.1365 4.06796 49.2199 5.27401C49.2357 7.2018 48.3121 8.4563 47.1943 9.92947C46.8619 10.3688 46.5387 10.8144 46.217 11.2616C46.1374 11.3721 46.1374 11.3721 46.0562 11.4849C45.9539 11.6272 45.8516 11.7694 45.7493 11.9117C45.4431 12.3371 45.1342 12.7606 44.8254 13.1842C44.91 13.2808 44.9945 13.3775 45.0817 13.4771C46.2446 14.8384 46.2446 14.8384 46.2162 15.7881C46.1592 16.3377 45.9971 16.742 45.5883 17.1209C45.0531 17.5307 44.5933 17.7128 43.9159 17.6458C43.7633 17.6236 43.6107 17.6012 43.4582 17.5787C43.3615 17.5787 43.2648 17.5787 43.1652 17.5787C43.1568 17.6472 43.1483 17.7157 43.1396 17.7862C43.0222 18.5789 42.8039 19.17 42.1947 19.7088C41.5386 20.1775 40.9479 20.356 40.1379 20.3131C39.3895 20.1575 38.7416 19.8276 38.0749 19.4647C37.9348 19.3898 37.9348 19.3898 37.7918 19.3134C37.5643 19.1917 37.3372 19.0692 37.1105 18.9459C37.0003 19.037 36.8905 19.1286 36.7809 19.2205C36.7197 19.2715 36.6586 19.3225 36.5955 19.375C36.4052 19.5399 36.4052 19.5399 36.2316 19.8248C36.3122 19.8449 36.3927 19.8651 36.4757 19.8858C37.3222 20.2183 37.7967 20.7689 38.1847 21.5826C38.4387 22.3955 38.2741 23.1808 37.8918 23.9264C37.4582 24.5201 36.8754 24.8693 36.1767 25.0738C34.9354 25.2011 34.0407 24.7053 33.0063 24.0814C32.9238 24.0336 32.8414 23.9859 32.7564 23.9367C32.6829 23.8925 32.6093 23.8483 32.5335 23.8028C32.3246 23.7067 32.3246 23.7067 32.1135 23.8053C31.9101 23.943 31.7723 24.0901 31.6174 24.2804C31.5665 24.342 31.5156 24.4037 31.4632 24.4673C31.4066 24.5379 31.4066 24.5379 31.3488 24.6099C31.4334 24.6341 31.518 24.6583 31.6051 24.6832C32.3872 24.9728 32.8697 25.4847 33.2897 26.1847C33.5397 26.8493 33.5053 27.6649 33.2348 28.3148C32.8331 29.075 32.3512 29.4971 31.5441 29.7857C30.252 30.0857 29.2525 29.4924 28.1582 28.8666C28.0279 28.7949 28.0279 28.7949 27.895 28.7218C27.8173 28.6776 27.7397 28.6335 27.6597 28.588C27.4425 28.4916 27.4425 28.4916 27.228 28.5918C27.0431 28.7175 26.9209 28.841 26.7834 29.0167C26.7109 29.1093 26.6383 29.202 26.5636 29.2974C26.6251 29.3295 26.6865 29.3616 26.7498 29.3947C27.534 29.8305 28.2247 30.373 28.5168 31.2506C28.6917 32.0238 28.6021 32.7288 28.2055 33.4173C27.7041 34.1491 27.1419 34.5017 26.2707 34.6685C24.9332 34.8172 23.689 33.9161 22.5597 33.3014C22.1187 33.6701 21.6991 34.051 21.2963 34.461C21.2482 34.5096 21.2 34.5582 21.1504 34.6083C21.034 34.7258 20.9179 34.8436 20.8019 34.9615C21.3386 35.6169 21.9394 36.2044 22.5414 36.7987C22.7458 37.0004 22.9498 37.2025 23.1537 37.4048C23.2435 37.4935 23.3334 37.5823 23.426 37.6737C23.6556 37.9139 23.718 38.0282 23.7926 38.349C23.7085 38.7951 23.51 38.9048 23.1483 39.1607C23.0508 39.2252 22.9532 39.2896 22.8527 39.356C22.7936 39.3959 22.7344 39.4359 22.6735 39.477C20.7786 40.7486 20.7786 40.7486 19.63 40.6256C19.0347 40.4941 18.5527 40.3122 18.0675 39.942C17.6895 40.0942 17.4763 40.3319 17.205 40.6313C16.0333 41.8941 14.9867 42.8177 13.3522 43.4506C13.0004 43.5895 12.6586 43.7472 12.3151 43.9051C11.3754 44.3365 11.3754 44.3365 11.134 44.3365C11.1279 44.4574 11.1219 44.5782 11.1156 44.7027C10.9932 45.7567 10.4762 46.598 9.76676 47.3639C9.71591 47.4189 9.66505 47.4739 9.61265 47.5306C8.47844 48.6161 6.99175 48.8878 5.4882 48.8592C4.11518 48.7999 2.87972 48.0634 1.95426 47.0709C1.07177 45.939 0.708837 44.6612 0.803752 43.2341C0.987655 41.7522 1.659 40.5615 2.80876 39.6093C3.29559 39.2645 3.86413 38.8939 4.46872 38.8469C4.87634 38.8007 5.22553 38.7535 5.49873 38.4207C5.8091 37.9238 6.02674 37.3809 6.25114 36.8414C6.32207 36.679 6.3934 36.5167 6.46514 36.3546C6.56661 36.1254 6.66747 35.8961 6.76507 35.6651C7.03546 35.0275 7.30035 34.4358 7.84416 33.9849C8.31478 33.5792 8.75521 33.1502 9.19303 32.7093C9.29204 32.6097 9.29204 32.6097 9.39304 32.5081C9.55037 32.3495 9.7075 32.1908 9.86442 32.0318C9.75103 31.732 9.63635 31.4925 9.46159 31.2201C9.11496 30.5255 9.14833 29.6234 9.37271 28.8931C9.79456 27.998 10.4294 26.9747 11.134 26.2701C11.4452 26.2152 11.4452 26.2152 11.8175 26.2701C12.0175 26.4267 12.1793 26.5947 12.347 26.7851C12.5091 26.9759 12.5091 26.9759 12.7941 27.149C12.789 27.048 12.789 27.048 12.7838 26.9449C12.758 26.0506 12.8668 25.4249 13.4472 24.7259C14.04 24.1083 14.5779 23.9004 15.4209 23.8077C16.3956 23.8752 17.2059 24.371 18.0355 24.8455C18.1224 24.8933 18.2092 24.9411 18.2987 24.9903C18.3764 25.0344 18.454 25.0786 18.534 25.1241C18.7509 25.2202 18.7509 25.2202 18.9643 25.1216C19.1666 24.9836 19.3046 24.8362 19.4591 24.6466C19.51 24.5849 19.5609 24.5232 19.6133 24.4597C19.6699 24.389 19.6699 24.389 19.7277 24.317C19.6431 24.2928 19.5585 24.2686 19.4714 24.2437C18.76 23.9803 18.2449 23.5243 17.868 22.8708C17.5884 22.2394 17.5574 21.5013 17.7513 20.841C18.0975 20.02 18.602 19.5035 19.426 19.1614C20.5826 18.8075 21.5583 19.3027 22.5695 19.8234C22.8747 19.9864 23.1723 20.1613 23.4619 20.3505C23.6385 20.432 23.6385 20.432 23.835 20.3436C24.0266 20.2141 24.1511 20.0917 24.2931 19.9102C24.3656 19.8176 24.4382 19.7249 24.5129 19.6295C24.4351 19.5892 24.3573 19.5489 24.2771 19.5074C23.5019 19.0849 23.0429 18.6993 22.6269 17.9266C22.3964 17.0675 22.4224 16.296 22.8649 15.5096C23.3031 14.8683 23.8979 14.4863 24.6483 14.2996C25.6992 14.1299 26.4564 14.5563 27.3533 15.0391C27.7641 15.2549 28.1906 15.4372 28.6144 15.6256C28.8722 15.4 29.13 15.1744 29.3957 14.942C29.0422 14.6664 29.0422 14.6664 28.7952 14.5231C28.1058 14.1094 27.7383 13.6163 27.4059 12.8912C27.2367 12.0787 27.3555 11.3861 27.7355 10.6451C28.169 10.0513 28.7519 9.70214 29.4506 9.49765C30.6919 9.37034 31.5866 9.86621 32.621 10.49C32.7035 10.5378 32.7859 10.5856 32.8709 10.6348C32.9444 10.679 33.018 10.7231 33.0938 10.7686C33.3012 10.8639 33.3012 10.8639 33.5071 10.7715C33.7885 10.5797 34.0184 10.3395 34.2541 10.0958C34.3283 10.0203 34.3283 10.0203 34.404 9.9432C34.5254 9.81954 34.6461 9.69527 34.7668 9.57089C34.627 9.24916 34.4557 9.04465 34.203 8.80299C34.1304 8.73243 34.0579 8.66187 33.9832 8.58918C33.8311 8.44299 33.6788 8.29701 33.5262 8.15125C32.8967 7.53749 32.4669 7.01566 32.4146 6.10905C32.4322 5.58709 32.5419 5.1743 32.896 4.78115C33.5348 4.2044 33.9746 4.04948 34.84 4.0659C35.3114 4.11973 35.5835 4.28657 35.9386 4.59042C36.0187 4.65852 36.0988 4.72663 36.1813 4.79679C36.3967 4.98513 36.6083 5.17649 36.8175 5.37167C37.2939 5.21472 37.6609 4.94237 38.0627 4.65145C38.2117 4.54488 38.3607 4.43833 38.5097 4.33178C38.5856 4.27731 38.6614 4.22283 38.7396 4.1667C39.1585 3.86655 39.5801 3.57025 40.0018 3.27401C40.3585 3.02303 40.7132 2.76973 41.0652 2.51217C43.1371 1.00376 45.4721 0.463162 47.6681 2.19288ZM42.1886 3.32089C42.0638 3.40784 41.939 3.49468 41.814 3.58143C40.9984 4.15055 40.1921 4.73278 39.3886 5.31888C38.8982 5.6753 38.3985 6.01533 37.8918 6.34823C38.0489 6.74039 38.325 7.003 38.6202 7.29418C38.6745 7.34853 38.7289 7.40288 38.7848 7.45888C38.964 7.63794 39.1439 7.81629 39.3238 7.99465C39.4484 8.11885 39.5729 8.2431 39.6974 8.36738C40.0248 8.69404 40.3528 9.02011 40.6809 9.34605C41.0157 9.6789 41.35 10.0123 41.6843 10.3457C42.3402 10.9994 42.9966 11.6525 43.6535 12.3053C43.9782 12.197 44.0192 12.144 44.2081 11.8753C44.2579 11.8054 44.3078 11.7354 44.3591 11.6633C44.4122 11.5872 44.4654 11.511 44.5202 11.4325C44.6345 11.2713 44.7488 11.1102 44.8631 10.9491C44.9216 10.8663 44.98 10.7834 45.0403 10.698C45.2611 10.386 45.485 10.0764 45.7093 9.76692C45.868 9.5479 46.0261 9.32845 46.1842 9.10893C46.3773 8.8409 46.5721 8.5742 46.7686 8.3086C47.4452 7.38941 48.0131 6.56037 47.9504 5.37167C47.7579 4.31064 47.3178 3.50889 46.4306 2.88754C44.95 1.98523 43.5287 2.36585 42.1886 3.32089ZM33.9489 5.53646C33.7658 5.79703 33.6925 5.93079 33.6925 6.25058C33.9712 6.72981 34.3206 7.10127 34.7134 7.48921C34.7738 7.54962 34.8343 7.61003 34.8966 7.67227C35.024 7.79946 35.1518 7.92641 35.2797 8.05314C35.4733 8.245 35.6662 8.43762 35.8589 8.63037C35.9836 8.75459 36.1083 8.87876 36.2331 9.00288C36.3182 9.08775 36.3182 9.08775 36.4049 9.17434C36.6834 9.44973 36.966 9.71433 37.2644 9.96809C37.8216 10.4509 38.3336 10.9802 38.8522 11.5036C39.0441 11.6972 39.2364 11.8904 39.4287 12.0835C39.9749 12.6322 40.5206 13.1813 41.0659 13.7309C41.4007 14.0684 41.736 14.4053 42.0716 14.742C42.199 14.87 42.3262 14.9982 42.4533 15.1266C42.6304 15.3056 42.8081 15.484 42.986 15.6623C43.0382 15.7153 43.0903 15.7683 43.1441 15.823C43.3923 16.0705 43.6122 16.2886 43.9465 16.4068C44.3235 16.399 44.4845 16.3509 44.7704 16.1016C44.9763 15.7228 44.9331 15.5522 44.8254 15.1373C44.6595 14.8941 44.4578 14.6989 44.2451 14.4964C44.1864 14.4383 44.1277 14.3802 44.0673 14.3204C43.8798 14.1355 43.6904 13.9528 43.5009 13.7701C43.3761 13.6474 43.2514 13.5246 43.1269 13.4016C42.4523 12.7385 42.4523 12.7385 41.7467 12.1089C41.1685 11.6068 40.6362 11.0565 40.0967 10.5136C39.8946 10.3102 39.6921 10.1071 39.4896 9.90413C39.0604 9.47391 38.6317 9.0433 38.203 8.61264C37.7044 8.11165 37.2055 7.61082 36.7063 7.1104C36.5068 6.91033 36.3077 6.70997 36.1086 6.5096C35.9867 6.38741 35.8649 6.26523 35.743 6.14307C35.6878 6.08732 35.6325 6.03157 35.5756 5.97412C35.1278 5.51252 35.1278 5.51252 34.5287 5.33505C34.1812 5.34286 34.1812 5.34286 33.9489 5.53646ZM35.5751 10.6085C35.4661 10.7181 35.3574 10.828 35.2489 10.9381C35.1935 10.994 35.138 11.0499 35.0809 11.1074C34.9434 11.2461 34.8062 11.385 34.6691 11.524C35.0288 11.8313 35.402 12.0591 35.8227 12.2705C35.9179 12.3193 35.9179 12.3193 36.0151 12.3691C36.2172 12.4724 36.4197 12.575 36.6222 12.6776C36.8212 12.7789 37.0201 12.8803 37.2189 12.9818C37.3496 13.0486 37.4803 13.1151 37.6112 13.1815C37.9298 13.3438 38.2459 13.5094 38.5586 13.6829C38.6171 13.7153 38.6756 13.7476 38.7359 13.7809C38.8951 13.8695 39.0538 13.9592 39.2124 14.0488C39.2922 14.0858 39.372 14.1227 39.4543 14.1607C39.5187 14.1285 39.5832 14.0963 39.6496 14.0631C39.1232 13.5342 38.5965 13.0058 38.0695 12.4776C37.89 12.2977 37.7107 12.1177 37.5315 11.9376C37.2745 11.6795 37.0173 11.4217 36.7599 11.1639C36.6793 11.0827 36.5986 11.0016 36.5155 10.9179C36.4412 10.8436 36.3669 10.7693 36.2904 10.6928C36.1918 10.5939 36.1918 10.5939 36.0913 10.493C35.8307 10.2525 35.8586 10.3351 35.5751 10.6085ZM28.9257 11.2982C28.6753 11.6774 28.5722 11.9495 28.6144 12.4029C29.0053 13.4056 30.1402 13.7748 31.0375 14.2523C31.1584 14.3168 31.2793 14.3814 31.4002 14.446C32.3318 14.9429 33.269 15.4288 34.2075 15.9126C34.8872 16.2639 35.5613 16.6239 36.2316 16.9928C36.9979 17.4131 37.7662 17.8294 38.5396 18.2364C38.7115 18.3272 38.8829 18.419 39.0543 18.5108C39.9737 19.0099 39.9737 19.0099 40.9801 18.9398C41.3416 18.7323 41.6188 18.5445 41.798 18.1646C41.8844 17.6984 41.8658 17.3397 41.6714 16.905C41.3312 16.4331 40.7581 16.2128 40.2538 15.9552C40.0813 15.8647 39.9088 15.7742 39.7362 15.6837C39.5605 15.5919 39.3844 15.5008 39.2082 15.41C38.8036 15.2016 38.4001 14.9911 37.9966 14.7806C37.8117 14.6842 37.6266 14.5879 37.4415 14.4919C36.822 14.17 36.2084 13.8385 35.5968 13.5016C34.5717 12.9371 33.5326 12.4008 32.4909 11.8676C32.3669 11.8041 32.243 11.7405 32.119 11.677C32.0598 11.6467 32.0006 11.6164 31.9395 11.5852C31.5363 11.3778 31.1403 11.1604 30.7493 10.9308C30.0363 10.5763 29.4808 10.7677 28.9257 11.2982ZM30.368 15.6988C30.2644 15.8076 30.2644 15.8076 30.1586 15.9185C30.0887 15.9911 30.0189 16.0636 29.9469 16.1383C29.8939 16.1947 29.8409 16.2511 29.7863 16.3092C30.1751 16.6454 30.5766 16.873 31.0322 17.1019C31.1048 17.1389 31.1774 17.176 31.2523 17.2142C31.4836 17.3322 31.7152 17.4494 31.9469 17.5665C32.1759 17.6828 32.4048 17.7992 32.6336 17.9158C32.7817 17.9912 32.9299 18.0664 33.0781 18.1414C33.5805 18.3964 34.0713 18.6671 34.555 18.9562C34.8065 19.0599 34.9086 19.0478 35.1574 18.9459C35.3499 18.7886 35.3499 18.7886 35.5236 18.598C35.5835 18.5354 35.6434 18.4729 35.7052 18.4084C35.75 18.3602 35.7948 18.312 35.841 18.2623C35.5371 18.0209 35.2217 17.8369 34.8793 17.6546C34.7666 17.5944 34.6538 17.5342 34.5377 17.4721C34.4167 17.4079 34.2957 17.3438 34.1747 17.2796C34.0514 17.214 33.928 17.1484 33.8047 17.0828C33.5581 16.9516 33.3114 16.8206 33.0646 16.6898C32.7535 16.5247 32.4432 16.358 32.1331 16.1909C31.9673 16.1021 31.8015 16.0134 31.6357 15.9246C31.5603 15.8838 31.485 15.8429 31.4073 15.8008C30.8798 15.4834 30.8798 15.4834 30.368 15.6988ZM24.0856 16.0162C23.8513 16.3046 23.8106 16.5647 23.7987 16.9256C23.7951 16.9978 23.7914 17.0699 23.7877 17.1442C23.848 17.4911 23.9752 17.7231 24.2199 17.9693C24.5526 18.1965 24.9053 18.3779 25.2636 18.5614C25.419 18.6432 25.419 18.6432 25.5775 18.7267C25.9054 18.899 26.2344 19.0691 26.5636 19.2389C26.7711 19.3466 26.9785 19.4544 27.1858 19.5623C27.4924 19.7218 27.799 19.881 28.1059 20.0397C28.7565 20.3765 29.4011 20.7223 30.0426 21.076C31.0637 21.6387 32.0987 22.1728 33.1364 22.7039C33.2604 22.7674 33.3843 22.8309 33.5083 22.8945C33.5675 22.9248 33.6267 22.9551 33.6877 22.9863C34.091 23.1937 34.487 23.411 34.878 23.6407C35.2086 23.8051 35.4706 23.8287 35.841 23.8287C36.3406 23.6461 36.6775 23.3853 36.9457 22.9254C37.0366 22.5617 37.0417 22.2272 36.9152 21.8756C36.5072 21.2251 35.885 20.9736 35.2123 20.6427C35.0322 20.5521 34.8524 20.4611 34.6726 20.37C34.5514 20.3086 34.4301 20.2473 34.3088 20.1863C33.7792 19.919 33.2591 19.6364 32.7404 19.3487C31.8134 18.8373 30.8742 18.3519 29.9322 17.8689C28.9956 17.3884 28.0659 16.8973 27.1446 16.3878C25.6374 15.4641 25.6374 15.4641 24.0856 16.0162ZM19.3371 20.7037C19.0523 21.017 18.9231 21.2625 18.8976 21.6803C18.924 22.1007 19.0533 22.3385 19.3371 22.6568C19.9844 23.1606 20.7242 23.5192 21.453 23.8876C21.7924 24.0592 22.1309 24.2327 22.4693 24.4062C22.5702 24.4579 22.5702 24.4579 22.673 24.5106C23.2264 24.7948 23.7732 25.09 24.3175 25.3912C25.3072 25.9377 26.3104 26.4565 27.3165 26.9718C27.8805 27.2609 28.4436 27.5506 29.0009 27.8528C29.0855 27.8986 29.1702 27.9443 29.2575 27.9914C29.4084 28.0734 29.5589 28.1561 29.7087 28.2399C30.18 28.495 30.6367 28.6933 31.1821 28.5585C31.6307 28.3227 31.9103 28.1133 32.13 27.6373C32.193 27.2689 32.1667 26.9522 32.0324 26.5997C31.4509 25.9091 30.6184 25.535 29.8262 25.137C29.4853 24.9657 29.1457 24.7919 28.8059 24.6183C28.7384 24.5839 28.6709 24.5495 28.6013 24.514C28.0466 24.2305 27.4992 23.9352 26.9543 23.6334C25.9647 23.0869 24.9613 22.5688 23.9558 22.0525C23.828 21.9869 23.7003 21.9213 23.5725 21.8557C23.5105 21.8239 23.4485 21.792 23.3845 21.7592C22.7688 21.4426 22.1563 21.12 21.5459 20.7933C20.6986 20.3428 20.1741 20.1514 19.3371 20.7037ZM25.5924 20.484C25.4871 20.5927 25.4871 20.5927 25.3796 20.7037C25.3088 20.7762 25.2381 20.8487 25.1652 20.9234C25.111 20.9798 25.0569 21.0362 25.0011 21.0943C25.2433 21.3696 25.5054 21.5123 25.8308 21.6772C25.993 21.7602 25.993 21.7602 26.1585 21.8448C26.2752 21.9039 26.392 21.963 26.5087 22.0221C26.748 22.1439 26.987 22.2661 27.2259 22.3887C27.3155 22.4346 27.3155 22.4346 27.4069 22.4814C28.0447 22.8101 28.6701 23.1614 29.2888 23.5247C29.3622 23.5665 29.4356 23.6083 29.5113 23.6513C29.6058 23.7065 29.6058 23.7065 29.7022 23.7629C29.9331 23.8465 30.0475 23.8174 30.2746 23.731C30.4671 23.5738 30.4671 23.5738 30.6408 23.3831C30.7007 23.3206 30.7606 23.258 30.8224 23.1936C30.8672 23.1453 30.912 23.0971 30.9582 23.0474C30.587 22.7286 30.1968 22.4981 29.7619 22.2796C29.6941 22.2449 29.6262 22.2102 29.5563 22.1745C29.3403 22.0641 29.1239 21.9546 28.9074 21.8451C28.6945 21.7368 28.4817 21.6284 28.2689 21.5199C28.1296 21.4489 27.9902 21.3779 27.8508 21.3071C27.2999 21.0263 26.7568 20.7327 26.2161 20.4328C25.88 20.2638 25.88 20.2638 25.5924 20.484ZM20.7001 25.2691C20.5964 25.3779 20.5964 25.3779 20.4906 25.4889C20.4208 25.5614 20.3509 25.6339 20.2789 25.7086C20.2259 25.765 20.1729 25.8214 20.1183 25.8795C20.3695 26.1689 20.6548 26.3143 20.9942 26.4872C21.0517 26.5167 21.1091 26.5462 21.1684 26.5766C21.3552 26.6723 21.5424 26.7673 21.7297 26.8621C21.987 26.9932 22.2442 27.1245 22.5014 27.2558C22.565 27.2883 22.6287 27.3207 22.6943 27.3542C23.0762 27.5495 23.4542 27.7504 23.8296 27.9577C23.9144 28.0042 23.9991 28.0506 24.0864 28.0985C24.2411 28.1838 24.3951 28.2703 24.5483 28.3581C24.7727 28.4856 24.7727 28.4856 25.0988 28.6139C25.4208 28.505 25.5952 28.3243 25.8068 28.0645C25.8577 28.0029 25.9085 27.9412 25.9609 27.8776C25.9987 27.8305 26.0364 27.7835 26.0754 27.7349C24.8159 27.0401 23.5496 26.3609 22.2706 25.7028C22.1231 25.6267 22.1231 25.6267 21.9727 25.5491C21.8856 25.5044 21.7985 25.4597 21.7088 25.4137C21.4855 25.2935 21.4855 25.2935 21.1925 25.0982C20.8929 25.0665 20.8929 25.0665 20.7001 25.2691ZM14.6496 25.3912C14.3291 25.6907 14.1409 25.9377 14.0636 26.3678C14.0636 26.7981 14.1159 26.9913 14.3566 27.3443C14.6828 27.6287 15.0166 27.8427 15.398 28.0455C15.5063 28.1033 15.6145 28.1611 15.726 28.2206C15.8433 28.2825 15.9605 28.3444 16.0778 28.4063C16.2 28.4713 16.3222 28.5363 16.4444 28.6014C17.3815 29.0992 18.3237 29.5869 19.2668 30.0732C19.9383 30.4202 20.6039 30.7759 21.2658 31.1407C22.0933 31.5947 22.9242 32.0419 23.7601 32.4802C23.8943 32.5508 24.0283 32.6218 24.162 32.6933C24.3503 32.7938 24.5394 32.8927 24.7288 32.9912C24.8378 33.0487 24.9469 33.1062 25.0593 33.1654C25.5422 33.3629 25.9758 33.4648 26.4843 33.2952C26.8943 33.0128 27.1978 32.7846 27.2911 32.2855C27.3162 31.7098 27.2106 31.4241 26.8566 30.9576C26.6014 30.7691 26.6014 30.7691 26.3061 30.6246C26.1966 30.5669 26.087 30.5092 25.9741 30.4498C25.8553 30.3891 25.7365 30.3285 25.6176 30.2679C25.4944 30.2037 25.3712 30.1393 25.2481 30.0748C24.9339 29.9105 24.6188 29.748 24.3034 29.5859C23.9239 29.3907 23.5455 29.1934 23.1669 28.9966C22.9647 28.8915 22.7624 28.7867 22.5601 28.682C21.8301 28.3038 21.1085 27.9121 20.3885 27.5152C19.4401 26.9955 18.4778 26.503 17.5151 26.0106C17.4518 25.9781 17.3885 25.9457 17.3232 25.9122C17.1503 25.8237 16.9773 25.7353 16.8043 25.647C16.6136 25.5462 16.4256 25.44 16.2419 25.3271C15.6721 24.9949 15.2036 25.0731 14.6496 25.3912ZM11.5246 27.9303C11.3671 28.1328 11.2219 28.3343 11.079 28.5467C11.0388 28.6048 10.9986 28.6629 10.9571 28.7228C10.6696 29.1439 10.5323 29.4548 10.5175 29.9627C10.5138 30.0439 10.5102 30.1251 10.5064 30.2088C10.5957 30.768 11.0312 31.1722 11.4188 31.5592C11.4652 31.6058 11.5117 31.6524 11.5595 31.7004C11.7117 31.8529 11.8645 32.0048 12.0174 32.1566C12.1245 32.2635 12.2316 32.3705 12.3386 32.4776C12.5625 32.7014 12.7868 32.9248 13.0114 33.1481C13.2973 33.4323 13.5826 33.7172 13.8676 34.0024C14.0886 34.2233 14.3098 34.444 14.5312 34.6647C14.6363 34.7695 14.7415 34.8745 14.8465 34.9794C15.3614 35.4935 15.8793 35.9983 16.4321 36.472C16.6982 36.7055 16.9433 36.9575 17.189 37.2122C17.2946 37.3199 17.4002 37.4276 17.5058 37.5353C17.6685 37.7016 17.8308 37.8681 17.9924 38.0354C18.1509 38.1993 18.3107 38.362 18.4708 38.5244C18.5182 38.5742 18.5656 38.6239 18.6145 38.6752C19.0022 39.0658 19.3932 39.289 19.9352 39.3976C20.7616 39.3477 21.4251 38.751 22.0715 38.2818C21.6522 37.781 21.2132 37.3116 20.7508 36.8505C20.6475 36.7471 20.6475 36.7471 20.5422 36.6416C20.3974 36.4967 20.2524 36.352 20.1074 36.2073C19.8874 35.9879 19.6679 35.7679 19.4485 35.5478C19.3068 35.4063 19.1652 35.2647 19.0235 35.1233C18.9589 35.0584 18.8943 34.9936 18.8277 34.9268C18.5294 34.63 18.2284 34.3427 17.9078 34.07C17.3565 33.5934 16.8505 33.07 16.3379 32.5527C16.1486 32.3616 15.9588 32.1709 15.769 31.9802C15.23 31.4388 14.6915 30.8968 14.1534 30.3544C13.823 30.0214 13.4921 29.6889 13.161 29.3566C13.0351 29.2301 12.9093 29.1033 12.7837 28.9764C12.6091 28.7999 12.4339 28.6241 12.2586 28.4483C12.2066 28.3955 12.1547 28.3427 12.1012 28.2883C11.859 28.0135 11.859 28.0135 11.5246 27.9303ZM16.1144 29.8834C15.9694 30.0767 15.9694 30.0767 15.8215 30.274C17.0783 31.5308 18.3351 32.7877 19.63 34.0826C19.9515 33.9219 20.0985 33.8333 20.3365 33.5905C20.4206 33.5055 20.4206 33.5055 20.5063 33.4188C20.5636 33.3599 20.6208 33.301 20.6799 33.2403C20.7386 33.1806 20.7974 33.121 20.858 33.0595C21.0025 32.9127 21.1464 32.7653 21.2902 32.6178C21.0204 32.4056 20.751 32.2373 20.4456 32.081C20.3565 32.0351 20.2673 31.9891 20.1755 31.9417C20.0801 31.8929 19.9847 31.8441 19.8864 31.7938C18.9791 31.326 18.0807 30.8446 17.1895 30.3469C17.1052 30.3003 17.021 30.2537 16.9342 30.2057C16.8605 30.1646 16.7869 30.1235 16.711 30.0811C16.5121 29.9845 16.3303 29.928 16.1144 29.8834ZM10.6952 33.0359C10.6392 33.0935 10.5832 33.1512 10.5255 33.2106C10.4631 33.274 10.4008 33.3375 10.3365 33.4028C10.2713 33.47 10.2062 33.5373 10.1391 33.6065C9.67453 34.0836 9.20447 34.5352 8.69255 34.9615C9.13597 35.4931 9.60571 35.9872 10.0964 36.4752C10.1663 36.5456 10.2363 36.6159 10.3085 36.6884C10.3782 36.758 10.4479 36.8277 10.5198 36.8994C10.5815 36.961 10.6432 37.0226 10.7068 37.0861C10.9037 37.2723 11.1043 37.4498 11.3093 37.6269C11.7091 37.9748 12.0853 38.3417 12.4584 38.7178C12.5245 38.7841 12.5906 38.8503 12.6587 38.9185C12.8668 39.1272 13.0746 39.3362 13.2824 39.5452C13.4247 39.688 13.5669 39.8307 13.7093 39.9734C14.0555 40.3208 14.4015 40.6684 14.7472 41.0162C15.0913 40.8542 15.3135 40.6679 15.5819 40.3959C15.6643 40.3128 15.7468 40.2298 15.8318 40.1442C15.917 40.0573 16.0022 39.9704 16.09 39.8809C16.1767 39.7933 16.2635 39.7057 16.3528 39.6154C16.5668 39.3992 16.7803 39.1825 16.9933 38.9654C16.8672 38.6881 16.7347 38.4872 16.5193 38.2724C16.4632 38.2159 16.4071 38.1595 16.3492 38.1014C16.2886 38.0415 16.228 37.9815 16.1655 37.9198C16.0712 37.8255 16.0712 37.8255 15.9749 37.7293C15.8417 37.5964 15.7082 37.4637 15.5745 37.3312C15.3721 37.1305 15.1704 36.9291 14.9689 36.7275C14.8388 36.598 14.7088 36.4685 14.5786 36.339C14.5192 36.2797 14.4597 36.2203 14.3985 36.1592C14.0336 35.7983 13.6564 35.4572 13.2683 35.1214C13.0246 34.9064 12.7964 34.6784 12.569 34.4461C12.4799 34.3558 12.3908 34.2655 12.299 34.1724C12.1606 34.0316 12.0223 33.8906 11.8843 33.7494C11.7488 33.6109 11.6127 33.4731 11.4765 33.3353C11.3966 33.2537 11.3167 33.1722 11.2343 33.0881C11.0056 32.8833 10.934 32.8309 10.6952 33.0359ZM7.9113 36.231C7.73165 36.601 7.55284 36.9714 7.37419 37.3419C7.32295 37.4474 7.27172 37.5529 7.21893 37.6616C7.17046 37.7623 7.122 37.863 7.07206 37.9667C7.02706 38.0598 6.98205 38.1529 6.93569 38.2488C6.82417 38.4656 6.82417 38.4656 6.83708 38.6724C6.93036 38.6998 7.02364 38.7271 7.11975 38.7552C8.66364 39.2262 9.78609 39.9496 10.5892 41.3786C10.8352 41.8913 10.9869 42.4218 11.134 42.9693C11.5027 42.8138 11.8707 42.6567 12.2387 42.4994C12.3434 42.4552 12.448 42.4111 12.5559 42.3656C12.6563 42.3225 12.7567 42.2794 12.8601 42.235C12.9527 42.1956 13.0452 42.1562 13.1406 42.1157C13.3701 41.9979 13.4981 41.8844 13.673 41.6998C13.0756 41.1001 12.478 40.5007 11.88 39.9017C11.6022 39.6234 11.3246 39.3451 11.0472 39.0666C10.7789 38.7972 10.5104 38.5282 10.2417 38.2593C10.1398 38.1571 10.038 38.055 9.93622 37.9527C9.03232 36.9307 9.03232 36.9307 7.9113 36.231ZM2.98919 41.2012C2.28636 42.1274 1.94711 43.1965 2.09198 44.3506C2.32709 45.4888 2.93822 46.4148 3.90739 47.0648C4.03577 47.1354 4.16602 47.2027 4.29801 47.2662C4.38997 47.3126 4.38997 47.3126 4.48379 47.36C5.35444 47.7243 6.53133 47.6979 7.42301 47.4066C8.41369 46.9796 9.23358 46.2049 9.68742 45.2253C10.0742 44.2248 10.039 43.284 9.66911 42.2857C9.12498 41.1546 8.39216 40.5033 7.2277 40.0396C5.68597 39.5933 4.09248 40.0197 2.98919 41.2012Z" fill="black"/>
<path d="M7.27694 41.3086C7.91242 41.684 8.42492 42.2307 8.65062 42.9429C8.79124 43.6776 8.78723 44.4604 8.39999 45.1172C7.9501 45.7496 7.42536 46.2352 6.64218 46.3868C5.63929 46.4687 4.92024 46.3457 4.12143 45.7276C3.66294 45.3095 3.35536 44.7017 3.2986 44.0819C3.27577 43.1519 3.47648 42.4431 4.12257 41.7553C4.9959 40.9919 6.21271 40.8317 7.27694 41.3086ZM4.80502 42.9383C4.62223 43.2942 4.58032 43.6449 4.5914 44.043C4.76959 44.5677 5.0746 44.8706 5.56796 45.1172C6.01902 45.1723 6.35882 45.1604 6.77035 44.9585C7.10368 44.664 7.37241 44.401 7.46081 43.9499C7.48931 43.4522 7.36395 43.1569 7.0328 42.7735C6.62688 42.4148 6.30863 42.3198 5.78082 42.3447C5.36389 42.4194 5.10566 42.6584 4.80502 42.9383Z" fill="black"/>
<path d="M46.2209 4.03105C46.6784 4.51226 46.7988 4.95735 46.8285 5.61758C46.8055 6.30435 46.6098 6.69432 46.143 7.18237C45.6402 7.64146 45.1201 7.76081 44.4589 7.74084C43.8118 7.67261 43.3528 7.4157 42.9143 6.93708C42.5061 6.38242 42.4155 5.79555 42.5118 5.12205C42.6964 4.42299 43.1344 3.96858 43.7402 3.59732C44.5902 3.26245 45.5312 3.44054 46.2209 4.03105ZM43.966 5.01333C43.7987 5.23921 43.7594 5.38462 43.7463 5.66641C43.8604 5.9728 43.9557 6.1837 44.2101 6.39273C44.541 6.47543 44.7845 6.43224 45.1135 6.35C45.3638 6.20548 45.3638 6.20548 45.5041 5.95938C45.5773 5.62175 45.5773 5.62175 45.5041 5.27578C45.2957 5.00954 45.1271 4.83967 44.8205 4.69595C44.4805 4.68533 44.2338 4.81245 43.966 5.01333Z" fill="black"/>
</svg>
