<svg width="50" height="36" viewBox="0 0 50 36" fill="none" xmlns="http://www.w3.org/2000/svg">
<path d="M16.2326 0.406274C16.338 0.405839 16.338 0.405839 16.4456 0.405395C16.6807 0.40455 16.9158 0.4044 17.1509 0.404254C17.3197 0.403801 17.4884 0.403311 17.6572 0.402784C18.1155 0.401505 18.5737 0.400874 19.0319 0.40044C19.3185 0.400153 19.605 0.399752 19.8915 0.399316C20.7887 0.397981 21.6858 0.397037 22.583 0.39666C23.6174 0.396222 24.6517 0.39451 25.686 0.391679C26.4864 0.389565 27.2867 0.388583 28.0871 0.388453C28.5647 0.38835 29.0423 0.387777 29.5199 0.386029C29.9695 0.384415 30.4191 0.384211 30.8687 0.385066C31.0332 0.385141 31.1976 0.38472 31.3621 0.383752C32.4985 0.377454 33.5368 0.37926 34.402 1.20429C34.9054 1.79024 35.0886 2.44948 35.0761 3.20968C35.0125 3.94254 34.7284 4.52537 34.1766 5.00983C33.4804 5.46932 32.8789 5.56657 32.0579 5.5458C31.953 5.54511 31.8482 5.54442 31.7402 5.5437C31.4089 5.54099 31.0777 5.53487 30.7464 5.52863C30.5203 5.52618 30.2942 5.52395 30.0681 5.52196C29.5169 5.51702 28.9661 5.50746 28.4148 5.49811C28.4148 6.30378 28.4148 7.10944 28.4148 7.93952C28.6714 7.93499 28.9279 7.93046 29.1923 7.92579C29.4437 7.92273 29.6952 7.92037 29.9467 7.91806C30.12 7.91611 30.2933 7.91346 30.4666 7.91005C31.5931 7.8885 32.4524 7.91319 33.4258 8.53767C34.1266 9.28731 34.2447 10.0491 34.2376 11.0462C34.2376 11.2605 34.2388 11.4747 34.2414 11.689C34.2409 11.7825 34.2403 11.876 34.2397 11.9723C34.2844 12.3145 34.4193 12.5768 34.6648 12.8223C34.8842 12.8343 35.104 12.8399 35.3236 12.8429C35.4613 12.8457 35.5989 12.8485 35.7366 12.8513C35.9532 12.8553 36.1698 12.8589 36.3864 12.8615C38.4993 12.8892 38.4993 12.8892 39.2425 13.5609C39.3107 13.6194 39.3789 13.6779 39.4492 13.7382C39.9984 14.4551 40.0923 15.2129 40.0741 16.0915C40.0735 16.1942 40.073 16.2969 40.0724 16.4026C40.0702 16.727 40.0653 17.0512 40.0603 17.3756C40.0584 17.5969 40.0566 17.8183 40.055 18.0397C40.0507 18.5793 40.044 19.1187 40.0359 19.6583C40.5516 19.6583 41.0672 19.6583 41.5984 19.6583C41.5904 19.4689 41.5823 19.2796 41.574 19.0845C41.5749 18.2931 41.7735 17.7482 42.1966 17.0887C43.1914 16.1587 44.3906 16.2014 45.6677 16.2321C47.0539 16.2823 48.138 16.7042 49.0985 17.725C49.6138 18.3803 50.0064 19.1417 50.0112 19.9859C50.0123 20.1126 50.0123 20.1126 50.0134 20.2418C50.0138 20.3796 50.0138 20.3796 50.0142 20.5202C50.0151 20.6663 50.0151 20.6663 50.0161 20.8153C50.018 21.1378 50.0192 21.4602 50.0201 21.7827C50.0205 21.893 50.0209 22.0034 50.0214 22.1171C50.0234 22.7015 50.0248 23.2859 50.0257 23.8703C50.0268 24.4723 50.0301 25.0743 50.034 25.6762C50.0366 26.1405 50.0374 26.6047 50.0377 27.0689C50.0382 27.2907 50.0393 27.5125 50.0412 27.7343C50.0435 28.0458 50.0434 28.3573 50.0428 28.6688C50.044 28.7593 50.0453 28.8498 50.0466 28.943C50.0378 30.0529 49.5995 31.0508 48.8433 31.8592C47.7283 32.9022 46.5004 33.0734 45.0286 33.0799C44.9006 33.0831 44.7726 33.0863 44.6407 33.0896C43.7402 33.0946 43.0508 32.9755 42.3666 32.362C41.7559 31.7401 41.5841 31.104 41.5801 30.2479C41.5862 30.0726 41.5922 29.8974 41.5984 29.7169C41.0828 29.7169 40.5672 29.7169 40.0359 29.7169C40.039 29.8823 40.039 29.8823 40.0421 30.051C40.0493 30.4641 40.0537 30.8772 40.0574 31.2904C40.0593 31.4685 40.062 31.6465 40.0654 31.8246C40.1041 33.9031 40.1041 33.9031 39.4492 34.758C39.3469 34.8458 39.3469 34.8458 39.2425 34.9354C39.1758 34.9957 39.109 35.056 39.0403 35.1181C38.1078 35.6805 37.0678 35.6181 36.0166 35.6141C35.8379 35.6145 35.6593 35.6151 35.4807 35.6157C34.9978 35.617 34.515 35.6165 34.0322 35.6156C33.5257 35.6148 33.0193 35.6155 32.5128 35.616C31.6626 35.6165 30.8124 35.6158 29.9622 35.6144C28.9806 35.6128 27.9989 35.6134 27.0173 35.615C26.1729 35.6163 25.3285 35.6165 24.4841 35.6157C23.9805 35.6153 23.4768 35.6152 22.9732 35.6162C22.4997 35.617 22.0262 35.6164 21.5527 35.6147C21.3794 35.6143 21.2061 35.6145 21.0328 35.6151C19.6372 35.6198 18.6575 35.4852 17.6175 34.4644C17.4449 34.2898 17.2729 34.1148 17.1012 33.9394C17.0089 33.8459 16.9165 33.7526 16.8241 33.6593C16.4336 33.2649 16.0444 32.8693 15.6554 32.4734C15.4167 32.2305 15.1772 31.9883 14.9373 31.7464C14.8021 31.6098 14.6678 31.4722 14.5335 31.3347C14.4514 31.2519 14.3692 31.1691 14.2846 31.0838C14.2126 31.0106 14.1407 30.9374 14.0665 30.862C13.7459 30.595 13.4617 30.5838 13.056 30.5819C12.9745 30.5812 12.893 30.5805 12.809 30.5798C12.7216 30.5794 12.6342 30.579 12.5442 30.5786C12.3576 30.5763 12.1711 30.574 11.9846 30.5715C11.6916 30.5681 11.3987 30.5653 11.1058 30.5639C10.8223 30.5624 10.5389 30.5585 10.2554 30.5542C10.1255 30.5545 10.1255 30.5545 9.99295 30.5548C9.21436 30.5396 8.56128 30.2735 8.00469 29.7169C7.60866 29.12 7.40568 28.6031 7.40767 27.8819C7.40768 27.747 7.40768 27.747 7.40769 27.6095C7.40819 27.5137 7.4087 27.418 7.40922 27.3193C7.40935 27.2203 7.40949 27.1213 7.40963 27.0193C7.41018 26.7039 7.41141 26.3885 7.41265 26.0731C7.41314 25.8589 7.41358 25.6447 7.41398 25.4305C7.41498 24.9061 7.41689 24.3818 7.41875 23.8575C6.64532 23.8575 5.87188 23.8575 5.075 23.8575C5.0784 24.107 5.0818 24.3565 5.0853 24.6136C5.08759 24.8582 5.08937 25.1029 5.0911 25.3476C5.09256 25.5162 5.09455 25.6848 5.0971 25.8533C5.13144 28.1802 5.13144 28.1802 4.29108 29.0634C3.71036 29.5613 3.06371 29.7484 2.31049 29.7375C1.56411 29.679 0.980128 29.3984 0.485159 28.838C-0.0486674 28.0684 -0.0733996 27.3227 -0.0663029 26.4124C-0.0669658 26.2685 -0.0678359 26.1247 -0.0688957 25.9809C-0.0711082 25.5928 -0.0702646 25.2049 -0.0687109 24.8169C-0.0674677 24.4093 -0.0686228 24.0016 -0.0693874 23.594C-0.0702737 22.9097 -0.0691104 22.2255 -0.0667797 21.5412C-0.0641228 20.752 -0.0649829 19.9629 -0.0676708 19.1737C-0.0698924 18.494 -0.0701975 17.8143 -0.0689225 17.1347C-0.0681644 16.7296 -0.0680503 16.3246 -0.069672 15.9196C-0.0710911 15.5387 -0.07009 15.1578 -0.0672834 14.7769C-0.0666423 14.6378 -0.0668143 14.4987 -0.0678988 14.3596C-0.0738308 13.5208 -0.0153294 12.8357 0.485159 12.1387C1.04682 11.5809 1.69933 11.3085 2.48101 11.2232C3.35112 11.3148 4.00593 11.5617 4.58672 12.2364C5.02846 12.9112 5.08978 13.5482 5.08454 14.344C5.0844 14.4235 5.08426 14.503 5.08412 14.585C5.08358 14.8377 5.08235 15.0904 5.08111 15.3431C5.08062 15.5149 5.08017 15.6868 5.07977 15.8586C5.07878 16.2788 5.07687 16.699 5.075 17.1192C5.84844 17.1192 6.62188 17.1192 7.41875 17.1192C7.41535 16.8686 7.41195 16.6179 7.40845 16.3597C7.40616 16.1144 7.40439 15.8691 7.40266 15.6237C7.4012 15.4545 7.3992 15.2852 7.39665 15.116C7.39306 14.8714 7.39143 14.6268 7.39014 14.3822C7.38863 14.3077 7.38712 14.2332 7.38556 14.1564C7.38532 13.3737 7.60047 12.6515 8.10235 12.0411C9.08008 11.133 10.2141 11.226 11.4681 11.2226C11.6773 11.2217 11.8864 11.2184 12.0956 11.2148C12.2195 11.214 12.3434 11.2132 12.471 11.2124C12.8428 11.1538 12.958 11.0694 13.1805 10.7716C13.2513 10.5021 13.2513 10.5021 13.272 10.21C13.3875 9.39146 13.7261 8.90056 14.339 8.36181C15.0174 7.94138 15.6314 7.89871 16.4092 7.91091C16.51 7.91132 16.6108 7.91174 16.7146 7.91217C17.034 7.9138 17.3533 7.91747 17.6727 7.92121C17.8902 7.92268 18.1078 7.92402 18.3254 7.92522C18.8565 7.92818 19.3876 7.93392 19.9188 7.93952C19.9188 7.13386 19.9188 6.32819 19.9188 5.49811C19.5847 5.50378 19.2506 5.50944 18.9063 5.51528C18.5802 5.5191 18.2541 5.52206 17.928 5.52494C17.7025 5.52738 17.4771 5.53071 17.2517 5.53495C16.9264 5.54092 16.6011 5.54365 16.2757 5.5458C16.1761 5.54832 16.0765 5.55084 15.9738 5.55343C15.2001 5.55373 14.5569 5.36726 13.9702 4.84284C13.4668 4.31369 13.2666 3.73605 13.2354 3.01398C13.2601 2.23887 13.5678 1.62276 14.088 1.05514C14.715 0.50272 15.4221 0.408146 16.2326 0.406274ZM15.2313 2.47077C15.0022 2.75252 15.0022 2.75252 15.0481 3.10554C15.1024 3.44159 15.1024 3.44159 15.2905 3.61285C15.6123 3.78831 15.8588 3.77718 16.2248 3.7775C16.2954 3.77796 16.3661 3.77842 16.4388 3.77889C16.6756 3.78006 16.9123 3.77913 17.1491 3.77821C17.3188 3.77861 17.4885 3.77913 17.6582 3.77977C18.1193 3.7811 18.5803 3.78058 19.0413 3.77966C19.5235 3.77891 20.0057 3.7796 20.4879 3.78006C21.2977 3.78059 22.1075 3.77989 22.9172 3.7785C23.8538 3.7769 24.7904 3.77742 25.727 3.77903C26.5308 3.78036 27.3345 3.78055 28.1382 3.77978C28.6185 3.77933 29.0987 3.77927 29.5789 3.78023C30.0303 3.78108 30.4817 3.78049 30.9332 3.7788C31.099 3.77841 31.2648 3.77852 31.4306 3.77917C31.6567 3.77997 31.8827 3.77897 32.1088 3.7775C32.2354 3.77739 32.362 3.77728 32.4925 3.77717C32.8293 3.73798 32.9658 3.68818 33.2 3.44733C33.3137 3.0988 33.3279 2.93132 33.1817 2.59284C32.9897 2.35445 32.897 2.28437 32.6141 2.1778C32.2932 2.14806 32.2932 2.14806 31.929 2.15234C31.8255 2.15178 31.8255 2.15178 31.72 2.15121C31.4888 2.1502 31.2577 2.15059 31.0266 2.15098C30.8609 2.15056 30.6952 2.15005 30.5295 2.14947C30.0793 2.14816 29.6292 2.1481 29.179 2.14835C28.8034 2.14845 28.4277 2.14798 28.052 2.14751C27.1658 2.14643 26.2795 2.14638 25.3933 2.14697C24.4788 2.14756 23.5643 2.14636 22.6497 2.14428C21.8648 2.14256 21.0798 2.14198 20.2948 2.14229C19.8259 2.14247 19.3569 2.14221 18.888 2.14086C18.4471 2.13963 18.0062 2.13982 17.5652 2.14109C17.4034 2.14132 17.2415 2.14105 17.0797 2.14025C16.8588 2.13923 16.6379 2.14002 16.417 2.14126C16.2934 2.14124 16.1697 2.14122 16.0424 2.14121C15.6909 2.18104 15.5105 2.25746 15.2313 2.47077ZM21.6766 5.49811C21.6766 6.30378 21.6766 7.10944 21.6766 7.93952C23.3201 7.93952 24.9637 7.93952 26.657 7.93952C26.657 7.13386 26.657 6.32819 26.657 5.49811C25.0135 5.49811 23.3699 5.49811 21.6766 5.49811ZM15.1336 10.088C15.0506 10.3479 14.9924 10.5792 14.9444 10.8448C14.7836 11.5781 14.5984 12.109 13.9707 12.568C13.1789 13.0218 12.3735 12.9866 11.4898 12.981C11.2645 12.9806 11.0393 12.981 10.814 12.983C10.6749 12.9842 10.5358 12.984 10.3967 12.9821C9.97299 12.9845 9.70418 13.0436 9.37188 13.3106C9.16131 13.6367 9.15184 13.9058 9.15111 14.2893C9.15041 14.4097 9.14972 14.5302 9.14901 14.6543C9.14923 14.7876 9.14948 14.9208 9.14974 15.0541C9.14932 15.1946 9.14881 15.3352 9.14823 15.4757C9.14692 15.8572 9.14687 16.2388 9.14711 16.6203C9.14722 16.939 9.14674 17.2576 9.14627 17.5763C9.14519 18.3281 9.14515 19.08 9.14574 19.8318C9.14633 20.6071 9.14513 21.3824 9.14305 22.1577C9.14132 22.8236 9.14074 23.4895 9.14106 24.1554C9.14123 24.553 9.14098 24.9505 9.13962 25.3481C9.13839 25.7221 9.13858 26.0961 9.13986 26.4701C9.14009 26.6072 9.13982 26.7443 9.13901 26.8814C9.13799 27.0689 9.13896 27.2564 9.14002 27.4439C9.14 27.5487 9.13999 27.6535 9.13997 27.7615C9.18295 28.1083 9.2905 28.3442 9.46953 28.6426C9.79216 28.804 10.1526 28.7599 10.5075 28.7643C10.6809 28.7676 10.8543 28.7708 11.0276 28.7741C11.3006 28.7787 11.5736 28.783 11.8466 28.7869C12.1103 28.7908 12.374 28.7958 12.6376 28.801C12.7179 28.8018 12.7982 28.8026 12.881 28.8034C14.3375 28.834 15.1043 29.3485 16.1052 30.3738C16.1974 30.467 16.2896 30.5601 16.3819 30.6531C16.6234 30.8968 16.864 31.1412 17.1044 31.3859C17.4899 31.7784 17.8762 32.17 18.2634 32.5608C18.398 32.697 18.5319 32.8339 18.6659 32.9708C18.7477 33.0536 18.8295 33.1364 18.9138 33.2217C19.0213 33.3311 19.0213 33.3311 19.131 33.4428C19.5468 33.8143 19.9012 33.8468 20.4456 33.8439C20.555 33.8444 20.555 33.8444 20.6667 33.845C20.9113 33.846 21.1559 33.8456 21.4005 33.8452C21.5759 33.8457 21.7512 33.8462 21.9265 33.8468C22.4029 33.8481 22.8793 33.8481 23.3557 33.8479C23.7532 33.8478 24.1507 33.8482 24.5482 33.8487C25.486 33.8498 26.4237 33.8498 27.3614 33.8493C28.3292 33.8487 29.297 33.8499 30.2647 33.8519C31.0954 33.8537 31.926 33.8543 32.7566 33.8539C33.2528 33.8538 33.749 33.854 34.2452 33.8554C34.7118 33.8566 35.1783 33.8564 35.6449 33.8551C35.8162 33.8549 35.9875 33.8552 36.1588 33.856C36.3926 33.857 36.6262 33.8562 36.86 33.855C36.9278 33.8557 36.9957 33.8564 37.0656 33.8572C37.486 33.8525 37.749 33.7832 38.0828 33.5255C38.3167 33.1746 38.306 32.9235 38.3042 32.5184C38.3049 32.4085 38.3049 32.4085 38.3056 32.2963C38.3068 32.05 38.3067 31.8038 38.3065 31.5575C38.3071 31.3812 38.3077 31.2049 38.3085 31.0287C38.3102 30.5493 38.3107 30.0699 38.3108 29.5905C38.311 29.1905 38.3117 28.7905 38.3124 28.3906C38.314 27.4471 38.3145 26.5036 38.3143 25.5601C38.3142 24.5863 38.3163 23.6125 38.3193 22.6387C38.3219 21.8031 38.3229 20.9675 38.3228 20.132C38.3228 19.6327 38.3233 19.1334 38.3254 18.6341C38.3273 18.1646 38.3273 17.6951 38.3259 17.2255C38.3257 17.0531 38.3261 16.8807 38.3273 16.7083C38.3288 16.4731 38.3279 16.2379 38.3264 16.0026C38.3279 15.9002 38.3279 15.9002 38.3295 15.7957C38.3246 15.4548 38.2822 15.2702 38.0981 14.9795C37.7357 14.6283 37.3609 14.6623 36.885 14.6572C36.7422 14.6545 36.5994 14.6517 36.4566 14.6488C36.2325 14.6448 36.0084 14.6412 35.7842 14.6386C35.5672 14.6359 35.3503 14.6314 35.1333 14.6267C35.0342 14.6262 35.0342 14.6262 34.9332 14.6257C34.1981 14.607 33.6254 14.3219 33.0951 13.8197C32.4877 13.1217 32.4643 12.1953 32.4676 11.3148C32.4683 11.1094 32.4674 10.904 32.4645 10.6987C32.465 10.6094 32.4654 10.5201 32.4659 10.4281C32.4043 10.1115 32.273 9.99759 32.0281 9.79499C31.7486 9.65521 31.5098 9.68406 31.1972 9.68296C31.1312 9.6826 31.0651 9.68224 30.9971 9.68187C30.7748 9.68079 30.5526 9.68042 30.3303 9.68005C30.1713 9.67944 30.0124 9.67879 29.8534 9.6781C29.4208 9.6764 28.9882 9.67537 28.5556 9.67457C28.2855 9.67406 28.0153 9.67347 27.7452 9.67286C26.9003 9.671 26.0555 9.66961 25.2106 9.66879C24.2347 9.66784 23.2587 9.66527 22.2828 9.66132C21.5289 9.65838 20.775 9.65693 20.0212 9.65661C19.5707 9.65638 19.1202 9.6555 18.6697 9.65305C18.2459 9.65078 17.8222 9.65036 17.3984 9.65136C17.2429 9.65141 17.0873 9.65079 16.9318 9.64945C16.7194 9.64773 16.5071 9.64841 16.2947 9.6497C16.1759 9.64947 16.057 9.64923 15.9346 9.64899C15.558 9.70721 15.3978 9.81712 15.1336 10.088ZM1.85235 13.3106C1.72264 13.57 1.7418 13.7663 1.74098 14.0569C1.74042 14.1742 1.73986 14.2914 1.73929 14.4121C1.73916 14.5427 1.73905 14.6733 1.73895 14.8038C1.7385 14.9408 1.73801 15.0778 1.73749 15.2148C1.7362 15.5874 1.73557 15.9601 1.73514 16.3328C1.73485 16.5655 1.73445 16.7982 1.73402 17.0309C1.73268 17.7587 1.73174 18.4865 1.73136 19.2143C1.73092 20.0551 1.72921 20.8958 1.72638 21.7365C1.72427 22.386 1.72328 23.0355 1.72315 23.685C1.72305 24.073 1.72247 24.4611 1.72073 24.8492C1.71912 25.2142 1.71891 25.5792 1.71977 25.9443C1.71988 26.1422 1.71854 26.3402 1.71715 26.5381C1.7177 26.6559 1.71824 26.7736 1.7188 26.8949C1.71866 26.9973 1.71852 27.0997 1.71837 27.2052C1.76027 27.5116 1.83058 27.6435 2.04766 27.8614C2.37653 27.9758 2.37653 27.9758 2.73125 27.9591C3.06596 27.7553 3.19266 27.649 3.31719 27.2755C3.32667 27.0932 3.33037 26.9107 3.33091 26.7282C3.33146 26.6143 3.33202 26.5004 3.3326 26.383C3.3327 26.2579 3.33281 26.1328 3.33293 26.0039C3.33338 25.8709 3.33387 25.7379 3.3344 25.6049C3.33568 25.2435 3.33631 24.8822 3.33674 24.5208C3.33703 24.295 3.33743 24.0693 3.33786 23.8435C3.3392 23.1371 3.34014 22.4308 3.34052 21.7244C3.34096 20.909 3.34267 20.0935 3.3455 19.2781C3.34761 18.6478 3.3486 18.0175 3.34873 17.3872C3.34883 17.0107 3.34941 16.6343 3.35115 16.2578C3.35276 15.9037 3.35297 15.5496 3.35211 15.1954C3.352 15.0037 3.35334 14.8119 3.35473 14.6202C3.35418 14.5057 3.35364 14.3912 3.35308 14.2733C3.35329 14.1244 3.35329 14.1244 3.35351 13.9725C3.31096 13.6547 3.21102 13.4713 3.02422 13.213C2.56736 12.9131 2.28484 13.0147 1.85235 13.3106ZM43.5516 18.2911C43.3595 18.5916 43.3315 18.8285 43.3301 19.1814C43.3293 19.2823 43.3285 19.3832 43.3276 19.4872C43.3277 19.5973 43.3278 19.7075 43.3279 19.8209C43.3272 19.9374 43.3266 20.0538 43.3259 20.1738C43.3244 20.4928 43.3237 20.8117 43.3236 21.1308C43.3234 21.3301 43.323 21.5295 43.3225 21.7289C43.3207 22.4247 43.3199 23.1205 43.3201 23.8163C43.3202 24.4646 43.3181 25.1128 43.315 25.7611C43.3125 26.318 43.3114 26.8749 43.3116 27.4318C43.3116 27.7643 43.311 28.0967 43.309 28.4292C43.3071 28.8 43.3076 29.1707 43.3088 29.5416C43.3077 29.6515 43.3066 29.7614 43.3055 29.8747C43.3074 30.4686 43.3074 30.4686 43.5423 31.0035C43.9947 31.3977 44.5028 31.3011 45.0774 31.3038C45.1818 31.3058 45.2862 31.3078 45.3937 31.3099C46.195 31.3138 46.8544 31.2273 47.4822 30.6812C47.5432 30.6306 47.6041 30.58 47.6669 30.5279C48.173 29.9006 48.2969 29.245 48.2896 28.458C48.2903 28.3658 48.291 28.2736 48.2917 28.1785C48.2934 27.8763 48.2923 27.5742 48.2909 27.272C48.2912 27.0606 48.2916 26.8491 48.2921 26.6377C48.2926 26.1957 48.2918 25.7537 48.29 25.3116C48.2878 24.7463 48.289 24.181 48.2914 23.6157C48.2928 23.1794 48.2923 22.7432 48.2913 22.3069C48.2911 22.0985 48.2914 21.8901 48.2923 21.6817C48.2933 21.39 48.2918 21.0985 48.2896 20.8069C48.2904 20.7216 48.2912 20.6363 48.292 20.5484C48.282 19.8194 48.0525 19.2175 47.5249 18.7C46.8119 18.0311 45.9526 17.9799 45.0164 17.9737C44.9401 17.9717 44.8638 17.9697 44.7852 17.9676C44.3034 17.9644 43.9631 18.0125 43.5516 18.2911ZM5.075 18.877C5.075 19.9405 5.075 21.004 5.075 22.0997C5.84844 22.0997 6.62188 22.0997 7.41875 22.0997C7.41875 21.0362 7.41875 19.9727 7.41875 18.877C6.64532 18.877 5.87188 18.877 5.075 18.877ZM40.0359 21.4161C40.0359 23.5753 40.0359 25.7344 40.0359 27.9591C40.5516 27.9591 41.0672 27.9591 41.5984 27.9591C41.5984 25.7999 41.5984 23.6407 41.5984 21.4161C41.0828 21.4161 40.5672 21.4161 40.0359 21.4161Z" fill="black"/>
</svg>
