<svg width="50" height="50" viewBox="0 0 50 50" fill="none" xmlns="http://www.w3.org/2000/svg">
<g clip-path="url(#clip0_157_868)">
<path d="M26.8555 0.388271C27.1286 0.569656 27.3828 0.767162 27.6368 0.974209C27.7746 1.08071 27.9129 1.18652 28.0518 1.29159C28.1432 1.36184 28.1432 1.36184 28.2364 1.4335C28.6677 1.73431 28.9602 1.80613 29.4922 1.75546C29.6604 1.696 29.8271 1.63253 29.9927 1.56625C31.006 1.17811 31.9925 1.17991 33.0079 1.56015C34.0589 2.03762 34.6548 2.77708 35.1563 3.78793C35.4855 4.45564 35.4855 4.45564 36.0947 4.83964C36.513 4.91277 36.9334 4.93214 37.357 4.95294C38.4523 5.03443 39.3327 5.55888 40.0814 6.34759C40.7067 7.13651 40.8967 8.0203 40.9607 9.00033C41.0032 9.56657 41.087 9.95857 41.5272 10.3465C41.8017 10.548 42.0684 10.6881 42.3767 10.8314C43.3162 11.2925 43.9536 11.9099 44.3726 12.8822C44.7218 13.9385 44.6225 15.0299 44.2288 16.0541C44.0653 16.5219 44.0772 16.9012 44.2383 17.3744C44.4126 17.6412 44.5889 17.8451 44.8059 18.0763C45.6543 18.9982 45.9494 19.9747 45.9256 21.1994C45.8409 22.3882 45.1654 23.2994 44.3768 24.1454C44.1266 24.4501 44.1092 24.7694 44.1113 25.1533C44.1461 25.4314 44.2345 25.6582 44.336 25.9193C44.686 26.9069 44.6974 28.0825 44.2753 29.0515C43.7012 30.0876 42.9092 30.666 41.8518 31.1622C41.5119 31.3245 41.3195 31.512 41.1133 31.8336C41.0131 32.1344 40.9852 32.4132 40.9577 32.7277C40.8376 34.0496 40.5524 34.9095 39.5508 35.8375C39.15 36.1474 38.7343 36.3943 38.2813 36.6187C39.0326 37.9383 39.785 39.2571 40.5518 40.5677C40.7173 40.8511 40.8828 41.1346 41.0482 41.4181C41.1579 41.6059 41.2677 41.7937 41.3776 41.9814C41.5384 42.2564 41.6983 42.532 41.8579 42.8077C41.9053 42.8883 41.9527 42.9689 42.0015 43.052C42.7735 44.391 42.7735 44.391 42.7735 45.0477C42.6565 45.3621 42.5224 45.5612 42.2852 45.7984C40.9003 46.3221 38.5645 45.5994 37.1094 45.4078C37.0993 45.4734 37.0892 45.539 37.0788 45.6066C36.9965 45.9619 36.8626 46.2868 36.7203 46.6213C36.6913 46.6902 36.6622 46.7592 36.6323 46.8303C36.5708 46.9759 36.5091 47.1214 36.4471 47.2669C36.3535 47.487 36.261 47.7077 36.1687 47.9284C35.385 49.7856 35.385 49.7856 34.961 49.9976C34.731 50.0381 34.731 50.0381 34.4544 50.0587C34.3644 50.068 34.2744 50.0773 34.1816 50.0869C33.4007 49.8505 32.9551 48.7312 32.5745 48.0628C32.5163 47.9618 32.458 47.8607 32.398 47.7566C32.21 47.4298 32.0229 47.1024 31.836 46.775C31.709 46.5533 31.5819 46.3317 31.4549 46.1101C31.0602 45.4208 30.6667 44.7308 30.2735 44.0406C30.0266 43.6075 29.7797 43.1744 29.5326 42.7414C29.4345 42.5694 29.3366 42.3973 29.2386 42.2253C28.8753 41.5885 28.5055 40.9564 28.125 40.3297C28.0806 40.3696 28.0362 40.4096 27.9905 40.4508C26.9838 41.3491 26.0292 41.765 24.6613 41.7308C23.751 41.6412 23.0495 41.3106 22.3633 40.7203C22.2008 40.5897 22.0381 40.4595 21.875 40.3297C21.1543 41.5589 20.4386 42.7907 19.7327 44.0284C19.6671 44.1433 19.6016 44.2582 19.536 44.3731C19.5035 44.4301 19.4709 44.4872 19.4373 44.5459C19.4048 44.603 19.3722 44.6601 19.3386 44.7189C19.3061 44.7758 19.2736 44.8328 19.2401 44.8914C17.5589 47.8368 17.5589 47.8368 16.9312 48.8563C16.8943 48.917 16.8575 48.9777 16.8195 49.0402C16.261 49.9325 16.261 49.9325 15.7715 50.0625C15.691 50.0612 15.6104 50.06 15.5274 50.0587C15.4468 50.0599 15.3663 50.0612 15.2832 50.0625C14.9327 49.9694 14.753 49.7989 14.5508 49.5094C14.3514 49.132 14.1852 48.7429 14.0198 48.3497C13.9731 48.2409 13.9263 48.132 13.8782 48.0199C13.7428 47.7032 13.6093 47.3858 13.4766 47.068C13.4415 46.9841 13.4065 46.9002 13.3704 46.8138C12.8907 45.6593 12.8907 45.6593 12.8907 45.4078C12.774 45.4226 12.6573 45.4374 12.5371 45.4526C12.1009 45.5078 11.6646 45.5622 11.2283 45.6164C11.0401 45.6399 10.8519 45.6636 10.6637 45.6875C10.392 45.7219 10.1202 45.7557 9.84844 45.7893C9.7654 45.7999 9.68236 45.8106 9.5968 45.8216C8.23115 45.9883 8.23115 45.9883 7.72709 45.7801C7.4797 45.5691 7.35032 45.4172 7.2266 45.1148C7.26283 44.6058 7.40202 44.2012 7.63554 43.7537C7.68612 43.6548 7.68612 43.6548 7.73773 43.5539C8.22001 42.6275 8.75919 41.7322 9.29064 40.8335C9.58947 40.3271 9.88488 39.8186 10.1807 39.3104C10.7236 38.3792 11.269 37.4495 11.8164 36.5211C11.7589 36.5047 11.7015 36.4884 11.6422 36.4716C10.7072 36.1867 9.94049 35.5341 9.4727 34.6656C9.16077 34.0349 9.11848 33.3529 9.07323 32.6609C9.03153 32.1554 8.92321 31.8478 8.59379 31.443C8.25991 31.1806 7.9066 31.0025 7.52568 30.8204C6.5354 30.329 5.99166 29.6155 5.57865 28.5926C5.29299 27.6244 5.42506 26.6828 5.77015 25.7568C5.93964 25.2425 5.98676 24.7745 5.74803 24.2774C5.51776 23.9187 5.25065 23.6009 4.9683 23.2826C4.27285 22.4815 4.0665 21.54 4.11648 20.4841C4.24395 19.542 4.5852 18.8433 5.23686 18.1556C5.62878 17.7375 5.89471 17.3748 5.95707 16.7945C5.89982 16.4338 5.8064 16.1358 5.68241 15.7955C5.30391 14.6799 5.35858 13.5662 5.85942 12.4976C6.48593 11.417 7.52263 10.7388 8.69145 10.3492C9.04008 9.7965 9.07985 9.08174 9.11869 8.44491C9.21194 7.28834 9.80824 6.40415 10.6759 5.66362C11.4373 5.08975 12.2301 4.94233 13.1634 4.9022C13.7182 4.86368 14.098 4.73588 14.5142 4.34945C14.7296 4.06131 14.8767 3.74483 15.033 3.42172C15.5436 2.37586 16.2234 1.80989 17.3096 1.37704C18.2784 1.0922 19.1804 1.25351 20.1142 1.56854C20.6416 1.72758 21.1106 1.79067 21.6183 1.54641C21.9773 1.31635 22.2951 1.04912 22.6136 0.766689C23.7069 -0.202072 25.6025 -0.369146 26.8555 0.388271ZM23.6023 2.81747C22.7974 3.55842 21.896 3.89547 20.8031 3.90695C20.1789 3.87469 19.6672 3.72722 19.088 3.50068C18.5939 3.32577 18.2222 3.37007 17.7552 3.58041C17.2098 3.85031 16.9613 4.32632 16.7176 4.86215C16.2032 5.90494 15.5422 6.5248 14.4288 6.9095C13.9962 7.01844 13.5734 7.03894 13.1287 7.05941C12.5634 7.09838 12.1214 7.19817 11.7188 7.61483C11.3606 8.13555 11.2689 8.53613 11.2305 9.15902C11.1326 10.2601 10.8461 11.1025 10.0586 11.9117C9.63004 12.2622 9.16632 12.5074 8.66703 12.7418C8.22376 12.9555 7.98949 13.1644 7.71488 13.5719C7.51869 14.1604 7.56602 14.6606 7.81254 15.2259C8.17888 16.1608 8.16573 17.2897 7.80033 18.2227C7.47708 18.8839 7.06006 19.4025 6.54301 19.9195C6.26114 20.3798 6.28805 20.8613 6.3477 21.3844C6.5 21.7017 6.68596 21.9142 6.92448 22.1698C7.83473 23.1565 8.05402 24.0371 8.03723 25.3555C8.01778 25.8159 7.88472 26.188 7.70611 26.6105C7.53311 27.0827 7.49315 27.5525 7.70127 28.0174C8.00671 28.572 8.35066 28.7956 8.91728 29.0504C9.95607 29.5613 10.6193 30.1385 11.0352 31.2476C11.1885 31.7734 11.2362 32.2895 11.2671 32.8346C11.3133 33.455 11.4993 33.7741 11.9507 34.2017C12.4292 34.5207 12.8735 34.5861 13.44 34.5985C14.4856 34.6656 15.3143 35.0235 16.0771 35.7459C16.4115 36.1602 16.6414 36.6182 16.8561 37.1043C17.1111 37.6519 17.4158 37.9331 17.9688 38.1812C18.5091 38.3147 18.9909 38.1769 19.5008 37.9859C20.4886 37.6309 21.5111 37.6803 22.4884 38.0508C22.9214 38.2635 23.2735 38.5461 23.6329 38.8648C24.2027 39.3534 24.5677 39.4874 25.3212 39.4775C25.7752 39.4317 26.0205 39.2028 26.3428 38.8992C27.2652 38.0475 28.2186 37.7611 29.4556 37.7681C29.9867 37.8044 30.481 37.9432 30.9571 38.1812C31.6542 38.2518 32.1546 38.2251 32.7149 37.7906C32.9428 37.5143 33.0823 37.2538 33.2352 36.9304C33.7828 35.7762 34.3626 35.2611 35.5469 34.7633C35.8932 34.6483 36.2336 34.649 36.5967 34.6351C37.2555 34.5899 37.7576 34.4999 38.2378 34.0282C38.597 33.6132 38.6827 33.3443 38.73 32.8034C38.8468 31.4993 39.168 30.5063 40.1368 29.5814C40.415 29.3499 40.7109 29.2018 41.0387 29.0503C41.8142 28.6973 41.8142 28.6973 42.3207 28.0334C42.5024 27.4382 42.4057 26.9861 42.1875 26.4137C41.832 25.4194 41.8346 24.2577 42.2524 23.2814C42.5119 22.8102 42.8429 22.4015 43.2122 22.0119C43.5797 21.615 43.7244 21.2346 43.75 20.7008C43.6243 20.0614 43.2611 19.6672 42.8425 19.1881C42.0477 18.2646 41.9199 17.2938 41.9722 16.1139C42.0116 15.7243 42.1562 15.3754 42.2943 15.0123C42.4794 14.4507 42.4826 13.9668 42.2181 13.4376C41.8403 13.0088 41.4472 12.7475 40.9302 12.5099C39.9344 12.0193 39.321 11.3934 38.9531 10.324C38.8724 9.98075 38.835 9.66309 38.8105 9.31297C38.7619 8.64463 38.7196 8.08813 38.274 7.55723C37.7281 7.15743 37.2081 7.08838 36.554 7.04721C35.4865 6.95335 34.5196 6.57454 33.7891 5.75936C33.4864 5.35631 33.2718 4.9196 33.0567 4.46542C32.8196 3.98237 32.567 3.75254 32.1045 3.48275C31.5654 3.34797 31.0543 3.4686 30.542 3.65976C29.4093 4.0577 28.2978 3.92079 27.2156 3.44003C26.8618 3.25035 26.6196 2.99038 26.3459 2.70112C25.9637 2.33991 25.5608 2.16698 25.0428 2.10336C24.4078 2.18417 24.0615 2.38976 23.6023 2.81747ZM14.0625 37.0094C14.0258 37.073 13.9891 37.1366 13.9513 37.2021C13.8993 37.2924 13.8472 37.3826 13.7936 37.4755C13.735 37.5771 13.6764 37.6787 13.616 37.7833C13.4851 38.0103 13.3541 38.2373 13.2231 38.4643C12.9142 38.9998 12.6052 39.5353 12.2964 40.0709C12.199 40.2399 12.1016 40.4089 12.0042 40.5779C11.8826 40.7886 11.7611 40.9994 11.6396 41.2103C11.5832 41.3081 11.5267 41.406 11.4685 41.5069C11.4139 41.6018 11.3593 41.6967 11.303 41.7944C11.1825 42.0019 11.0609 42.2086 10.9383 42.4149C10.8756 42.5206 10.8129 42.6263 10.7483 42.7352C10.6911 42.831 10.6338 42.9268 10.5748 43.0256C10.4339 43.2438 10.4339 43.2438 10.4493 43.4547C10.5481 43.4414 10.5481 43.4414 10.6489 43.4278C10.9526 43.3873 11.2563 43.3477 11.5601 43.3082C11.6637 43.2942 11.7673 43.2802 11.874 43.2658C13.4885 43.0578 13.4885 43.0578 14.0503 43.2655C14.6279 43.792 14.8729 44.6468 15.1612 45.3529C15.206 45.4616 15.2508 45.5703 15.297 45.6823C15.4067 45.9487 15.5161 46.2153 15.625 46.482C15.8844 46.2477 16.043 45.9972 16.2156 45.6943C16.2732 45.5936 16.3309 45.493 16.3903 45.3893C16.452 45.2806 16.5137 45.1719 16.5772 45.0599C16.6418 44.9468 16.7064 44.8337 16.7711 44.7206C16.8719 44.5443 16.9727 44.368 17.0733 44.1916C17.3109 43.775 17.5506 43.3595 17.7914 42.9446C17.8576 42.8305 17.9238 42.7163 17.9901 42.6021C18.1155 42.3859 18.2411 42.1698 18.3668 41.9538C18.6757 41.42 18.97 40.885 19.2383 40.3297C19.1073 40.3348 19.1073 40.3348 18.9736 40.34C17.7966 40.3663 16.867 40.1801 15.918 39.4508C15.3797 38.9136 15.0454 38.2507 14.7049 37.5778C14.5722 37.3405 14.4701 37.1761 14.2579 37.0094C14.1934 37.0094 14.1289 37.0094 14.0625 37.0094ZM35.7422 37.0094C35.3761 37.3755 35.1524 37.7721 34.9121 38.2301C34.3727 39.2478 33.7486 39.8314 32.6416 40.2198C32.0252 40.3882 31.3952 40.3543 30.7618 40.3297C31.1076 41.0593 31.4897 41.7571 31.9026 42.4502C32.3686 43.233 32.8218 44.0232 33.2749 44.8135C33.5987 45.3768 33.9285 45.9338 34.2774 46.482C34.4589 46.2098 34.5684 45.971 34.6882 45.6683C34.7295 45.5662 34.7707 45.464 34.8132 45.3588C34.8989 45.1446 34.9841 44.9302 35.0687 44.7156C35.2967 44.1539 35.5001 43.6853 35.9375 43.2594C36.7248 42.9969 37.6364 43.1998 38.44 43.3082C38.5474 43.3222 38.6547 43.3361 38.7654 43.3505C39.0273 43.3847 39.2891 43.4194 39.5508 43.4547C39.4115 43.0846 39.2424 42.7458 39.0503 42.4003C38.9596 42.2369 38.9596 42.2369 38.8671 42.0703C38.8021 41.9539 38.737 41.8376 38.6719 41.7213C38.6225 41.6326 38.6225 41.6326 38.5721 41.5422C38.071 40.6436 37.5595 39.7519 37.0317 38.8686C36.9007 38.6468 36.7724 38.4235 36.6444 38.1999C36.5997 38.1223 36.555 38.0447 36.5089 37.9648C36.4228 37.8152 36.3371 37.6652 36.2521 37.515C36.1527 37.3432 36.0458 37.1757 35.9375 37.0094C35.8731 37.0094 35.8086 37.0094 35.7422 37.0094Z" fill="black"/>
<path d="M24.8854 6.22676C24.9623 6.2267 25.0393 6.22663 25.1185 6.22656C26.2458 6.2281 27.3213 6.2674 28.4193 6.54414C28.4852 6.55986 28.5511 6.57558 28.619 6.59178C30.3354 7.00808 31.9695 7.75513 33.3998 8.79024C33.4548 8.8297 33.5098 8.86917 33.5665 8.90983C36.7419 11.2169 38.8532 14.6143 39.4976 18.4918C40.0965 22.412 39.1391 26.3651 36.8151 29.5712C34.4881 32.5596 31.4303 34.4717 27.7357 35.2551C27.6263 35.2793 27.5169 35.3034 27.4042 35.3283C23.7472 35.9907 19.7801 35.0377 16.7133 32.9844C13.4249 30.6621 11.1981 27.2021 10.5131 23.2354C9.91556 19.4704 10.7731 15.4968 12.9774 12.373C13.4535 11.7186 13.9913 11.13 14.5521 10.5481C14.6643 10.4249 14.6643 10.4249 14.7787 10.2993C17.3543 7.55784 21.1992 6.22958 24.8854 6.22676ZM16.2123 12.0129C16.1463 12.0726 16.0804 12.1322 16.0124 12.1937C14.4524 13.6601 13.4502 15.7349 12.892 17.7746C12.8589 17.8904 12.8258 18.0062 12.7916 18.1256C12.3393 20.0432 12.4175 22.3384 12.9896 24.2199C13.01 24.2895 13.0304 24.359 13.0515 24.4307C13.9782 27.5155 16.1121 30.1973 18.9467 31.7395C21.9599 33.3234 25.3161 33.7871 28.6063 32.7935C31.8822 31.7341 34.545 29.5121 36.1502 26.4626C36.6398 25.493 36.9727 24.4981 37.2084 23.4387C37.2265 23.3594 37.2446 23.2801 37.2633 23.1984C37.4213 22.4348 37.4414 21.6839 37.4403 20.9057C37.4403 20.8393 37.4402 20.773 37.4401 20.7046C37.428 17.3961 36.151 14.5105 33.8881 12.1106C33.8234 12.0384 33.7587 11.9663 33.692 11.892C31.6946 9.75408 28.5548 8.47736 25.6617 8.37253C21.9953 8.2934 18.8848 9.49495 16.2123 12.0129Z" fill="black"/>
<path d="M25.2595 11.3622C25.6954 11.4808 25.8565 11.7283 26.0781 12.1091C26.4183 12.7359 26.7252 13.3793 27.0234 14.027C27.1765 14.3593 27.3327 14.69 27.4905 15.0201C27.5537 15.154 27.6157 15.2885 27.6765 15.4235C27.7632 15.6159 27.8538 15.8061 27.9454 15.9963C28.0231 16.1639 28.0231 16.1639 28.1024 16.335C28.4221 16.7187 28.7231 16.7348 29.2031 16.7966C29.2848 16.8095 29.3664 16.8223 29.4506 16.8356C29.717 16.8771 29.9839 16.9145 30.251 16.9515C30.4502 16.9801 30.6494 17.0089 30.8486 17.0377C31.159 17.0823 31.4695 17.1265 31.7801 17.1694C32.0824 17.2114 32.3844 17.2552 32.6863 17.2994C32.7788 17.3117 32.8713 17.324 32.9666 17.3367C33.5038 17.4171 33.8604 17.5214 34.2812 17.8708C34.4611 18.1601 34.4762 18.3415 34.4827 18.6826C34.2374 19.5339 33.3376 20.1966 32.7249 20.8066C32.5996 20.9325 32.5996 20.9325 32.4717 21.0609C31.8967 21.635 31.3177 22.1986 30.6619 22.6804C30.3014 23.192 30.5436 23.8746 30.6432 24.4644C30.7474 25.0638 30.857 25.6622 30.9672 26.2606C31.0147 26.5191 31.0613 26.7777 31.1078 27.0364C31.1224 27.1144 31.1371 27.1925 31.1522 27.2729C31.3696 28.4875 31.3696 28.4875 31.083 29.0403C30.8401 29.3236 30.6596 29.4743 30.2828 29.5098C29.5868 29.4455 29.0466 29.1523 28.4402 28.8205C28.3342 28.7642 28.2281 28.7078 28.1189 28.6498C27.6005 28.373 27.0867 28.0889 26.5759 27.7982C26.4875 27.7482 26.399 27.6982 26.3079 27.6467C26.142 27.5524 25.9769 27.4567 25.8127 27.3596C25.7386 27.3172 25.6646 27.2749 25.5883 27.2313C25.4927 27.1752 25.4927 27.1752 25.3952 27.1179C25.0381 26.9951 24.7724 27.1204 24.4398 27.2708C24.3425 27.322 24.2451 27.3732 24.1448 27.4259C24.0358 27.4828 23.9268 27.5398 23.8145 27.5984C23.6983 27.6599 23.582 27.7214 23.4658 27.7829C23.3471 27.8452 23.2283 27.9074 23.1095 27.9695C22.5859 28.2439 22.0637 28.5207 21.5417 28.798C21.4654 28.8386 21.3891 28.8791 21.3104 28.9209C21.1722 28.9944 21.0342 29.0683 20.8963 29.1425C20.3878 29.4146 20.021 29.5513 19.4375 29.4919C19.024 29.2545 19.024 29.2545 18.8516 29.0036C18.701 28.4291 18.7628 27.8622 18.8657 27.2863C18.8784 27.2099 18.891 27.1334 18.9041 27.0547C18.9445 26.813 18.9865 26.5717 19.0286 26.3303C19.0557 26.1693 19.0827 26.0084 19.1096 25.8474C19.2327 25.1153 19.3596 24.3843 19.5034 23.656C19.5801 23.2031 19.5801 23.2031 19.431 22.7878C19.3828 22.7415 19.3346 22.6953 19.2849 22.6476C19.2312 22.595 19.1774 22.5423 19.122 22.4881C19.065 22.4348 19.008 22.3814 18.9492 22.3264C18.8952 22.2738 18.8412 22.2212 18.7856 22.1669C18.4936 21.885 18.1932 21.615 17.8861 21.3498C17.4474 20.9687 17.0347 20.5641 16.6238 20.1535C16.5506 20.0815 16.4774 20.0095 16.402 19.9353C16.3315 19.8651 16.2611 19.7948 16.1885 19.7225C16.1255 19.6598 16.0624 19.5972 15.9975 19.5326C15.6782 19.1697 15.5312 18.948 15.5312 18.4568C15.5836 18.1788 15.646 18.0386 15.7998 17.7915C16.8479 17.086 18.5568 17.1129 19.7835 16.9553C20.0582 16.9198 20.3326 16.8827 20.6071 16.8454C20.6913 16.835 20.7755 16.8247 20.8623 16.814C20.9403 16.8032 21.0183 16.7924 21.0987 16.7813C21.167 16.7725 21.2354 16.7636 21.3059 16.7545C21.6362 16.6539 21.7629 16.4384 21.9276 16.1465C22.0038 15.9919 22.0038 15.9919 22.0815 15.8342C22.1382 15.7196 22.195 15.6051 22.2535 15.4871C22.2831 15.4268 22.3126 15.3665 22.3431 15.3043C22.4348 15.1171 22.5274 14.9304 22.6201 14.7437C22.8801 14.2196 23.1381 13.6946 23.3914 13.1673C24.3016 11.2793 24.3016 11.2793 25.2595 11.3622ZM24.9062 15.1364C24.861 15.2291 24.8157 15.3217 24.769 15.4171C24.6002 15.7619 24.4303 16.1061 24.2601 16.4501C24.1867 16.5989 24.1136 16.7478 24.0408 16.8968C23.9358 17.1115 23.8299 17.3256 23.7237 17.5397C23.6915 17.606 23.6594 17.6724 23.6262 17.7407C23.4447 18.1039 23.2814 18.4079 22.9531 18.6521C22.6417 18.7397 22.6417 18.7397 22.2768 18.7936C22.2118 18.8037 22.1467 18.8137 22.0797 18.8241C21.8726 18.8557 21.6652 18.8852 21.4578 18.9145C21.3195 18.9353 21.1812 18.9562 21.0429 18.9773C20.6708 19.0335 20.2984 19.0873 19.9258 19.1404C19.7982 19.1586 19.6707 19.1768 19.5393 19.1956C19.4412 19.2096 19.3432 19.2236 19.2422 19.238C19.2086 19.552 19.2086 19.552 19.4753 19.7772C19.5822 19.8755 19.6897 19.9731 19.7976 20.0704C19.9135 20.1792 20.0292 20.2882 20.1447 20.3973C20.3272 20.5684 20.5104 20.7383 20.6964 20.9056C21.711 21.8222 21.711 21.8222 21.8692 22.3803C21.8764 22.7142 21.8398 23.0109 21.7812 23.3396C21.7645 23.4661 21.7478 23.5926 21.7305 23.723C21.6758 24.128 21.6073 24.53 21.5371 24.9326C21.5135 25.0726 21.49 25.2127 21.4665 25.3528C21.4098 25.691 21.3517 26.029 21.293 26.3669C21.5189 26.2553 21.7448 26.1434 21.9705 26.0312C22.0749 25.9795 22.0749 25.9795 22.1814 25.9267C22.5596 25.738 22.9342 25.5447 23.3048 25.3415C23.3777 25.3018 23.4506 25.2621 23.5257 25.2212C23.6658 25.1444 23.8053 25.0669 23.9444 24.9883C24.3616 24.7604 24.7134 24.6146 25.1992 24.6091C25.4581 24.7049 25.6692 24.8001 25.9072 24.9326C26.0055 24.9845 26.0055 24.9845 26.1058 25.0375C26.2481 25.1129 26.39 25.189 26.5315 25.2659C26.7785 25.3995 27.027 25.53 27.2759 25.6601C27.7238 25.8942 28.1708 26.13 28.6172 26.3669C28.76 26.0814 28.6772 25.8892 28.6176 25.5777C28.5952 25.4562 28.5729 25.3348 28.5499 25.2097C28.5022 24.9558 28.4536 24.7021 28.4049 24.4483C28.3374 24.0795 28.2804 23.7106 28.2266 23.3396C28.2061 23.2317 28.1856 23.1239 28.1645 23.0128C28.1044 22.4899 28.1458 22.139 28.4747 21.7239C28.8081 21.3484 29.1747 21.0108 29.5449 20.6723C29.6722 20.5514 29.7993 20.4302 29.926 20.3086C30.2352 20.0133 30.5481 19.7223 30.8633 19.4333C30.8311 19.3689 30.7988 19.3044 30.7656 19.238C30.5245 19.188 30.2907 19.1503 30.0469 19.119C29.9745 19.1089 29.9021 19.0988 29.8275 19.0884C29.5951 19.056 29.3625 19.0249 29.1299 18.9939C28.8987 18.9628 28.6675 18.9314 28.4364 18.8993C28.2925 18.8794 28.1485 18.86 28.0044 18.8413C27.1133 18.7182 27.1133 18.7182 26.7536 18.3411C26.5432 18.032 26.3713 17.7129 26.2078 17.3776C26.1759 17.3132 26.1439 17.2489 26.111 17.1826C26.0099 16.9789 25.9097 16.7749 25.8096 16.5708C25.7408 16.4318 25.672 16.2929 25.6032 16.154C25.4354 15.8151 25.2683 15.4759 25.1016 15.1364C25.0371 15.1364 24.9727 15.1364 24.9062 15.1364Z" fill="black"/>
</g>
<defs>
<clipPath id="clip0_157_868">
<rect width="50" height="50" fill="white"/>
</clipPath>
</defs>
</svg>
