<svg width="35" height="35" viewBox="0 0 35 35" fill="none" xmlns="http://www.w3.org/2000/svg">
<g clip-path="url(#clip0_147_2106)">
<path d="M21.0564 0.274038C21.1269 0.288687 21.1974 0.303337 21.2701 0.318431C22.2781 0.534856 23.2445 0.847895 24.201 1.23107C24.2543 1.25237 24.3076 1.27367 24.3626 1.29562C25.9768 1.95129 27.4633 2.89738 28.781 4.0338C28.8312 4.07636 28.8813 4.11893 28.933 4.16278C29.8801 4.98972 30.7777 5.88522 31.5154 6.9049C31.5832 6.99622 31.6511 7.08755 31.7189 7.17887C32.2139 7.85403 32.6351 8.55424 33.0193 9.29747C33.0613 9.37718 33.0613 9.37718 33.1042 9.45849C33.9023 10.9862 34.4357 12.6594 34.7283 14.3561C34.7393 14.4163 34.7503 14.4765 34.7616 14.5385C35.1889 16.9557 35.0018 19.512 34.3865 21.8756C34.3722 21.9316 34.3578 21.9875 34.3431 22.0452C33.8636 23.8789 33.0342 25.6688 31.9256 27.2076C31.8959 27.2488 31.8662 27.29 31.8357 27.3324C30.8757 28.6569 29.8075 29.8961 28.5076 30.899C28.4071 30.9795 28.4071 30.9795 28.3047 31.0617C25.2601 33.4852 21.4762 34.7655 17.5957 34.7485C17.5064 34.7483 17.5064 34.7483 17.4153 34.7481C16.4516 34.7448 15.5121 34.6962 14.5623 34.5221C14.4995 34.5111 14.4367 34.5001 14.372 34.4887C12.9349 34.2303 11.5245 33.7837 10.2114 33.1433C10.1608 33.119 10.1102 33.0946 10.058 33.0694C10.015 33.0479 9.97199 33.0264 9.92767 33.0043C9.47308 32.8398 9.11627 32.9016 8.66682 33.0241C8.60527 33.0401 8.54372 33.0561 8.4803 33.0726C8.27717 33.1256 8.0744 33.1799 7.87161 33.2342C7.72895 33.2717 7.58627 33.3091 7.44356 33.3465C7.06725 33.4452 6.69124 33.545 6.31528 33.6451C5.93825 33.7452 5.56097 33.8444 5.1837 33.9436C4.69055 34.0733 4.19748 34.2034 3.70461 34.3342C3.5755 34.3684 3.44637 34.4025 3.3172 34.4365C2.98173 34.5248 2.64688 34.6149 2.31261 34.7076C2.24261 34.7267 2.17262 34.7457 2.1005 34.7654C1.96779 34.8015 1.83525 34.8384 1.70293 34.8759C1.2974 34.9854 0.900895 35.0554 0.480254 35.0006C0.279672 34.8778 0.174547 34.7993 0.0700976 34.5904C-0.0219814 33.95 0.204455 33.3245 0.375045 32.7154C0.407199 32.5981 0.439278 32.4808 0.471285 32.3636C0.55589 32.0543 0.641536 31.7454 0.727406 31.4366C0.812017 31.1315 0.895625 30.8262 0.979331 30.5209C1.49085 28.6583 1.49085 28.6583 1.72799 27.8299C1.79345 27.6011 1.85841 27.3722 1.92334 27.1432C1.96866 26.9844 2.0148 26.8259 2.06097 26.6673C2.08825 26.5713 2.11549 26.4753 2.14268 26.3793C2.16661 26.2963 2.19055 26.2133 2.21522 26.1278C2.28114 25.7871 2.1997 25.5619 2.04211 25.2618C1.26581 23.7391 0.720398 22.1221 0.411895 20.4401C0.400902 20.3846 0.389909 20.3291 0.378583 20.272C0.0153257 18.3857 0.0309706 16.1693 0.411895 14.2877C0.430581 14.1936 0.430581 14.1936 0.449646 14.0976C0.539306 13.6565 0.642374 13.2198 0.753691 12.7838C0.766171 12.7337 0.778651 12.6835 0.791509 12.6319C1.26287 10.7691 2.16019 8.93848 3.28299 7.38341C3.31396 7.33969 3.34494 7.29598 3.37685 7.25093C3.88553 6.53519 4.44788 5.89242 5.06033 5.26427C5.10222 5.22062 5.14411 5.17697 5.18727 5.13199C5.73214 4.5644 6.29069 4.04484 6.92309 3.57622C7.04336 3.48647 7.1618 3.39468 7.28014 3.30241C11.0924 0.369033 16.3701 -0.712789 21.0564 0.274038Z" fill="#64B161"/>
<path d="M21.0564 0.274038C21.1269 0.288687 21.1974 0.303337 21.2701 0.318431C22.2781 0.534856 23.2445 0.847895 24.201 1.23107C24.2543 1.25237 24.3076 1.27367 24.3626 1.29562C25.9768 1.95129 27.4633 2.89738 28.781 4.0338C28.8312 4.07636 28.8813 4.11893 28.933 4.16278C29.8801 4.98972 30.7777 5.88522 31.5154 6.9049C31.5832 6.99622 31.6511 7.08755 31.7189 7.17887C32.2139 7.85403 32.6351 8.55424 33.0193 9.29747C33.0613 9.37718 33.0613 9.37718 33.1042 9.45849C33.9023 10.9862 34.4357 12.6594 34.7283 14.3561C34.7393 14.4163 34.7503 14.4765 34.7616 14.5385C35.1889 16.9557 35.0018 19.512 34.3865 21.8756C34.3722 21.9316 34.3578 21.9875 34.3431 22.0452C33.8636 23.8789 33.0342 25.6688 31.9256 27.2076C31.8959 27.2488 31.8662 27.29 31.8357 27.3324C30.8757 28.6569 29.8075 29.8961 28.5076 30.899C28.4071 30.9795 28.4071 30.9795 28.3047 31.0617C25.2601 33.4852 21.4762 34.7655 17.5957 34.7485C17.5064 34.7483 17.5064 34.7483 17.4153 34.7481C16.4516 34.7448 15.5121 34.6962 14.5623 34.5221C14.4995 34.5111 14.4367 34.5001 14.372 34.4887C12.9349 34.2303 11.5245 33.7837 10.2114 33.1433C10.1608 33.119 10.1102 33.0946 10.058 33.0694C10.015 33.0479 9.97199 33.0264 9.92767 33.0043C9.47308 32.8398 9.11627 32.9016 8.66682 33.0241C8.60527 33.0401 8.54372 33.0561 8.4803 33.0726C8.27717 33.1256 8.0744 33.1799 7.87161 33.2342C7.72895 33.2717 7.58627 33.3091 7.44356 33.3465C7.06725 33.4452 6.69124 33.545 6.31528 33.6451C5.93825 33.7452 5.56097 33.8444 5.1837 33.9436C4.69055 34.0733 4.19748 34.2034 3.70461 34.3342C3.5755 34.3684 3.44637 34.4025 3.3172 34.4365C2.98173 34.5248 2.64688 34.6149 2.31261 34.7076C2.24261 34.7267 2.17262 34.7457 2.1005 34.7654C1.96779 34.8015 1.83525 34.8384 1.70293 34.8759C1.2974 34.9854 0.900895 35.0554 0.480254 35.0006C0.279672 34.8778 0.174547 34.7993 0.0700976 34.5904C-0.0219814 33.95 0.204455 33.3245 0.375045 32.7154C0.407199 32.5981 0.439278 32.4808 0.471285 32.3636C0.55589 32.0543 0.641536 31.7454 0.727406 31.4366C0.812017 31.1315 0.895625 30.8262 0.979331 30.5209C1.49085 28.6583 1.49085 28.6583 1.72799 27.8299C1.79345 27.6011 1.85841 27.3722 1.92334 27.1432C1.96866 26.9844 2.0148 26.8259 2.06097 26.6673C2.08825 26.5713 2.11549 26.4753 2.14268 26.3793C2.16661 26.2963 2.19055 26.2133 2.21522 26.1278C2.28114 25.7871 2.1997 25.5619 2.04211 25.2618C1.26581 23.7391 0.720398 22.1221 0.411895 20.4401C0.400902 20.3846 0.389909 20.3291 0.378583 20.272C0.0153257 18.3857 0.0309706 16.1693 0.411895 14.2877C0.430581 14.1936 0.430581 14.1936 0.449646 14.0976C0.539306 13.6565 0.642374 13.2198 0.753691 12.7838C0.766171 12.7337 0.778651 12.6835 0.791509 12.6319C1.26287 10.7691 2.16019 8.93848 3.28299 7.38341C3.31396 7.33969 3.34494 7.29598 3.37685 7.25093C3.88553 6.53519 4.44788 5.89242 5.06033 5.26427C5.10222 5.22062 5.14411 5.17697 5.18727 5.13199C5.73214 4.5644 6.29069 4.04484 6.92309 3.57622C7.04336 3.48647 7.1618 3.39468 7.28014 3.30241C11.0924 0.369033 16.3701 -0.712789 21.0564 0.274038ZM12.1013 4.64904C12.0503 4.67044 11.9992 4.69184 11.9465 4.71389C10.4141 5.36674 9.08979 6.34934 7.89234 7.49516C7.80512 7.57853 7.71706 7.66101 7.62888 7.74337C5.86373 9.4364 4.60519 11.8405 4.1033 14.2193C4.08462 14.3005 4.06594 14.3817 4.04669 14.4653C3.83615 15.3972 3.73525 16.3077 3.74014 17.2613C3.74027 17.312 3.74039 17.3627 3.74052 17.415C3.74407 18.2775 3.801 19.1134 3.96658 19.9615C3.97722 20.0191 3.98786 20.0766 3.99883 20.1359C4.28268 21.6294 4.87218 23.1622 5.69426 24.4468C5.73244 24.5065 5.73244 24.5065 5.7714 24.5674C5.84122 24.6746 5.91319 24.7803 5.98532 24.8858C6.21464 25.3487 6.03815 25.7555 5.88782 26.2182C5.76797 26.595 5.67408 26.9781 5.5773 27.3614C5.37533 28.1515 5.15732 28.9339 4.91427 29.7124C4.86193 29.916 4.84263 30.0754 4.85525 30.2838C5.60188 30.1387 6.33249 29.9667 7.06218 29.7517C7.48633 29.6275 7.91165 29.5199 8.34278 29.423C8.73252 29.3344 9.11218 29.2236 9.49354 29.1035C9.84717 29.021 10.1184 28.9968 10.4378 29.1812C10.5285 29.239 10.6187 29.2975 10.7085 29.3567C12.6736 30.5761 15.0694 31.1854 17.3718 31.1851C17.5086 31.1853 17.6454 31.1865 17.7821 31.1878C18.4087 31.1888 19.0024 31.133 19.6209 31.0358C19.7131 31.0224 19.7131 31.0224 19.8072 31.0088C23.1114 30.5176 26.2332 28.6559 28.3025 26.0455C28.3307 26.0104 28.3588 25.9753 28.3878 25.9391C28.8137 25.407 29.1947 24.8612 29.533 24.2682C29.5576 24.2256 29.5821 24.183 29.6075 24.1391C30.0316 23.3964 30.3523 22.6306 30.6396 21.8258C30.6854 21.6977 30.7326 21.5702 30.7803 21.4427C31.9452 18.2019 31.4818 14.4109 30.0401 11.341C28.3991 7.95716 25.4666 5.47945 21.9451 4.23888C21.8976 4.22161 21.8502 4.20434 21.8013 4.18654C18.7018 3.06511 15.0966 3.38596 12.1013 4.64904Z" fill="#FEFEFE"/>
<path d="M12.047 9.67079C12.1131 9.67061 12.1792 9.67044 12.2473 9.67026C12.8723 9.67886 12.8723 9.67886 13.1237 9.91005C13.4933 10.3651 13.6853 10.9494 13.9055 11.4866C13.9433 11.5775 13.981 11.6685 14.0189 11.7594C14.1127 11.9854 14.2057 12.2119 14.2981 12.4385C14.3362 12.532 14.3743 12.6254 14.4126 12.7188C14.4697 12.8582 14.5264 12.9977 14.583 13.1374C14.6328 13.2599 14.6328 13.2599 14.6837 13.385C14.7956 13.6856 14.8741 13.9082 14.7643 14.2167C14.5116 14.6394 14.2066 15.0195 13.8959 15.4007C13.8399 15.471 13.7838 15.5413 13.7261 15.6138C13.6743 15.6757 13.6226 15.7377 13.5693 15.8015C13.4303 16.0592 13.4594 16.193 13.5338 16.4725C13.9144 17.2462 14.5257 17.9512 15.1077 18.5802C15.2428 18.7284 15.2428 18.7284 15.4051 18.9378C16.2969 19.9356 18.1932 21.3189 19.5836 21.4927C20.0217 21.4379 20.2898 20.9842 20.5663 20.6596C20.6021 20.6176 20.638 20.5757 20.6749 20.5325C20.9163 20.2488 21.1497 19.9603 21.3743 19.663C21.4635 19.5487 21.4635 19.5487 21.6002 19.412C22.3892 19.3275 23.1113 19.8116 23.8005 20.1469C23.8442 20.168 23.8878 20.1891 23.9327 20.2109C25.7329 21.0837 25.7329 21.0837 25.9752 21.3261C26.0703 22.2756 25.8908 23.1959 25.2959 23.9563C24.5103 24.7968 23.4582 25.2878 22.3151 25.3313C19.2486 25.3658 16.1162 23.6934 13.9247 21.6358C13.7677 21.4896 13.6079 21.3493 13.4441 21.2107C13.2215 21.0174 13.0293 20.809 12.839 20.5843C12.7027 20.4247 12.5609 20.2712 12.4187 20.117C12.0598 19.7171 11.7318 19.2983 11.4147 18.8651C11.3735 18.8089 11.3322 18.7528 11.2898 18.6949C9.89327 16.7767 8.89621 14.9577 9.19032 12.52C9.36233 11.7611 9.75592 11.1138 10.2526 10.5253C10.302 10.4599 10.302 10.4599 10.3524 10.3931C10.8058 9.81073 11.3269 9.64932 12.047 9.67079Z" fill="#FEFEFE"/>
<path d="M21.0564 0.274038C21.1269 0.288687 21.1974 0.303337 21.2701 0.318431C22.2781 0.534856 23.2445 0.847895 24.201 1.23107C24.2543 1.25237 24.3076 1.27367 24.3626 1.29562C25.9768 1.95129 27.4633 2.89738 28.781 4.0338C28.8312 4.07636 28.8813 4.11893 28.933 4.16278C29.8801 4.98972 30.7777 5.88522 31.5154 6.9049C31.5832 6.99622 31.6511 7.08755 31.7189 7.17887C32.2139 7.85403 32.6351 8.55424 33.0193 9.29747C33.0613 9.37718 33.0613 9.37718 33.1042 9.45849C33.9023 10.9862 34.4357 12.6594 34.7283 14.3561C34.7393 14.4163 34.7503 14.4765 34.7616 14.5385C35.1889 16.9557 35.0018 19.512 34.3865 21.8756C34.3722 21.9316 34.3578 21.9875 34.3431 22.0452C33.8636 23.8789 33.0342 25.6688 31.9256 27.2076C31.8959 27.2488 31.8662 27.29 31.8357 27.3324C30.8757 28.6569 29.8075 29.8961 28.5076 30.899C28.4071 30.9795 28.4071 30.9795 28.3047 31.0617C25.2601 33.4852 21.4762 34.7655 17.5957 34.7485C17.5064 34.7483 17.5064 34.7483 17.4153 34.7481C16.4516 34.7448 15.5121 34.6962 14.5623 34.5221C14.4995 34.5111 14.4367 34.5001 14.372 34.4887C12.9349 34.2303 11.5245 33.7837 10.2114 33.1433C10.1608 33.119 10.1102 33.0946 10.058 33.0694C10.015 33.0479 9.97199 33.0264 9.92767 33.0043C9.47308 32.8398 9.11627 32.9016 8.66682 33.0241C8.60527 33.0401 8.54372 33.0561 8.4803 33.0726C8.27717 33.1256 8.0744 33.1799 7.87161 33.2342C7.72895 33.2717 7.58627 33.3091 7.44356 33.3465C7.06725 33.4452 6.69124 33.545 6.31528 33.6451C5.93825 33.7452 5.56097 33.8444 5.1837 33.9436C4.69055 34.0733 4.19748 34.2034 3.70461 34.3342C3.5755 34.3684 3.44637 34.4025 3.3172 34.4365C2.98173 34.5248 2.64688 34.6149 2.31261 34.7076C2.24261 34.7267 2.17262 34.7457 2.1005 34.7654C1.96779 34.8015 1.83525 34.8384 1.70293 34.8759C1.2974 34.9854 0.900895 35.0554 0.480254 35.0006C0.279672 34.8778 0.174547 34.7993 0.0700976 34.5904C-0.0219814 33.95 0.204455 33.3245 0.375045 32.7154C0.407199 32.5981 0.439278 32.4808 0.471285 32.3636C0.55589 32.0543 0.641536 31.7454 0.727406 31.4366C0.812017 31.1315 0.895625 30.8262 0.979331 30.5209C1.49085 28.6583 1.49085 28.6583 1.72799 27.8299C1.79345 27.6011 1.85841 27.3722 1.92334 27.1432C1.96866 26.9844 2.0148 26.8259 2.06097 26.6673C2.08825 26.5713 2.11549 26.4753 2.14268 26.3793C2.16661 26.2963 2.19055 26.2133 2.21522 26.1278C2.28114 25.7871 2.1997 25.5619 2.04211 25.2618C1.26581 23.7391 0.720398 22.1221 0.411895 20.4401C0.400902 20.3846 0.389909 20.3291 0.378583 20.272C0.0153257 18.3857 0.0309706 16.1693 0.411895 14.2877C0.430581 14.1936 0.430581 14.1936 0.449646 14.0976C0.539306 13.6565 0.642374 13.2198 0.753691 12.7838C0.766171 12.7337 0.778651 12.6835 0.791509 12.6319C1.26287 10.7691 2.16019 8.93848 3.28299 7.38341C3.31396 7.33969 3.34494 7.29598 3.37685 7.25093C3.88553 6.53519 4.44788 5.89242 5.06033 5.26427C5.10222 5.22062 5.14411 5.17697 5.18727 5.13199C5.73214 4.5644 6.29069 4.04484 6.92309 3.57622C7.04336 3.48647 7.1618 3.39468 7.28014 3.30241C11.0924 0.369033 16.3701 -0.712789 21.0564 0.274038ZM5.06033 6.35802C4.83976 6.59734 4.63981 6.8492 4.4451 7.10997C4.41285 7.15216 4.38059 7.19435 4.34736 7.23781C2.56347 9.57751 1.4264 12.3299 1.02713 15.2447C1.01717 15.3148 1.01717 15.3148 1.007 15.3863C0.604257 18.7004 1.19308 22.5626 3.01649 25.4038C3.16729 25.8044 2.93951 26.3344 2.83042 26.731C2.81218 26.7982 2.79395 26.8654 2.77515 26.9347C2.71497 27.1561 2.65438 27.3775 2.59379 27.5988C2.5516 27.7537 2.50944 27.9086 2.4673 28.0635C2.3563 28.4712 2.24494 28.8789 2.13351 29.2865C2.04319 29.6172 1.95314 29.9479 1.86309 30.2786C1.75498 30.6757 1.64675 31.0727 1.53849 31.4697C1.51813 31.5444 1.49777 31.6191 1.47679 31.696C1.41831 31.9104 1.35975 32.1248 1.30115 32.3391C1.28308 32.4053 1.26501 32.4715 1.24639 32.5397C1.12441 32.9849 0.997952 33.4286 0.86629 33.871C0.81356 34.047 0.813561 34.047 0.822051 34.2486C1.43279 34.1511 2.02639 34.0005 2.62316 33.8409C2.7247 33.814 2.82626 33.787 2.92782 33.7602C3.14219 33.7034 3.35651 33.6464 3.5708 33.5893C3.90419 33.5005 4.2377 33.4121 4.57124 33.3238C5.45744 33.0892 6.34345 32.8539 7.22915 32.6174C7.49729 32.5459 7.76553 32.4747 8.0338 32.4037C8.20922 32.3571 8.38449 32.3099 8.55976 32.2626C8.6638 32.235 8.76785 32.2075 8.8719 32.18C9.00211 32.1451 9.00211 32.1451 9.13496 32.1096C9.5914 32.0143 9.85953 32.0784 10.2599 32.3004C12.5398 33.4959 15.1171 33.9902 17.6726 33.9923C17.7234 33.9923 17.7741 33.9924 17.8264 33.9924C18.6902 33.9912 19.5228 33.932 20.3728 33.7701C20.4341 33.7591 20.4953 33.7481 20.5584 33.7368C23.3108 33.2345 25.8655 32.0565 28.0291 30.2838C28.0863 30.2369 28.0863 30.2369 28.1448 30.1891C29.0105 29.4763 29.8018 28.7103 30.49 27.8229C30.5612 27.7331 30.6324 27.6434 30.7036 27.5537C31.1865 26.9402 31.6172 26.3189 31.9939 25.6354C32.0256 25.5788 32.0572 25.5223 32.0898 25.464C33.2921 23.2999 34.1318 20.8167 34.1814 18.3209C34.1832 18.2528 34.185 18.1846 34.1868 18.1144C34.2885 13.6957 32.9174 9.36262 29.8306 6.11968C29.7494 6.03551 29.6681 5.95156 29.5865 5.86782C29.4652 5.74335 29.345 5.61786 29.2248 5.49231C28.7029 4.95282 28.1542 4.47905 27.5506 4.0338C27.5074 4.00123 27.4641 3.96866 27.4196 3.9351C25.4222 2.43343 23.077 1.44961 20.6253 0.992078C20.5087 0.970261 20.3922 0.94758 20.276 0.923719C14.6175 -0.228217 8.90855 2.29831 5.06033 6.35802Z" fill="#E5E5E5"/>
</g>
<defs>
<clipPath id="clip0_147_2106">
<rect width="35" height="35" fill="white"/>
</clipPath>
</defs>
</svg>
